<?xml version="1.0" encoding="UTF-8"?>
<svg id="Layer_1" xmlns="http://www.w3.org/2000/svg" version="1.1" viewBox="0 0 1920 1080">
  <!-- Generator: Adobe Illustrator 29.5.1, SVG Export Plug-In . SVG Version: 2.1.0 Build 141)  -->
  <defs>
    <style>
      .st0 {
        fill: #fff;
      }
    </style>
  </defs>
  <g>
    <path class="st0" d="M1237.36,593.07c-9.32,0-9.87.36-9.87,5.3v26.86c0,19.37,1.64,19.74,10.24,20.83l5.48.73c1.28,1.28,1.09,4.57-.37,5.3-9.5-.36-17.72-.55-25.76-.55s-16.26.19-23.2.55c-1.46-.73-1.64-4.02-.36-5.3l2.55-.36c8.59-1.28,10.24-1.82,10.24-21.19v-67.97c0-19.37-1.64-19.92-10.24-21.01l-4.02-.55c-1.28-.91-1.09-4.57.36-5.3,8.04.36,16.63.55,24.67.55s16.26-.19,23.39-.55c1.46.73,1.64,4.39.36,5.3l-3.1.55c-8.59,1.46-10.24,1.64-10.24,21.01v22.11c0,5.12.55,5.48,9.87,5.48h42.75c9.32,0,9.87-.36,9.87-5.48v-22.11c0-19.37-1.65-19.92-10.24-21.01l-4.02-.55c-1.28-.91-1.1-4.57.36-5.3,8.41.36,16.63.55,24.67.55s16.26-.19,23.57-.55c1.46.73,1.64,4.39.36,5.3l-3.29.55c-8.59,1.46-10.23,1.64-10.23,21.01v67.97c0,19.37,1.64,19.91,10.23,21.01l4.02.54c1.28,1.28,1.09,4.57-.36,5.3-8.04-.36-16.26-.55-24.3-.55s-16.63.19-24.67.55c-1.46-.73-1.64-4.02-.36-5.3l4.02-.54c8.59-1.1,10.24-1.64,10.24-21.01v-26.86c0-4.93-.55-5.3-9.87-5.3h-42.75Z"/>
    <path class="st0" d="M1357.26,608.24c-3.47,0-3.84.18-3.84,2.37,0,16.45,11.33,29.6,27.59,29.6,7.31,0,13.34-2.37,17.54-9.14,1.82-.55,3.84,1.28,4.02,2.92-6.21,14.62-19.74,20.1-30.88,20.1-21.19,0-35.27-15.71-35.27-36.55s14.07-40.56,38.56-40.56c13.52,0,27.41,8.78,27.41,24.67,0,1.65-.19,2.74-.91,4.2-1.1,1.64-5.3,2.38-12.61,2.38h-31.61ZM1374.07,600.93c5.3,0,7.68-.55,8.96-1.28,1.09-.73,1.83-2.19,1.83-3.84,0-6.58-4.2-11.87-12.06-11.87-12.24,0-17.91,11.87-17.91,15.71,0,.73.36,1.28,2.56,1.28h16.63Z"/>
    <path class="st0" d="M1421.59,602.94c0-8.22,0-10.41-4.57-13.15l-2.19-1.28c-.55-.73-.55-3.29.18-4.2,8.04-2.19,17.91-6.58,23.75-9.86,1.28,0,2.01.73,2.38,1.46-.36,3.47-.36,6.94-.36,8.41,0,1.28.54,1.64,1.64,1.83,8.95-4.75,13.7-9.14,26.13-9.14,7.86,0,13.89,4.2,16.45,7.68,1.09,1.64,2.19,2.74,2.92,2.74s1.82-.55,4.02-1.83c8.59-5.3,14.8-8.59,23.39-8.59,15.35,0,22.29,10.24,22.29,24.49v28.32c0,13.52.73,15.53,6.94,16.45l4.02.54c1.64,1.28.73,4.57,0,5.3-7.86-.36-14.07-.55-20.83-.55-6.03,0-12.24.19-18.82.55-1.46-.73-1.64-4.02-.36-5.3l2.92-.54c6.21-1.1,6.95-2.92,6.95-16.45v-24.85c0-9.69-3.29-17-14.8-17-5.3,0-10.05,2.74-12.24,5.48-1.82,2.19-2.19,4.39-2.19,9.5v26.86c0,13.52.73,15.71,6.94,16.63l2.74.36c1.28,1.28,1.1,4.57-.36,5.3-6.39-.36-12.42-.55-19.19-.55-6.03,0-12.24.19-18.27.55-1.46-.73-1.64-4.02-.36-5.3l2.37-.36c6.21-.91,6.95-3.1,6.95-16.63v-24.85c0-9.69-3.29-17-13.89-17-6.21,0-10.96,2.92-12.97,5.67-2.19,2.92-2.37,4.57-2.37,11.69v24.48c0,13.52.73,15.71,6.94,16.63l2.74.36c1.28,1.28,1.1,4.57-.36,5.3-6.39-.36-12.61-.55-19.36-.55-6.03,0-12.06.19-19.01.55-1.46-.73-1.64-4.02-.36-5.3l3.29-.54c6.21-1.1,6.94-2.92,6.94-16.45v-26.86Z"/>
    <path class="st0" d="M1559.67,602.94c0-8.22.18-9.86-4.57-12.97l-2.19-1.46c-.73-1.09-.73-3.29.18-4.2,7.31-2.01,18.28-7.13,23.76-10.78,1.46,0,2.56.73,2.92,1.82-.55,3.29-.91,5.48-.91,7.13,0,1.1.55,2.19,1.46,2.38,2.38-1.1,13.16-7.86,22.66-7.86,19.91,0,31.43,14.99,31.43,33.81,0,25.4-17.91,43.3-44.77,43.3-2.19,0-6.4-.36-8.04-.73-1.64.36-2.74,1.46-2.74,5.11v17.91c0,13.52.73,15.53,7.13,16.27l6.58.73c1.28,1.28,1.09,4.57-.36,5.3-9.5-.36-16.63-.55-23.39-.55-6.03,0-13.16.19-20.46.55-1.46-.73-1.64-4.02-.36-5.3l4.75-.55c6.21-.73,6.95-2.92,6.95-16.45v-73.45ZM1578.85,631.44c0,5.67,2.01,8.41,5.85,11.69,2.37,2.01,6.94,3.65,9.69,3.65,12.6,0,19.55-13.15,19.55-29.96s-8.96-29.24-23.21-29.24c-4.2,0-7.67,1.46-9.86,3.65-1.46,1.64-2.01,4.75-2.01,12.43v27.77Z"/>
    <path class="st0" d="M1304.97,721.55c-1.28,1.46-4.57,1.64-5.85.36-3.11-11.51-11.33-26.68-35.45-26.68s-46.6,16.45-46.6,53.9,24.3,57.92,47.87,57.92,33.07-15.35,38.19-27.22c1.64-1.64,4.57-.91,5.48.73-1.28,12.24-6.21,24.3-8.77,27.77-2.19.37-4.39,1.1-6.4,1.65-4.02,1.27-16.63,4.38-28.51,4.38-18.09,0-33.62-3.65-46.78-12.24-14.8-9.68-25.94-26.31-25.94-50.24,0-21.38,9.5-38.01,23.02-48.42,13.52-10.24,31.97-15.53,50.43-15.53,10.41,0,23.02,1.82,31.61,4.02,2.19.55,3.47.73,5.12,1.1.36,4.2.73,14.98,2.56,28.5Z"/>
    <path class="st0" d="M1320.35,727.08c0-15.88,12.12-28.11,30-28.11,19.41,0,29.17,12.71,29.17,26.71,0,16.23-12,27.64-29.17,27.64-19.18,0-30-11.76-30-26.24ZM1350.71,748.84c8.12,0,14.59-6,14.59-20.35s-5.06-25.06-16.12-25.06c-6.71,0-14.59,5.65-14.59,21.18,0,12,4.71,24.23,16.12,24.23ZM1325.62,775.71c-1.28-1.67-1.28-7.29,0-8.83h50.23c1.28,1.54,1.28,7.16,0,8.83h-50.23Z"/>
  </g>
  <g>
    <path class="st0" d="M522.98,311.23c-226.81,26.09-298.69,243.11-238.56,305.22,12.61,13.02,34.61,3.15,33.51-14.94-9.2-151.72,114.34-250.78,258.83-243.53,114.76,5.76,114.79,102.03,111.76,145.66-6.87,98.77-80.49,167.8-153.46,175.28,1.19-20.61,1.83-37.88,1.77-52.34-.25-67.17,8.01-117.78-29.69-124.77-.68-.13-1.36-.21-2.03-.26-4.78-.31-9.52,1.4-13.01,4.71-3.49,3.31-5.38,7.96-5.4,12.77-.13,40.77-.14,96.88-2.34,156.38-39.41-5.1-67.1-3.8-67.87,16.06-.75,19.24,33.84,28.79,65.58,32.16-4.91,83.6-15.22,167.6-37.14,220.4-21.48,51.74,62.5,74.79,77.56-103.82,3.85-45.63,7.07-83.71,9.48-115.69,42.03-3.09,105.83-18.79,160.94-86.16,41.1-50.24,54.4-127.54,45.01-192.15-15.95-109.8-106.74-147.43-214.94-134.99Z"/>
    <path class="st0" d="M1653.87,191.48c-4.4-20.75-28.24-34.03-52.69-15.15-3.29,2.54-4.39,7.1-2.75,10.93,28.56,66.47-7.43,96.62-31.92,96.62-19.02,0-19.47-18.67-15.64-28.92.94-2.51,1.86-4.93,2.75-7.26,7.06-18.52,12.64-33.15,6.23-46.49-5.5-11.45-18.85-19.85-44.61-28.1-22.64-7.26-28.5-9.9-27.07-15.99,2.86-12.2,3.79-25.86-18.52-46.81-8.17-7.67-15.37-11.46-22.02-11.58-4.63-.09-15.71,1.71-18.76,20.21-3.68,22.32-.19,56.28,20.25,68.38-.25,75.98-32.01,130.42-63.98,135.56,39.99-58.36,35.37-117.19-6.53-127.25-83.92-20.14-133.28,110.33-59.99,161.18-10.39,11.81-25.59,24.82-53.56,33.05,16.28-41.07,9.27-123.46-56.98-124.52-21.47-.34-45,13.66-61.69,39.48-5.21-13.05-16.69-25.78-35.13-25.59-2.98.03-5.69,1.07-7.45,3.34-1,1.29-1.37,2.7-1.47,4.16,0,0,0-.02,0-.02-5.29,56.46-20.34,91.45-44.59,111.16-3.57-6.84-8.91-12.62-13.57-16.6-9.76-8.34-24.05-14.14-35.75-14.28-24.65-.29-39.84,8.07-49.64,26.37-5.33,9.95-4.96,23.89-.13,34.74-15.98,6.95-27.58,30.97-31.03,53.79-2.14,14.15-1.6,29.55,2.95,43.57-11.71,34.3-23.93,59.82-34.55,55.08-8.37-3.73-4.68-10.86-1.05-21.18.89-2.53,1.77-4.97,2.62-7.31,6.72-18.65,12.03-33.38,5.37-46.59-5.71-11.34-19.21-19.5-45.13-27.27-22.77-6.83-28.68-9.37-27.36-15.49,2.64-12.25,3.31-25.93-19.39-46.46-8.31-7.52-15.58-11.17-22.23-11.17-4.63,0-15.68,2-18.38,20.55-3.26,22.39,7.35,60.53,28.02,72.26-5.49,38.33-15.26,55.46-27.8,67.99-12.53,12.53-24.41,15.2-26.27,25.75-2.1,11.91,6.56,32.88,32.88,21.41,28.63-12.49,48.83-73.76,52.74-100.1l36.03,13.65c-7.39,20.1-14.66,41.27-14.24,61.5.63,30.23,24.02,41.18,54.09,30.85,22.75-7.82,39.97-34.72,49.62-59.71,5.25,3.51,11.24,6.48,18.21,8.64,6.06,1.88,12.19,2.83,18.21,2.83,20.06,0,39.43-10.74,54.55-30.23,22.87-29.49,33.65-70.81,25.84-107.2,12.01-9.36,21.26-20.03,28.41-30.79-1.13,43.77-2.85,91.03-5.71,123.37-3,33.88-16.03,153.12,6.14,167.24,31.82,20.27,32.88-143.29,34.63-192.05.46-12.8,1-23.35,1.73-34.5,7.53-109.67,50.78-163.25,75.51-158.28,24.73,4.97,24.63,63.43,8.59,86.31-.16,0-31.3-7.43-52.22,12.48-34.33,32.68,21.1,99.69,80.51,24.63,30.84-7.21,80.88-33.59,106.1-65.6,38.57-2.14,75.28-22.73,95.06-50.57,23.38-32.9,31.37-82.1,35.74-108.14l35.77,14.32c-7.76,19.96-15.42,40.99-15.38,61.22.07,30.23,28.9,45.47,59.72,37.68,80.25-20.27,95.14-90.42,86.95-129.06ZM1010.26,398.3c9.47,2.16,19.54,16.98,19.54,20.17,0,0-3.41,4.24-14.48,4.24-6.92,0-17.12-3.57-19.44-9.1-2.69-6.41,1.65-18.2,14.37-15.3ZM1009.07,524.25c-4.94,2.55-9.79,3.84-14.42,3.84-7.8,0-16.29-4.27-20.51-11-5.66-9.03-7.11-26.52-3.9-39.17,5.58-22.03,17.44-24.4,17.44-24.4,3.4.97,7.06,1.75,10.95,2.31,4.06.58,8.13.88,12.1.88,9.31,0,18.39-1.61,27.09-4.82,1.8,30.24-10.74,63.06-28.75,72.35ZM1343.79,323.64c-42.72-28.35-9.89-92.07,14.03-93.49,27.74-1.64,16.06,54.13-14.03,93.49Z"/>
  </g>
</svg>