<?xml version="1.0" encoding="UTF-8"?>
<svg id="Layer_1" xmlns="http://www.w3.org/2000/svg" baseProfile="tiny" version="1.2" viewBox="0 0 1141.17 586.11">
  <!-- Generator: Adobe Illustrator 29.5.1, SVG Export Plug-In . SVG Version: 2.1.0 Build 141)  -->
  <path d="M1141.17,78.91l-5.36-3.21c-2.67-.83-5.47-1.09-8.26-.92,3.24,3.35-.89,2.48-2.23,1.04-.59-.63-.47-2.01-1.06-2.79-.65-.86-17.43-7.06-19.95-7.9-6.78-2.25-9.9-2.4-16.65-3.02-3.92-.36-7.75-1.18-11.65-1.55.07,2.28,1.53,2.4,2.95,3.85-.04,2.86-7.43-.68-8.82-1.23-3.16-1.27-9.83-1.74-13.98-2.02-3.44-.23-10.75.95-13.37-1.49-1-.93,1.07-2.24-2.78-3.7-8.32-3.15-14,.17-20.54-.76-2.56-.36-7.77-4.8-11.6-4.14l1.18-.88c-2.34-2.27-5.75-1.12-8.54-1.53-1.14-.17-5.79-2.18-6.27-1.73-.47.44,1.29,2.84-2.36,1.17l.59-1.16-11.86-1.19.6,1.18h-4.15c-.29,1.74,1.01,2.82,1.78,4.15l-7.12-.58.31,1.17c-3.33-2.81-8.31-.14-11.8-.6-2.91-.38-3.69-3.63-5.68-.86-.98,1.36-.78,3.41-3.11,3.16-1.85-.2-7.98-3.78-9.05-5.23-.82-1.12,1.99-1.1,2.08-1.2,1.05-1.1-2-4.38-4.15-4.73l-10.99-1.78-3.23.6c-.18-.05-.4.04-.59,0-1.41.4.34,2.62,0,2.96-3.04-.41-6.88-1.04-9.89-1.16-.9-.04-1.29.57-1.37.57-.39-.02-.79,0-1.19,0-.79-1.03-2.19-.76-3.17-1.3-.77-.42-.79-1.47-1.41-1.66-5.38-1.69-10.04.54-14.71.51-.29,0-.24-1.22-1.39-1.45-1.11-.22-2.15.46-3.26.34-1.99-.21-4.69-2.13-7.46-1.18l.59,2.36c-2.88.39-4.77.85-8.3,1.19-4.28-3.31.17-2.32,2.51-3.12,3.48-1.2,7.05-2.72,10.53-3.99.87-.32,1.19-.84,1.78-1.19,1.11-.66,3.56-.61,2.96-2.66-.27-.92-2.22-.79-2.95-1.21-.45-.26-.52-.82-.6-.86-3.4-1.93-2.1-1.08-5.33-1.19-2.99-.09-5.17-.17-8.3,0-.52.03-.74-.15-1.78,0-.19.03-.4-.02-.59,0-.38.05.07-.51-.59,0-.12.1-.51-.1-.59,0l-.59-2.36-7.11-.61,2.37-1.76c-1.73.01-3.23-.69-5.01-.62-1.87.07-10.78,2.05-8.62,4.76h-6.52c1.15,1.05.57,1.52.59,1.78h-.59c-1.06-1.55-2.66-.22-3.56,0-5.25,1.29-8.71-1.28-14.41,0-4.49,1.02-10.65,2.14-15.65,3.41-1.98.5-3.62-.89-3.13,1.92-1.43-.93-2.19.23-3.55.59-.06.96,1.26.59,2.09,1.15.51.35,1.25,1.19,1.46,1.8-1.96-1.08-3.01.45-4.48.57-2.46.21-15.25-.68-15.67,1.52.68,5.56,6.52,2.21,7.7,6.8-3.45.95-4.99-1.33-7.56-2.21-2.46-.84-4.44-.55-6.83-.87-.78-.11-1.78-1.19-2.46-1.05-.5.1-1.25,1.4-.92,1.76.11.12,3.02.1,2.67,1.77-1.82-.84-3.79-1.1-5.64-.58-.32.09-.81-.06-1.18,0-.25.29.72,1.03,1.18,1.18.18.06.41-.06.59,0,3.35,2.37-.61,1.78-2.96,1.19-2.1-2.65.28-3.86-1.49-5.92-1.99-.14.6,1.81-1.12,3-1.41.97-3.97.28-5.08,2.62,6.52,4.25,2.73,3.73,2.36,7.41-.17,1.73.97.97,1.19,1.19.08.08-.17.82.1,1.05.58.49,2.19-.09,3.07.12.62.15.33,1.16.38,1.2-.52.41-1.09,1.13-1.19,1.78-.02.15-.04.45,0,.59.16.59,1.65,1.65,1.17,2.34-.06.09-.97.15-1.76,1.21-.51.68-1.21,1.47-1.19,2.37-2-.69-4.2,2.32-5.01,2.42-2.04.24-5.73-.31-7.43-1.54-.13-1.87,2.22.19,3.76-.36.68-.24.75-1.21,1.17-1.5,2.11-1.48,2.46-2.71,2.93-3.04.42-.3,1.39.2,1.63-.5,1.5-4.39-1.72-3.5-2.28-5.36-.7-2.35.21-5.91-.07-7.48-.09-.53-2.76-1.37-2.96-2.57-.17-.99,4.13-4.01,1.35-4.86-.57-.17-9.66-.5-10.12-.31-1.51.62-1.53,4.37-2.67,5.4-1,.91-3.73.43-4.6,2.22,3.59,1.5,1.77,2.78,1.18,5.62,2.31-1.22,9.74,4.88,5.57,5.88-.57.14-4.08-1.94-5.26-2.34-3.2-1.07-6.54-2.07-9.79-2.95-.52-.14-.94-.42-1.78-.59-3.12-.65-7.05-.33-9.55-.91-1.43-.33-3.83-2.82-5.54-2.69-.94.07-1.99,1.18-1.5,1.81.24.3,5.73,1.76,7.11,2.97.34.3,1.56,2.04,1.19,2.37-2.24-.9-2.9,1.7-3.34,1.81-2.92.72-2.35-2.38-2.91-2.44-1.71-.17-4.83,1.42-6.78,1.81-.84-.93-3.36-.8-4.44-.58-1.64.33-3.54,3.32-5.42.35-.36-.57-.16-1.48-.22-1.54-.52-.53-1.68.58-1.77.59-.2.03-.43-.05-.59,0-1.53.46-1.56-.16-2.96,1.78-3.64-.16-3.87,1.04-5.77,1.75-1.61.61-3.29.55-4.6.72-5.22.68-1.03,4.23-7.11,4.09-3.05-.07-2.31-.81-3.68-1.84-.57-.43-1.89-.51-1.95-.59-1.12-1.38,3.66-2.98,4.74-2.37-.6-3.52-5.63-2.11-8.29-2.36,2.38,2.21.25,3.06.08,4.55-.07.68,3.09,3.4,1.04,4.87-1,.72-4.68-1.53-6.64-1.14-.45.09-.41,1.05-1.14,1.36-2.3.99-4.29,1.63-6.38,2.8-.49,1.53,1.5,1.47,1.74,1.84.32.49-.56,1.4-.55,1.71-1.08.85-1.83.5-2.97.31-2.11-.36-5.8-2.49-7.3-2-3.78,1.22,1.55,2.17,2.11,2.45,1.76.88,2.49,2.49.14,2.83-1.94.28-3.86-1.4-5.62-2.1-1.02-.4-2.42.46-3.58-1.16-.19-.27-1.53-3.4-1.53-3.6.02-.46,1.08-1.07.97-1.75-.07-.45-6.94-3.26-7.71-4.76,5.19.5,10.6,2.71,15.77,3.19,3.24.3,5.88.11,8.93-1,5.34-1.95,5.32-4.02.13-6.29-2.49-1.09-9.52-3.55-12.27-4.31-3.93-1.08-7.68-.82-11.59-1.49l-1.28-2.24c-3.16,1.57-7.32,1.69-9.77-1.18l4.15-1.18c-1.95-.35-3.41-1.52-5.49-1.09-.72.15-1.81,1.08-1.92,1.07-.43-.04-.61-2.66-3.48-1.8-.63.19-.37,2.17-1.26,2.4-1.3.34-1.31-1.95-1.77-1.77-1.03.4-3.14,3.08-4.14,2.96l.29-2.96c-2.19.13-5.86,1.46-6.52,3.55-.38-.12-.86-.56-1.19-.59-2.48-.27-5.24,1.15-5.52,1.1-.59-.1-.91-1.11-1.88-1.12-.45,0-.23,1.08-.34,1.16-1.15.85-1.59-1.65-2-1.65-.25,0-3.09.69-3.31.82-.59.37-.44,1.31-.58,1.47-1.04.06-2.03.03-2.37,1.19-.19.03-.4-.01-.59,0-.56.04-2.28-.11-2.37,0-.21.23.21,2.17,0,2.38-.38.39-4.99-1.08-7.43.57-2.52,1.72,2.21,1.62,2.68,2.68-1.96.4-1.86,2.05-2.37,2.66-1.94,2.33-2.54,1.48-4.53,2.61-2.04,1.15-3.3,5.94-4.69,7.46-.95,1.03-4.51,2.39-5.89,3.57-.8.68-2.04,2.88-2.4,2.96-.71.15-1.47-1.26-2.25-1.13-.91.16-2.65,2.59-3.5,3.08-1.49.85-3.32,1.04-4.74,1.75-8.39,4.17-3.74,9.61-2.22,16.75,6.33,4.21,7.88.83,12.49-2.33.56-.38,1.65-.22,2.32-.67.59-.39.49-1.63.89-1.45,1.48.67,4.63,8.7,6.21,10.8.48.64,2.31,1.35,2.29,1.93,0,.29-1.1.85-.99,1.66.02.15,1.06,2.59,1.17,2.69.24.21,3.35.22,3.47.1.48-.52-1.49-2.25,2.81-3.42.96-.26,2.32.11,2.99-.26,1.96-1.08,2.12-8.5,3.02-9.67,1.24-1.61,3.76-1.21,5.05-2.1.4-.28,2-3.04,2-3.23-.04-1.29-4.55-2.62-5.26-3.5-.36-.44-1.17-3.03-1.14-3.54.02-.35.98-.36,1.15-.79.37-.91.3-2.26.8-2.94.25-.34,6.21-4.5,6.94-4.91.15-.08.44.08.59,0,.18-.1,1.03.08,1.74-.3.2-.11,2.84-2,2.93-2.16.35-.63-.49-1.68-.35-2.48.05-.31.75-1.54,1.01-2.16,1.81.37,2.4-1.49,3.86-1.77,1.49-.29,4.58.28,6.21.59.19.04.4-.04.59,0,.2.04.42-.05.59,0l1.19.59c.07.09-.04.38,0,.59.12.71-.08,1.61,0,2.37-2.96-1.58-2.68,1.32-5.03,2.97-1.3.91-3.62,2.32-5.08,3.24-1.65,1.04-3.14-.42-2.95,4.15.06,1.47,1.19,3,1.07,4.08-.1.87-1.26,1.87-1.09,2.98.04.24,3.67,2.5,4.04,2.6,3.45.93,4.95-.55,7.6-1,3.87-.66,7.92-.95,11.76-1.83.89,2.37,3.33.97,2.72,3.57-3.53-.1-2.84,1.89-6.52,1.78-2.47-.07-10.23-1.4-11.73,1.29-1.71,3.07,2.64,2.71,2.82,2.88.38.36.7,6.82-2.39,6.24-1.42-.27-2.61-2.63-3.53-3.03-2.4-1.02-5.36,3.16-5.31,5.3.01.48.58.84.59.94.01.39-.01.79,0,1.19,0,.2,0,.4,0,.59.05,5.6-2.03,2.3-4.15,3.56-.15.09,1.28,1.72-1.63,2.27-2.72.51-2.83-2.16-4.56-2.25-2.86-.14-8.41,4.02-12.98,3.89-1.45-.04-3.98-1.92-4.22-1.95-1.13-.15-5.42,2.18-5.85,2.11-.23-.04-3.69-2.42-3.91-2.62-1.04-.96-3.26-4.69-.02-3.83-1.43-2.01.36-3.56,2.37-3.56-2.56-1.32-.98-4.55-1.19-4.73-1.19-1.03-1.95,1.17-2.49,1.37-2.26.85-4.28-.6-5.07,2.66-.77,3.2,1.6,3.75,2.11,5.87.13.56.79,4.65.65,4.85-1.22,1.68-3.8.46-4.84.74-.83.22-1.26,1.56-2.53,1.73-2.4.32-4.24-2.04-2.63,3.53-3.96.2-3.14,2.54-3.57,2.96-.42.41-2.35-.81-2.85-.52-.17.1-.32,1.18-1.03,1.65-1.56,1.01-5.12,1.5-6.43,2.48-1.28.96-.64,2.4-1.53,3.21-.23.2-4.87,3.06-5.16,3.15-2.86.87-3.65-1.27-6.09-1.65l.59,4.74c-3.86-.19-6.11-1.55-10.08,0,.08,4.16,5.31,2.7,7.5,4.94.93.96.98,2.24,1.58,3.16.31.46,1.37.56,1.86,1.39,1.94,3.28.34,8.32-.33,11.78-3.61-.02-7.29.25-10.9.05-2.8-.15-7.57-1.45-10.09-1.24-1.99.17-3.31,2.54-5.62,2.44,1.25,3.51,1.66,7.82,1.2,11.56-.23,1.88-3.08,6.3-1.63,7.28.44.3,1.48-.2,1.66.44.6,2.13-1.7,6,2.59,5.59,2.5-.24,2.3-2.61,5.07.9.56.7.76,2.43,1.51,2.66,1.34.4,1.99-1.19,3.08-1.62,1.1-.43,4.09-1.17,5.25-1.28,1.56-.14,4.69.63,4.89.49.23-.16.85-2.21,1.6-2.88,2.29-2.06,1.69-1.1,3.8-3.92.45-.6,1.59-.73,1.72-.93.62-1.03-.89-2.38-.98-3.27-.09-.85,3.67-6.11,4.47-6.73,2.03-1.57,4.73-.99,6.66-3.24,2.21-2.58-.8-4.87,2.64-6.86,2.63-1.52,5.99,1.64,8.88,1.23,1.76-.24,6.68-5.15,8.91-5.41,5.31.84,4.25,3.33,6.01,6.53.22.41,6.59,5.79,6.99,6.01,1.56.87,2.94.24,3.76.7.36.2,5.8,4.7,6.08,5,.42.47,2.19,3.67,2.27,4.19.2,1.47-1.75,2.38-.81,3.7,1.31-.81,1.5-2.32,2.27-3.38.29-.4,1.46-.58,1.59-1.07.25-.95-4.05-2.43-1.49-5.04,1.67-1.7,7.17,4.15,5.57.38-.91-2.13-5.28-2.93-7.04-4.23-.78-.58-1.08-1.81-1.31-1.93-.78-.44-2.2.19-3.77-.68-3.02-1.69-2.82-4.98-4.12-6.54-.85-1.02-3.46-1.45-4.16-2.99-.76-1.68,1.25-3.27-.87-4.13.41-1.67,5.51-2.56,5.79-.91.15.87-1.66,3.34,1.27,1.62.08-.05.25-1.65,1.23-.71.24.23,1.86,5.17,2.78,5.96,1.23,1.05,4.95,2.03,6.43,2.9,1.32.78,7.15,4.5,7.69,5.37.89,1.4-1.12,4.1,0,6.5.49,1.06,3.21,3.5,4.09,4.79.53.78.65,2.51,1.05,2.81.57.41,2.25-.12,2.84,1l-1.78,1.19c-.24.96,1.19,1.37,1.46,2.05.23.58-.43,1.62-.28,1.79.18.2,3.82.33,4.46,1.18l-.89-3.54c.32-.27,1.58.77,1.77.59.15-.13-.11-.91,0-1.19.4-1,1.09-.43,1.78-.59.35-.08,1.1.1,1.18,0,.14-.17-.52-.91-.48-1.47.04-.64.62-1.84.48-2.05-.15-.21-3.51-.97-4.14-2.7,2.64-.58-.31-1.39-.88-2.67-.43-.97-.35-1.94-.3-2.95,4.36,3.28,3.85-.23,4.52-.62.91-.52,5.03-.79,6.14-.57.26.05.94,1.14,2.37,1.19,0,.59,0,1.19,0,1.78,0,.99,0,1.98,0,2.97l1.18-.6c-.23,2.22,1.72,3.2.59,5.34l-1.17.28c2.9.8,2.29,3.54,2.88,4.19,1.37,1.54,4.31,1.72,5.42,2.35.45.25.47,1.35,1.33,1.67.4.15,3.85-.07,4-.21.2-.2-.11-1.8,0-2.37,3.24-1.44,6.12,3.39,7.42,3.6,2.9.46,4.5-2.46,6.05-2.9,1.64-.47,2.95.69,3.95.54.23-.04.63-2.56,1.84-.64.84,1.33-.59,1.97-.61,2.66-.16,6.38.14,7.23-2.07,13.34-.06.15-.67.55-.91,1.14-.75,1.85-.51,3.93-2.06,5.97-2.8-.09-5.39,1.34-8.17.19-.69-.29-.63-1.29-1.13-1.38-.24-.05-3.75.12-3.95.19-1.53.55-1.88,3.65-6.02,2.65-.31-.07-.2-.99-.64-1.03-2-.18-4.44-.27-6.47-.73-.38-.08-.24-1.06-.62-1.08-1.02-.06-3.45,1.23-5,.61,1.38-3.17-.2-1.09-.59-1.18-.13-.03-1.48-.86-2.37-1.19-3.55-1.29-2.63-1.63-4.57-2.99-2.75-1.94-8.99.47-9.92,2.96-.91,2.42,3.03,6.19-2.1,7.14-.19.03-.4-.01-.59,0-.39.02-.79-.01-1.19,0,0-.2-2.86-2.18-3.22-2.41-.8-.5-1.45.09-1.52.04-.06-.05.23-.99-.71-1.38-1.6-.67-3.58.04-4.97-.94-1.19-.84-1.4-3.41-2.45-4.23-.56-.44-5.2-2.15-5.94-2.21-1.05-.08-1.95.51-2.83.47-3.76-.16-4.95-3.02-8.05-4.39-1.71-2.25.87-2.59,1.84-3.76,2.84-3.45-.82-3.95-1.11-5.87-.15-.96,1.44-1.41,1.1-2.56-1.77,1.3-1.02-.8-2.35-1.5-2.38-1.24-4.03,1.36-6.28,1.46-3.89.17-3.69-.7-8.43.5-1.73.44-4.01-1.48-3.68.72-3.6-.98-4.72.16-8,.48-.84.08-1.87-.66-2.86-.5-.31.05-4.3,2.8-5.17,3.25-1.8.9-4.15.34-5.3,3.29-1.62-.23-3.93-.78-5.03-.89-3.37-.34-6.15,2.02-8.3-2.65-2.96,1.97-2.64,6.11-5.29,8.32-2.13,1.78-5.7,1.96-7.27,4.58-.38.63-2.94,6.07-2.97,6.42-.19,2.07,1.81,4.41-.17,7.33-2.4.79-4.16,4-5.97,4.99-1.3.71-3.4.63-4.67,1.85-1.3,1.25-.91,2.88-1.77,4.15-1.55,2.29-2.67.31-4.51,5.57-1.65,4.71-3.69,7.7-5.95,12.42-.87,1.81-2.56,1.82-1.76,4.8.44,1.64,2.39,3.1,2.62,3.98.32,1.22-.58,2.53-.49,3.95.09,1.48,1.21,2.85,1.22,4.8,0,1.11-1.7,9.84-2.08,11-.4,1.21-2.11,2.11-2.02,3.12.09,1,1.82,2.99,2.02,4.52.32,2.38-1.62,5.02,1.47,6.8.78.45,2.04.19,2.27.41.23.22-.02,1.58.38,2.27,1.86,3.19,6.51,5.9,7.28,8.74.62,2.31.11,1.91,1.23,4.22,2.17,4.43,1.91,2.17,4.38,4.23,2.46,2.06,5.08,5.34,7.53,7.44,1,.86,3.36,2.88,4.42,3.3,3.68,1.46,4.84-1.37,7.44-2.42.59-.24,1.72-.51,2.37-.59.71-.09,1.61,0,2.37,0,2.71.01,8.05,1.73,8.48,1.67,2.12-.3,5.35-2.88,6.93-4.04,2.79.88,2.96-1.17,4.01-1.77.76-.42,2.19-.42,3.1-.6h8.3c.73.3,1.27.54,1.78,1.19.75.96,1.73,3.44,2.37,4.74.14.29-.05,1.11.3,1.75,1.84,3.35,8.07-2.11,10.79.21.37.31.49,1.16,1.02,1.61.67.58,1.78.5,2.39,1.19,2.13,2.44.18,7.19-.22,9.84-.16,1.07.1,2.3-.06,3.18-.19,1-.91,2.27-1.19,3.56-.11.52.12,1.27,0,1.78-.04.19.05.41,0,.59-.05.2-1.1.51-1.19,1.03-.49,2.74,5.63,10.46,7.71,12.6.57.58-.88.41,1.19,1.19,2.68,6.22,5.01,13.58,6.52,20.15-.45.58-1.19.1-1.08,1.9.19,3.23,3.15,5.79,2.83,9.58-.3,3.59-3.97,5.68-4.92,8.76-.86,2.79-2,10.49-2.17,13.54-.07,1.24-.13,2.95,0,4.15.02.19-.03.4,0,.59.44,2.71,2.46,4.34,3.56,6.52.28.56,1.08,2.02,1.19,2.37.03.09-.5.3,0,1.78.06.18-.06.41,0,.59.92,2.98,3.75,6.14,4.04,8.75.23,2.06-.87,4.33-.45,6.92.43,2.65,1.76,6.68,2.33,9.81,1.39,7.66,4.42,7.42,6.06,12.01.66,1.85.56,3.93,1.21,5.9.86,2.62,3.31,5.49,2.8,8.41-.18,1.03-1.39,1.7-1.11,2.86.46,1.89,2.6,4.31,4.03,5.55.44.38.59,1.27.72,1.34.81.46,2.85-1.44,3.91-1.61,1.1-.18,2.06.48,2.75.36.92-.16,1.55-1.91,2.55-2.14,2.04-.47,5.52.95,6.97,1.02.41.02,7.24-1.89,7.88-2.15,2.88-1.19,7.33-6.92,9.03-9.63,4.32-1.83,3.64-7.82,7.11-10.67.18-.05.41.05.59,0,.8-.24.81-.71,1.19-1.19.09-.12-.09-.44,0-.59.07-.13.77-.25,1.04-1.01,1.39-3.98.73-6.38.82-9.98.11-4.81,8.2-3.14,9.28-7.8,1.45-6.25-.27-12.06-1.65-18.13,1.55-.61,2.27-3.16,3.14-3.79.73-.52,1.99-.31,2.65-.92.49-.45.8-2.2,1.42-3.02,1.98-2.65,3.5-2.87,5.83-4.54.55-.39,1.14-.72,1.78-1.19.22-.16.38-.42.59-.59.45-.35,1.14-.28,1.79-1.02.71-.8,3.24-4.99,3.42-5.94.38-2-.42-2.97-.48-4.59-.06-1.76.76-1.49,0-3.85-.22-.7-.07-2.35,0-3.56.01-.2,0-.4,0-.59.2-3.9,1.86-6.68-2.37-8.89.02-2.85-1.01-4.26-1.15-6.26-.11-1.46.74-4.91.55-6.46-.2-1.66-1.97-1.51-1.77-5.33.23-4.39,2.67-6.23,4.28-9.96,1.42-3.31,1.18-3.47,3.6-6.14,5.61-6.19,7.28-10.65,14.28-16.3,8.21-6.63,11.55-12.93,16.08-23.01,1.74-3.86,4.1-8.58,4.88-12.88.3-1.64-.17-3.35.73-4.9-3.91,1.48-7.07,2.43-11.26,2.96-3.13.39-2.5,1.13-4.07,1.48-.86.19-2.1-.48-3.28-.29-1.9.3-2.85,2.54-5.3,1.12-1.81-1.05-1.84-3.24-3.03-4.13-.86-.65-3.26-.37-1.73-1.78,1.46-1.35,3.14-1.55.83-4.41-2.81-3.46-5.85-6.4-9.43-8.95-.83-.59-1.57-2.24-3.03-2.58-.17-1.62-2.17-9.86-2.92-10.86-.6-.81-3.11-.76-3.79-2.32-.48-1.09-.96-4.19-1.04-5.49-.1-1.53.77-2.91.4-4.44-.39-1.59-2.59-5.24-3.53-6.9-3.03-5.4-6.06-11.77-8.08-17.98-.47-1.45-.94-1.45-1.14-1.71l-.04-.06c-.12-.22.08-.84,0-1.19.38.04.82-.06,1.19,0,.9.15.32.2,1.19,0,.44-.1,2.28-.51,2.37-.59,1.21-.26,1.34.64,1.77,1.45,1.23,2.33,2.5,5.34,4.15,7.43-.16,1.87,1.63,3.07,2.37,4.74.68,1.53.13,1.38,2.21,2.98.58.44,1.77.39,2.24,1.16.16.26,1.85,5.27,1.94,5.76.52,2.73-.54,4.66,1.32,7.27,1.21,1.7,3.09,1.96,4.31,3.69,1.46,2.09,1.33,4.88,2.55,6.93,1.07,1.81,3.45,2.79,4.12,5.36.78,3.01-.12,7.59.46,10.29.17.8,1.11,1.36,1.33,2.14.9,3.28-.54,6.02,4.57,4.62,1.72-.47,3.28-2.96,4.41-3.29,1.42-.41,3.09.18,4.51-.23,1.01-.29,1.45-1.62,2.19-1.95,1.16-.52,2.59-.03,3.55-.6,1.35-.78,2.25-2.31,5.33-3.85.81-.41,1.56-.74,2.37-1.19,3.19-1.75,2.93-.47,4.15-4.74.75.29,1.45-.52,1.78-.59.36-.08.87.1,1.19,0,.79-.24,1.5-.1,1.78-1.19.18-.04.4.02.59,0,2.56-.32,4.89.3,4.74-2.96.47-.44.54-1.37,1.59-1.66.89-.25,2.94.05,3.13-.14.12-.12-.04-1.61.32-2.33.92-1.83,3.6-.97,3.85-1.2.31-.28-.44-4.64.28-5.98.15-.27,1.47-.18,2.39-1.08,1.85-1.81,2.61-4.92,4.34-6.87-1.56-.79-2.59-4.13-3.48-4.71-.75-.5-2.18-.42-3.18-.97-4.2-2.32-6.03-4.23-5.69-9.42-2.4,2.11-2.11,3.98-5.33,5.33-1.6.67-3.56.57-4.7.91-1.05.31-1.89,1.93-3.8,1.48-.52-.12-.1-1.77-1.56-.61-.22-1.19.28-7.44,0-7.7-.11-.1-1.94.03-2.94-.34-1.55-.57-2.18-2.18-3.57-3.22-.11-.08-.76.23-1.08-.12-.52-.57.22-2.62-3.08-2.25,1.36-2.02-.3-1.69-.38-1.94-.31-.92-.18-1.87-.54-2.78-.46-1.14-4.82-4.31-1.44-3.87,2.42.32.2-.89,1.9-1.68,7.3-3.39,7.06,5.45,9.96,8.19.76.71,2.14.67,2.91,1.24,3.73,2.81,6.33,6.3,11.73,3.93.98-.43,1.88-2,2.75-1.86,2.35.39,2.25,5.3,3.13,5.93,1.5,1.08,9.67,1.64,12.07,1.72,1.09,1.55,2.3.6,2.96.59,3.25-.04,7.36.17,10.34.02,1.54-.08,3.57-.72,5.07-1.21,1.37,1.26,3.17,3.27,4.15,4.74.47.7-.8,1.87,1.78,2.37.19.04.4-.04.59,0,.88.82,2.11,3.45,2.96,3.87,1.98.98,3.91-1.39,5.32,1.17l-4.72,2.36c.33,1,4.3,5.34,5.15,5.56.68.18,4.54-1.51,4.78-1.84.58-.81-.03-3.64,1.31-4.01,2.91,4.52,1.44,8.63,1.8,13.32.19,2.55,1.16,5.77,1.7,8.37,1.74,8.52,5.24,16.75,8.21,24.97,1.26,3.47.75,10.52,4.3,12.32,1.73.88,2.51-2.2,3.3-3.24.38-.51,1.29-.72,1.68-1.28.74-1.07.92-3.26,1.84-4.1.67-.61,1.93-.39,2.1-.95.4-1.37-.29-4.54,0-6.41.27-1.78,1.71-3.33,1.77-5.39.07-2.67-2.28-9.51,1.16-10.94,3.07-1.28,1-.86,2.36-2.07,1.2-1.06,2.95.16,2.97-2.08,0-.39,0-.79,0-1.19,2.73-.49,2.94-2.18,4.32-3.37.67-.58,1.76-.65,2.51-1.34,1.3-1.2,1.84-3.79,3.28-5.02,1.96-1.67,5.52-1.47,6.37-4.95.31-1.29-.81-2,.36-3.1,2.28-2.14,4.61-1.18,7.46-1.18,1.71,0,4.72.68,4.15-1.19.19-.04.4.04.59,0,1.4-.26,2-.51,3.24-1.19,1.36,1.93,1.43,3.72,2.68,5.93,1.58,2.81,3.76,3.47,4.81,5.03.57.85.07,1.71.3,2.1.85,1.46,2,1.82,2.6,4.13.61,2.4.22,5.26,0,7.7-.15,1.61-1.61,1.31,1.19,2.37,2.76,1.04,1.45-.22,2.99-1.46,1.52-1.22,1.54.05,2.34-2.1.16-.08.52.11.8,0,.68-.29-.19-1.77,2.16-.58,0,.2-.02.4,0,.59.28,3.04.66,1.25,1.19,1.78.25.25.88,5.77,1.19,7.11.04.19-.04.41,0,.59.59,2.52,2.29,5.96,2.38,8,.07,1.51-.44.54-1.19.29-.09,2.04,1.4,4.16,1.18,6.18-.25,2.22-.66,4.59-.95,6.92-.16,1.29-1.48,3.4-1.3,4.3.15.73,3.14,3.83,3.83,5.02,3.99,6.96,2.73,12.88,5.69,20.1,2.19,1.49,3.96,4.54,6.36,5.78.72.37,1.04.44,1.5-.28,1.63-2.57-1.99-6.67-1.89-9.92.11-3.42,2.29-3.64-.54-7.84-1.86-2.76-6.09-5.13-7.38-6.84-1.45-1.92-1.25-6.75-2.48-8.48-.43-.61-2.06-.25-2.28-1.11-.78-3.1,1.79-8.46,2.7-11.46.78-2.57.22-7.67,3.7-6.34,1.84.7.6,3.23.74,3.37.08.08,1.55-.09,2.35.31,2.41,1.21,4.47,3.98,4.94,6.64.94,1.3,5.69,4.13,6.08,4.91.6,1.17-1.22,3.87-.91,5.33,1.19-1.51,3.38-2.12,4.72-3.27,1.46-1.25,1.48-3.42,1.91-3.73.45-.32,1.84-.1,2.68-.56,4.61-2.49,5.73-4.08,6.08-9.34.37-5.6-.25-10.7-3.81-15.13-3.27-4.07-3.05-2.49-5.37-7.66-.98-2.18-4.68-3.43-1.72-7.67.23-.32,2.59-3.31,2.75-3.46.67-.63,2.11-.4,2.68-.87.76-.63.21-2.45,2.23-2.83,3.85-.72,7.48.96,6.21,5.35,3.69.55-.17-2.03,2.38-3.84,2.94-2.09,10.6-1.78,10.07-6.23,2.57,2.78,2.61.83,5.22.14,1.08-.29,3.81-.4,4.37-.73,1.01-.58,1.07-2.09,1.84-2.79,1.43-1.3,4.46-3.32,5.77-4.75,1.45-1.57,1.18-3.9,3.53-2.54-.39-1.58-.57-3.27.04-4.84.2-.51,2.24-2.48,2.52-3,.41-.76.15-2.02.56-2.67.66-1.05,3.08-.47,3.3-3.39.24-3.2.5-1.67.7-2.5,1.1-4.54-3.78-2.42-4.75-4.92l4.16-2.1c-1.39-1.5-.37-2.86-.9-4.38-.17-.48-4.45-8.08-4.91-8.77-1.26-1.92-3.44-1.92-4.22-3.91.11-1.35,8.16-9.76,10.6-7.51v-2.37c-2.83.75-4.58-2.17-7.06-.25-1,.78-.77,2.37-2.56,1.92-3.36-.84-1.87-3.62-2.24-4.03-.44-.48-7.13-.3-4.72-5.35,1.25.42,3.53.75,4.59-.15.47-.4.49-1.61,1.04-2.2,1.05-1.12,2.64-.89,3.11-1.36.56-.56.1-2.17,2.1-2.97,1.49-.59,4.86.82,4.45,2.74-.06.27-3.92,4.41-1.37,4.52,1.6.07,3.36-3.89,8.6-2.65,5.22,1.23,4,3.19,2.62,7.41.54,1.23,6.75.53,6.81,4.47,0,.41-2.47.75-1.69,2,.03.05.81-.1,1.1.49,1.05,2.15-.48,5.99.04,8.44,2.16-.91,4.91-2.62,7.11-1.78l-.6-1.17c3.89.18,2.86-5.79,2.1-8.33-.83-2.77-8.41-9.89-6.77-11.78.1-.11,1.78-.24,2.53-.72.46-.3,3.69-2.79,3.82-3,.57-.99-.38-2.45-.17-3.52.49-2.51,3.23-3.2,4.93-4.44.74-.54,1.02-1.78,1.65-1.98,1.55-.49,2.72,2.31,4.67,2.3.91,0,5.51-2.44,6.26-3.18.8-.8,2.17-3.2,3.16-4.52,3.95-5.26,5.59-7.85,8.36-13.6.45-.94,1.87-.73,2.4-2.31,1.5-4.48-.52-6.61-.3-9.8.11-1.66,2.17-3.68,2.23-4.87.04-.81-1-1.76-1.28-2.71-.26-.86.17-1.91-.33-2.54-.21-.26-3.41-2.65-3.76-2.79-5.17-2.13-4.44,3.02-7.56,2.26-.33-.08-3.32-1.49-3.43-1.65-.38-.58.09-2.06-.67-2.58-.7-.48-7.74-.38-3.41-3.32,4.39-2.99,5.07-4.69,8.39-7.6,2.26-1.98,5.47-3.91,7.73-5.89,1.9-1.66.95-2.59,4.72-2.98,3.52-.37,12.08-.09,15.79.31.69.07,2.53,1.21,2.86.88.22-.22-.41-2.24,1.49-2.41,1.54-.14,2.59,1.22,3.78,1.49.8.18,1.75-.37,3.03-.03,1.32.36,2.78,2.06,3.9,2.15,1.2.09,1.82-.97,2.34-1,.7-.04,3.86,1.38,5.61.37-1.08-1.61-4.08.13-3.45-2.53.67-2.83,3.34-2.57,4.98-4.54.64-.78.76-2.13,1.22-2.45.47-.33,5.62-1.21,6.43-1.18,2.04.09,2.66,1.95,4.44.05-.31.99,1.2,1.2,1.19,1.53,0,1.1-1.7,3.51,1.45,3.21,2.56-.25,3.82-4.53,6.85-2.97-2.36-4.82,3.1-5.75,5.34-2.37-3.41-.91-.94,4.33-2.64,5.94-.93.88-2.44.31-3.63,1.14-.33.23-5.39,4.84-5.89,5.34-.97.96-1.65,3.05-2.48,3.6-1.11.75-5.93,1.49-6.1,1.76-.05.08.7,1.17.52,1.95-.23.95-2.16,1.89-2.62,3.35-1.77,5.68,5.16,15.83,7.14,21.35,4.46-.7,3.56-7.21,3.92-7.63.35-.41,3.94-.51,4.09-.65.4-.4-1.97-4.36,1.01-5.21,1.06-.3,3.98.31,4.32-1.03.32-1.25-2.23-3.05-.91-5.05.84-1.28,3.54.84,3.88-.87.24-1.25-2.58-1.69-2.89-4.27-.16-1.32,1.63-.13,1.11-1.94-.84.07-4.02-.09-4.19-.97-.57-2.95,2.18-3.21,2.76-4.92.69-2.06-.8-3.29,2.41-3.37.95-.03,1.87.5,2.83.37,1.29-.18,2.19-1.53,3.02-1.78.37-.11.2.83.71,1.19,1.11.79,4.21-1.39,6.38-1.46,2.06-.07,3.84.42,5.43,1.7.28.22.18.91.23.93,1.55.96.86-1.35,1.52-1.82.61-.43,2.35-.59,3.41-1.22,4.06-2.4,3.24-2.11,7.53-3.72,2.07-.78,4.81-2.45,6.84-2.67,2.21-.24,5.75,1.29,6.73.87,2.9-1.23-1.48-3.35-2.63-4.49-.61-.6-.63-1.92-1.05-2.21-.71-.5-3.76-.55-4.6-2.21,1.86-.22,9.51-.43,8.86-3.51-.2-.94-2.34-.45-1.76-2.11,5.01-1.79,3.49,1.73,5.32,2.68,1.83.94,3.69-.57,5.82.06,1.69.51,2.09,1.74,3.13,2.25,2.28,1.13,5.56,2.19,7.97,3.35,3.14-.29,2.82-3.06,1.76-5.37,2.34,1.51,4.3-.15,6.22-1.21Z" fill="#bcbcbc"/>
  <path d="M1016.81,468.93c-1.06-2.69-1.5-5.64-2.63-8.26-.1-.22-.98-.21-.96-.44.08-.86,1.71-2.67,1.11-4.1-.19-1.2-2.53-.51-2.86-1-.27-.39,0-4.93-.07-6.15-.05-.91-.99-1.86-.94-2.39.05-.48,1.01-1.04.91-1.7-.1-.69-6.04-6.09-6.3-7.27-.57-2.55,1.09-6.78.96-8.85-.06-.97-1.14-1.7-1.18-3.5-.06-2.45,2.3-6.51-.52-8.26-.49-.31-2.72.37-3-.73-.51-2.03.67-4.49.67-6.43,0-2.76-.95-5.75-.65-8.59-1.39-.3-.95.18-1.33.76-4.85,7.56-3.87,16.62-7.45,23.94-.4.82-3.55,5.43-3.95,5.47-1.88.2-2.73-3.86-1.49-5.28-4.6,2.4-7.43-2.54-8.06-6.51-.48-3.04,1.29-4.41,1.52-6.9.13-1.34-.52-2.52-.42-3.42.15-1.44,3.01-3.68,1.33-6.29l-4.66,2.36c-3.07-.18-5.28-2.23-7.52-3.72-3.39-2.25.27,1.69-.82,3.19-1.13,1.56-4.95-1.47-7.81,2.53-.45.63-3.99,6.5-4.1,6.89-.36,1.2-.31,2.36-.28,3.58-1.66-1.55-2.59-.65-3.87-.69-.36,0-.21-.82-.38-.91-.32-.18-1.01.46-1.06.41-.18-.17-.81-4.45-1.22-4.72-1.39-.91-1.96,1.21-2.1,1.22-.65.06-1.91-.77-2.02-.65-.09.1.12,1.41-.56,2.09-.27.26-2.54-.09-2.92.37-.25.31.04,1.54-.38,2.26-.43.73-1.96.93-2.38,1.79-.97,2,.86,5.63-3.24,2.98-1.01.8.95,9.78-3.27,2.38-3.18,1.81-2.04,4.46-2.76,6.72-.25.79-1.35.8-1.7,1.4-1.77,3.03-2.79,5.78-6.95,6.58-1.21.23-2.4-.4-3.13-.15-.89.3-3.47,2.68-4.7,2.96-1.23.29-2.37-.63-3.74-.25-.93.25-2.94,2.86-4.02,3.72-.99.79-2.79,1.09-3.5,1.83-.68.7-.75,2.35-1.5,2.65-.58.23,0-1.4-.59-1.18-.43.16-3.15,7.58-3.29,8.56-.33,2.35,1.18,9.43.61,10.4-.08.14-2.08-.3-2.96.6,2.22,2.4.57,5.13.77,7.32.15,1.59,1.68,4.36,1.57,6.55-.07,1.45-1.15,2.85-1.2,4.78-.11,4.7,1.74,10.03-1.7,14.76-.24.33-2.76-.56-1.69,2.89.06.19,1.88,3.32,2.05,3.43,3.37,2.43,5.85-.84,7.96-2.08.69-.4,1.72-.42,2.64-.91.61-.33,1.01-1.5,1.87-1.71,1.01-.25,5.5.92,7.08,1,6.04.28,3.73-2.13,6.4-4.08,3.65-2.65,6.8-2.38,10.64-2.98,2.21-.35,4.32-1.71,6.72-2.17.7-.13,5.43-.67,5.71-.62,1.06.2,1.33,1.92,2.18,2.5,2.42,1.65,3.33-.05,5.55,3.67.16.28.81.23.85.31.2.33-.84,1.2-.9,1.99-.1,1.28,1.43,1.42,1.53,1.87.05.21.5,3.97.5,4.18,0,.93-2.05,2.35-.16,3.13.22.09.59-1.71,1.14-2.41,1.37-1.72,3.86-2.72,5.07-4.11,1.92-.17,1.95-.14,1.78,1.78-.37.62-1.89,2.13-1.77,2.36.07.13,2.26.91,2.37,1.62.26,1.7-1.28,3.52-1.07,4.53.16.77,1.78,1.65,2.13,3.17.91,3.93-3.1,7.18.68,11.09.57.59,1.18-.17,2.14.28,1.18.54,3.2,3.13,4.04,2.99.22-.04,3.68-2.31,3.81-2.49.38-.51-.37-2.09,1-1.61,1.86.66.71,2.48,1.18,3.51,1.99,4.45,6.15-2.37,7.85-2.83,1.74-.47,3.92,1.19,5.93-.85.85-.86,3.26-7.98,4.7-10.34,3.09-5.07,7.23-9.52,10.88-14.07,2.2-2.74,8.72-15.29,9.79-18.65.74-2.31.19-5.17.54-7.16.36-2.04,2.76-8.15,2.71-9.11-.02-.32-.94-.27-1.15-.8Z" fill="#bcbcbc"/>
  <path d="M455.64,56.4c-.23-1.19-1.26-.97-2.08-1.18-2.82-.72-5.19-.89-8,0-.85-.39-1.39-.79-1.19-1.77.8.25,1.31-.44,1.78-.6.42-.14,1.24.1,1.78,0-.8-.88-.45-2.87-.58-2.95-.52-.31-2.49.65-2.37-.59,1.61-.11,4.84.2,6.11,1.13.83.61.59,1.74,1.13,2.27.49.49,7.3,1.01,7.57.74.1-.1.09-2.47,0-2.96-.42-2.49-2.06-1.46-2.36-1.8-.75-.85,1.91-3.03,2.32-4.47.39-1.35-.92-.73-1.74-.84-2.28-.3-2.86-1.16-5.33-1.19l-.59-2.37c1.38,0,3.57,2.31,5.7,2.37,1.51.04,4.35-2.19,6.74-1.18-.2-2.32-3.28-2.85-4.73-1.18.03-.67-.39-1.19-.6-1.78h.59l8.29-.6c-.26-.42-1.82-2.12-1.95-2.2-.64-.41-1.32-.05-1.6-.16-.39-.16-.83-.87-1.19-1.19v-.59c.97.29,5.03.68,5.33-.31.22-.71-.56-.8-.59-.87-.22-.57-.86-1.97-1.19-2.37-1.32-1.61-2.87-.63-2.37-2.96,1.32.17,3.71-.42,4.76.27,1.14.75.3,3.77,2.34,3.28-1.53-3.38.34-2.28,1.18-4.73-1.5.65-3.62-.09-4.74,0-.09-.27-.33-.52-.59-.59.16-1.76,2.25-.2,2.37-.89v-.88c-.79.03-1.59-.06-2.37,0-1.66.13-4.14.95-3.56-2.37,0-.04.3-.18.54-.53.03-.02.05-.05.05-.07,1.56-2.51,3.37-.13,5.92-.6-1.44-7.2.79-3.41,3.76-4.23.8-.22.92-1.08.99-1.1,1.37-.45,3.49-.38,4.74-1.49l-4.74-1.47c.19-.02.4.01.59,0,.98-.06,1.98.04,2.96,0,1.83-.07,3.68.19,5.5-.13l9.9-3.42c-5.49-1.85-10.81.31-15.99.59-1.65.09-3.83-.04-5.33,0-.2,0-.4,0-.59,0-.43.02-.77-.09-1.78,0l-3.55-1.78c-.13-2.29,5.24-3.12.59-3.55-4.68-.43-8.14-.51-12.44-1.48C446.05-.42,432.82,0,423.34.11c-1,.01-2.63-.38-3.25.6-3.35.22-6.91,1.37-10.34,1.14l-.33,1.82c-1.23-.96-2.73-1.64-4.36-1.21-.65.17-.3,1.14-.38,1.21-.08.07-.38-.03-.59,0-4.92-2.27-9.33-.16-14.22.6l.59,1.77h-5.33s5.92,1.79,5.92,1.79c.17,1.2.09.97-.75,1.34-2.08.91-6.58-1.86-9.17-2.39-2.56-.53-10.48-1.93-6.67,2.22-2.04,1.42-9.14-4.61-8.3,0-1.3.34-1.65-1.31-2.78-1.65-1.4-.42-11.72.4-12.83,1.04-.78.44-.22,1.59-.39,1.81-.12.17-2.89-1.09-3.93-1.15-4.52-.28-2.94,2.8-3.84,3.45-.51.36-4.73-.06-6.09.12-2.14.29-4.14,1.6-6.12,2.18-1.04.3-4.31.13-4.89.74-.83.87.05,1.07.88,1.18,2.29.29,7.5-1.25,5.35,2.37-1.55,2.61-8.45,1.41-11.13,1.91-1.36.26-2.35,1.29-3.26,1.48-1.74.36-9.38,1.12-10.21,1.95-1,1,.23.99.87,1.19,2.55.77,5.73,1.45,8.38,1.7,1.19.11,2.64-1.24,3.19.65-3.02.45-5.74,1.61-8.89,1.2.27,1.2,1.43,1.09,2.37,1.18.47,2.04,1.42,2.04,2.96,2.37,4.51.97,5.1-.17,8.67-.39,4.69-.29,17.08-.77,20.79,1.45,1.07.64,1.23,1.57,2.08,2.12,1.19.77,3.6,1.3,4.26,2.14.23.3-.04,1.16.23,1.61,1.05,1.79,3.07,4.1,2.5,6.33-.27,1.07-1.69-1.03-.02,3.34-2.08-.38-1.36,1.94-.21,2.27,3,.87,4.49-1.5,7.31-1.08l-.59,1.77c1.36-.54,7.24,1.04,5.33,2.96-.32.32-6.84-1.34-8.88-1.18-.39.03-.8-.03-1.19,0l.6,1.18c-3.36-.28-1.94.09-2.37,1.95-.09.39-2.23.65-1.19,1.61.19.17,1.39-.16,1.78,0,2.74,1.16,5.22,2.31,7.7-.59-1.04.26-1.91-1.03-2.37-1.19l1.78-1.19c2.51.77,5.04,1.28,4.36,4.76-.62,3.18-4.62.84-6.97,2.4-1.29.85-.99,2.58-2.55,3.09-.32.29-.09.76-.17,1.01-.17.5-.75,2.23-.59,2.37,5.17.13,1.38,1.02.55,2.03-1.59,1.94,1.89,3.33,2.44,4.31.73,1.28.35,2.87.89,4.29.51,1.34,5.84,9.35,7.03,10.73.37.43,3.48,3.48,3.73,3.54,1.52.38,3.19-.69,4.92-.38,3.12.55,4.69,4.24,8.51,3.89,2.53-.23,1.67-1.13,2.51-2.26.71-.95,3.33-4.85,3.64-5.84.31-.99-.11-2.18.43-3.13.49-.85,4.11-2.27,5.33-4.19.19-.3,1.22-3.52,1.29-3.91.12-.68-.55-1.67-.38-1.92.1-.16,2.92-1.02,3.51-1.28l-.57-1.14c2.83.43,4.99.62,6.23-2.38.16,2.19.38,2.82,2.84,2.14,3.28-.9,9.45-4.41,12-6.84,1.46-1.39,1.13-3.11,4.42-2.41l-.59-2.36c1.18-.16,1.52.94,2.68,1.16,2.28.44,13.96-1.92,16.92-2.61,3.3-.77,7.1-4.85,11.21-4.49ZM472.82,14.34c.62-.66,1.2-.74,1.78,0-.54-.09-1.32.13-1.78,0ZM466.9,9.01c-.07.01-.24.08-.47.18-.6-.03-1.23-.84-.71-1.36.66-.66,1.81.55,1.18,1.18Z" fill="#bcbcbc"/>
  <path d="M406.18,365.69c-.82-1.09-4.4-.19-6.41-1.17-1.99-.97-5.46-7-8.68-8.03-2.02-.64-4.18,0-6.22-.3-3.59-.53-6.74-4.26-10.11-.57-1.54-.95-.08-2.06-.52-3.56-.57-1.93-8.9-5.56-10.99-5.65-1.16-.05-1.27.77-1.82,1.52l-1.78-.59c.31-.78.82-1.38.59-2.37-1.25.26-9.07-.56-9.48-1.49l3.84-3.85c1.48-2.95-1.07-3.12-2.21-4.9-1.37-2.14-1.65-7.91-2.4-8.57-.37-.33-1.44-.27-1.92-.72-1.57-1.47-2.7-3.53-4.87-4.64-1.2-.61-7.55-2.29-8.38-1.82-.25.14-.62,2.44-1.81,1.63-.06-.04.12-.94-.46-1.12-1.15-.36-2.42.22-3.72-.92-1.83-1.61.39-1.71-2.97-2.65-1.42-.85-.9-3.55-1.28-4.07-.21-.29-1,.01-1.09-.07-.2-.19-.37-.41-.59-.59l-.13-.13c-.24-.28-.4-.69-1.05-1.05-.54-.29-1.15-.61-1.78-.59-.17-.58-.68-.54-1.19-.59-.38-.04-.82.06-1.19,0-.25-.76-.32-1.62-.59-2.37-.61-1.68-1.97-3.42-4.15-2.96-.54-.57-1.3-.91-1.8-1.47-.57-.64-.35-1.96-.94-2.12-4.34-1.24-6.14,2.7-7.64,2.79-.91.05-3.23-1.97-4.79-2.15-1.8-.21-3.72.98-5.17.51-1.52-.49-1.25-3.21-2.16-3.8-.73-.47-2.07-.13-2.98-.58-.86-.42-1.56-2.61-2.07-2.65-1.87-.18.69,2.51.3,2.95-2.28-.52-4.44,2.96-5.93,1.78l-1.19-1.19c-.11-.33.12-.94,0-1.19.81-.35,2.77-1.32,2.93-2.14.12-.62-1.25-2-1.45-2-.5,0-2.67,3.03-3.26,3.54-.59.52-1.05,1.09-1.81,1.44-1.58.73-6.21,1.71-7.43,2.66-1.02.8-.58,1.72-.84,2.42-1.27,3.45-3.08,5.12-4.15,8.29-2.64-2.42-4.31-5.04-8.24-5.6-3.46-.5-5.17,5.43-9.74,1.96-.32-.25-3.35-3.23-3.58-3.52-.99-1.26-2.48-4.07-2.67-5.62-.35-2.71,2.35-15.61,1.73-16.22-.19-.19-1.98-.12-2.61-.57-.54-.38-.18-1.37-.47-1.67-1.64-1.75-15.38,1.47-15.88-1.06-.12-.6,1.47-2.15,1.75-3.57.39-2.03.48-5.37.03-7.37,3.46,1.38,1.95-2.09,2.51-4.31.63-2.52,2.32-4.52,2.82-6.95-2.23.1-4.52-.2-6.75.06-7.4.87-4.56,4.13-7.04,8.98-.28.54-2.79,3.69-3.36,3.35-.18-3.02-6.48,1.26-8.05,1.22-1.09-.03-1.44-1.2-2.08-1.45-1.08-.42-2.3-.19-3.28-.87-1.27-.88-1.58-3.89-2.38-5.32-.69-1.24-2.05-2.35-2.72-3.79-2.14-4.61-1.92-15.44.71-19.37,1.36-2.03.11-2.04,0-2.96-.13-1.13.09-2.4,0-3.56.58-1.63,1.19-2.71,1.78-4.15.13-.32.57-.57.59-1.19h.79c.75-2.11,2.39-.49,3.95-1.78.27-.22.96-1.37,1.19-1.78.15-.28.83-.26,0-1.19,1.76-.25,4.63-1.13,5.69-1.17,1.43-.05,5.13,2.79,4.98-.01,2.59.63,1.93,3.25,6.25,2.87.39-.03.12-1.1.57-1.11,1.12-.03,1.41,1.51,2.66,1.2-1.16-.64-1.34-2.79-1.51-3-.49-.62-2.66.35-2.04-2.32,1.77,1.84,2.01.3,3.37.13.97-.12,4.74-.9,4.92-.72.11.11-.08.84,0,1.18l6.51-.59c2.82,5.96,4.5.96,6.14,1.25.97.17,3.68,3.86,3.91,5,.4,2.02-.11,5.26.47,7.18.29.96,3.95,6.72,4.61,7.3,2.6,2.28,4.14-3.66,4.14-5.62,0-2.15-1.38-4.1-1.88-6.01-.37-1.42-.63-2.76-1.08-4.36-1.89-6.8-.77-8.86,3.26-14.22,1.4-.05,3.26-1.51,4.19-2.65.52-.63.44-1.84.63-2.01.4-.35,2.16.12,3.09-.17.9-.29,1.25-1.9,2.17-2.57,1.31-.96,3.04-.58,4.14-1.78-3.23-1.25,2.99-2.38.59-5.03h1.79c-1.44-2.77-.99-4.67-1.3-7.25-.12-.98-1.02-2.11-1.07-2.56-.02-.19,2.2-.7,1.18-3.23,1.97,1.4-.63,4.83,2.07,6.5,2.37-1.87,2.35-3.82,1.49-6.51,3.88,3.86,4.22-4.07,4.82-4.66.17-.17,3.75-.65,4.48-1.44.44-.48.23-1.77,1.07-2.19l1.18,1.77c-.45-3.7,6.47-.94,6.81-1.18.12-.09.74-2.7.59-2.97-.12-.22-2.86,1.4-2.42-3.27.36-3.78,9.07-6.1,12.45-7.74,2.74-1.33,3.37-2.93,7.68-3.5.61-.08,2.39.15,1.84,1.17-.39.74-7.92,3.22-5.86,6.17,1.9,2.73,5.22-2.49,6.5-3.16,2.2-1.15,5.79-1.25,8.84-2.71,2.28-1.09,1.63-1.13,3-2.04.96-.64,2.8-.29,3.51-1.82-.27-1.31-1.85-.94-1.18-3.25-.73-.91-4.79,4.66-5.15,4.75-1.59.39-4.31-.29-6.1-.01-2.22-1.98-4.06-2.13-4.17-5.64-.02-.76.7-1.99.62-2.05-.25-.2-3.55.05-4.14-1.49,2,.25,8.58-1.6,5.93-4.15-3.44-3.31-13.48,3.42-16.9,4.44-2.64.78.89-2.48,1.49-2.95,2.35-1.83,4.12-1.88,6.17-3.04.68-.38,2-2.62,2.55-2.87,4.23-1.93,20.95.75,21.99-.14.27-.23.04-1.01.1-1.06,1.42-.94,3.81-2.61,5.18-3.4,1.32-.76,3.48-.91,4.3-1.34,2.88,1.75.3,2.28.01,2.79-1.85,3.31-4.29,7.81-6.28,10.8-.6.9-2.33.85-2.03,2.41,1.13.16,2.21-.63,3.28-.62,2.68.03,6.05.88,8.37,1.12.84.09,1.29-1.05,2.26-1.12.23-.01.9,2.86,3.85.02-.04,5.09,3.11,5.42,4.15.59-1.45.89-.86.02-1.68-.53-.37-.25-1.18.03-1.28-.07-.69-.65,1.02-2.32,1.08-2.78.09-.68-.75-1.15-.87-1.77-.22-1.1.96-2.71-1.84-3.08-1.57-.21-4.43,2.76-4.9-1.85-.59-.45-2.66,2.17-2.96.28-.24-1.52,3.4-3.74,3.54-4.26.78-3.08-.83-1.13-1.76-1.64-.86-.47.03-1.3,0-1.5h.59c.42-.52,2.06-.98,2.25-1.3.15-.25.32-5.59.13-5.81-.16-.18-1.38.16-1.78,0-1.62-.65-5.51-2.87-4.14-4.74-1.11.26-6.99-2.05-7.56-2.52-.16-.13-2.08-3.22-2.19-3.45-2.03-4.5-2.71-7.25-5.54-11.64-1.05-1.63-2.67-2.93-3.09-4.91-1.44-.99-4.55,4.82-5.31,5.64-.53.58-1.62.93-2.39,1.46-.22.16-.39,1.09-.59,1.19-.13.06-.38-.03-.59,0-3.5.53-3.09-.62-5.03-1.8-.57-.34-1.23-.11-1.74-.58-2.49-2.31-.91-7.31-1.19-7.71-.91-1.29-4.03-.07-4.98-.67-.15-.1-.65-1.87-1.26-2.59-3.49-4.09-6.63-1.96-10.97-2.06-1.4-.03-7.72-1.48-8.01-1.19-1.24,1.24.53,3.87.5,4.35-.06.94-1.49,1.86-1.6,2.57-.1.69.97,1.43,1.11,2.31.51,3.08-5.12,6.27-4.75,6.76,4.85.62,6.49,5.31,5.21,9.66-.51,1.74-5.83,5.02-7.58,5.75-1.05.43-2.42.57-3.56.6.65,2.04,2.26,8.99,1.5,10.65-.18.39-3.43,3.05-3.88,3.26-2.46,1.14-1.52-.71-2.65-2.05-1.21-1.43-1.73-1.62-3.05-3.51-.33-.48-1.3-.56-1.43-1.07-.46-1.82,2.03-7.65.63-8.76-2.4-1.92-5.76-.04-7.29-.39-.74-.17-1.45-1.43-2.35-1.83-1.52-.68-4.81-.66-6-1.59-.57-.45-.15-1.36-.74-1.86-1.99-1.69-8.97-2.97-11.47-2.33-.69.17-1.37.9-2.37.6-.57-5,.33-8.31-5.93-7.11.07-.97-.1-2.01,0-2.97.1-.93.83-4.35,1.24-5.03.52-.86,1.41-.43,1.71-.72.86-.8,1.97-2.77,2.38-3.14.95-.87,3.89-1.73,4.06-1.9.25-.24-.08-1.26.18-1.53,1.1-1.14,9.41-.87,5.83-4.27,2.36.84,3.99-1.99,5.17-2.29,2.16-.56,2.84.99,6.28-1.37,2.42-1.65,2.33-2.06,2.77-4.64l3.55-1.2-1.18-2.95c1.18.12,2.61-.25,3.73.01.22.05,3.03,2.18,3.5,2.53.63.47.66,1.46,2.25,1,.1-.99-2.62-.94-1.72-2.31.97-1.47,2.57-.6,3.06-.76.85-.29,1.47-.77,2.21-1.07.49-.19.77-.37,1.19-.59,1.22-.64,2.72-.72,3.55-2.1.21-1.01-1.07-1.25-1.18-1.46-.6-1.12-1.28-2.2-1.19-3.56,1.14.15,3.28.23,3.56-1.19.17-.85-.82-2.72-.6-2.96,1.02.02,1.97-.55,3.01-.35,1.82.36-.04,2.83,4.49.12.31-.18.16-.94.2-.96.95-.52,3.24,1.05.59-2.36,1.08.11,2.81.27,3.73.72.55.27,2.51,2.4,3.22,2.81,2.6,1.5,5.3,2.91,7.92,4.4.65.37,1.73.25,2.3.66.37.26,1.8,3.69,1.79,4.17-.04,2.16-6.92,3.89-7.11,4.72l1.78,2.65c-2.51-.27-5.06,1.09-7.44,1.21-1.39.07-2.66-.83-3.96-.51-1.3.32-4.28,1.99-3.15,3.49,1.8,2.38,5.58-.32,7.22-.44,1.57-.11,2.88,1.49,3.47-.78.81,1.23,2.44,1.16,3.43,1.78,1.56.97,6.21,6.16,7.35,6.43.88.21,2.01-.61,3.29-.42,1.27.19,2.94,1.78,4.43,2.14,1.13.28,4.49.65,5.8.73,2.22.14.46-1.77-.3-2.38l-.59-1.77h2.37c1.09,0,3.44,2.96,4.14,2.36,1.1-.94-.92-1.19-1.18-1.47.7-1.55,3.34-2.98,3.55-3.57.41-1.15-1.14-.94-1.8-1.73-.62-.74-.49-1.96-1.5-2.66-1.06-.74-2.98-.56-3.99-1.19-.61-.38-.69-1.4-1.26-1.85-.64-.51-1.33-.37-1.7-.57-2.01-1.07.83-1.1,1.18-1.33.54-.35.8-2.01,1.66-2.09,2.22-.22,5.55,4.74,6.97,5.35,5.28,2.28,3.67-1.53,4.02-1.9.13-.14,2.29-.02,3.15-.56.78-.49.59-1.78,1.11-2.29.8-.78,3.36-.24,2.83-1.61-.8-2.08-5.04-1.5-6.7-2.21-3.19-1.37-.47-1.95-6.05-2.51-.94-.09-5.01-3.51-7.39-2.7.54-2.03,3.09-3.02,1.78-4.73h2.37c-.25-4.03-4.35-.46-5.33-1.2l1.77-2.36c-1.12-.15-7.97-.63-8.31-.88-.83-.59.57-2.09-.96-2.59-4.04-1.32-4.19,2.78-7.32-2.46-.18-.3-.13-1.09-.41-1.61-1.54-2.85-5.45-.9-3.73-5.49-.67-.58-3.1,1.48-2.38-2.38-2.89-.05.85,4.48-3.31,3.61-.09-.02-.18-.04-.24-.05-.37-.05-.8,0-1.19,0-.2,0-.54.05-.96.11-2.68.22-3.09-.7-3.78-3.67.2,0,.4,0,.59,0,1.38-.04,2.77.03,4.14,0,.26-.24-1.36-3.41-1.77-3.55-.55-.19-1.72.17-2.37,0-1.06-1.8,1.79-3.26,2.67-1.19l.88-2.37c.2-.03.41.04.59,0-.35,1.41.58,1.5,1.94,1.16.75-.19,1.46-2.2,1.61-2.34.22-.22,1.78-.14,1.78-1.18-2.24-.02-3.57.74-4.15-1.78.84-.11,4.36-.39,4.66-.71.3-.32-.24-1.57.4-1.7,1.57-.32,3.64.31,5.66-.21,1.11-.28,1.59-1.71,2.32-2.3.54-.43,3.64-.84,1.03-1.75-1.1-.38-2.91.79-3.41-1.02,1.92.86,2.49-1.11,2.78-1.18,1.56-.38,3.95.2,5.78-.05,4.69-.64,8.66-2.27,12.79-3.79,4.6-1.7,9.37-3.81,14.21-4.48l-.6-1.17c3.28-1.13,8.98-.49,11.69-2.23.59-.38,1.05.04.76-1.33-1.23-.1-2.63.2-3.82-.04-6.18-1.25-14.83-1.6-21.39-1.76-3.46-.08-7.36,1.04-10.02,1.11-1.46.04-7.74-1.17-8.61-.49-1.36,1.06,1.54,1.04,1.18,1.77-5.62-1.88-11.04-1.2-16.71.18-5.17,1.26-5.99.62-10.15,1.2-4.95.69-10.17,2.36-15.21,2.77-.49.04-2.65-.92-3.55.29,2.63.75,5.29,4.1,7.7,4.45v1.19c-.81-.11-1.66.15-2.96,0,.41-2.02-1.18-.82-2.62-1.21-1.31-.36-2.3-1.53-3.9-1.16-.63-.3-2.47-2.28-4.15-1.19-.63-.86-.48-1.49-1.77-1.18l-.6,2.37c-.39.02-.79-.02-1.19,0-.15-1.65-1.28-2.61-2.96-2.37.72,2.72-1.09,2.24-1.19,2.37-.12.18.15,1.23-.29,1.78-.7.87-2.58.07-2.08,1.78-.2,0-.48-.05-.59,0-.52.22-.23,1.41-1.48,1.2-.56-.1.09-1.87-1.48-1.19-.31,2.7,2.3,2.72.59,5.92-.39-.04-.8.04-1.19,0-1.45-2.08-4.35-.73-6.13-1.18-.35-.09-.92-3.28-2.16.58-.01-.03-.45-.02-.59,0-.29-2.73-6.78-1.83-8.89-1.78-1.15.03-2.47-.14-3.56,0-2.61.33-3.61,1.51-2.97,4.36.14.62,1.76-.03,1.19,1.56-3.83,1.36-1.22-3.51-3.84-2.36-1.37.6-.53,2.69-1.05,3.43-.06.09-2.11.27-1.02,1.31.19.18,1.27-.54,1.96-.41.15.03,2.66.91,2.77,1.01,1.27,1.21-2.17,1.61-2.32,1.82-.54.76.82,3.26.54,3.5-1.61.74-1.76-1.11-2.17-1.18-.92-.15-1.97.2-2.78,0-.45-.11-.38-2.16-1.55-1.17-.26.23.61,1.3-.9,1.16-.36-.03-.3-1.92-2.08-1.19,0-.13-.66-.75-.59-1.19,4.22-.3-2.77-4.36-1.19-5.92,4.57.44,2.51-2.93-.95-3.55-1.76-.32-1.25.98-1.8,1.14-1.09.31-3.75-1.27-3.18,1.82-2.6-1.51-2.15.21-2.51.41-.99.54-3.11.04-4.3,1.95l-.29-2.96h-2.96c-.36,2.29,2.86.08,1.77,2.97-.01.03-1.94-1.3-.59.31,1.31-.41,3.15.38,4.15.28v.59c.71,1.67,4.68,2.91,4.15.59.67.03,1.82.12,2.37,0,4.1,2.84-.24,2.44-.57,3.99-.42,1.97,1.05,3.86-1.97,3.1-1.06-.27-.33-2.24-3.98-2.34-.39-.01-.8.04-1.19,0v-3.56c-.82-.34-3.37.8-3.55.59-.1-.12.17-.91-.06-1.26-.35-.52-.93-.54-1.1-.99-.52-1.39.75-2.81-3.17-1.88-.45.11-.38,1.06-.81,1.16-1.92.45-3.85.82-5.33,1.19-1.27.31-4.14-.95-3.74,1.2-3.11.85-5.89,2.74-9.48,3.56l-2.37-2.37v3.56c.39.03.79-.02,1.18,0,1.31.06,2.85.09,4.15,0,.33.68,1.72.52,1.78.59.28.34-.95,2.49,2,1.79.58-.14.02-1.82,1.55-1.19v5.92c-.19,0-.39.01-.59,0l-.6-2.37c-1.78-.38-1.11.88-1.18,2.37-.59-.05-1.19.03-1.78,0-.22-.27-.43-1.11-.59-1.19-.23-.11-.93.19-1.33-.03-.7-.38-.27-1.6-1.92-1.17-.2.05-.18,1.98-3.45,1.18-.41-.1-.36-1.82-2.41-1.18-.62.19.13,1.44-1.25,1.21-.24-.04-1.22-3.89-1.48,1.18-.39.04-.8-.04-1.19,0-.77.08-1.59-.06-2.37,0l2.37,2.36c-3.82-.77-1.84,1.85-2.37,2.38-.53.53-3.16-1.45-2.38,2.37l-2.36-1.78c.32,3.46-1.59,6.18,2.96,5.33.28.24-.84,2.01-.59,2.34.1.14,3.07,1.26,3.25,1.25.33-.02.23-1.12.57-1.13,2.12-.03,3.59.55,4.47-2.46.33-.09.82.07,1.19,0,1.26.23,1.08,2.11,1.27,2.27.39.31,1.46-.08,2.12.28.15.08,2.39,2.05,2.54,2.19-.13-.21.18-1.32,0-1.94-.15-.53-1.97-.39-1.17-1.61.25-.39,2.88-1.73,3.54-1.2-.62,2.45.48,3.89.97,5.75.43,1.62-.77,1.87,1.99,3.73-2.07.63-3.89.17-5.92,0-.2-.02-.4.02-.59,0,.43-2.06-1.38-.71-2.23-1.34-.37-.27.33-1.23-1.02-1.03-.51.07-.18,1.75-1.49,1.19-2.04-.85-3.26-1.54-5.66-1.22-2.5.34-3.37,3.2-6.78,1.81,1.53-5.97-1.75,1.17-4.33.51-2.66-.68-1.43-3.87-1.6-4.04-.1-.09-2.47-.64-2.61-.63-.19.01-1.33,2.15-2.76,2.65-1.72.61-4.05.37-5.89.92-.32-.57-.7-1.06-.6-1.77h-.58c-.06.38.05.81,0,1.18-2.29.1-5.32.26-7.11,1.78-2.09-1.56-9.38-.94-7.7,2.37-2.51-.09-5.68-.47-7.86-1.76-.57-.33-.7-1.53-1.27-1.62-1.76-.27-3.79.91-6.86-.18-.84-.3-1.65-1.62-3.32-1.77-2.25-.2-4.92.83-7.94.59-1.44-.11-3.09-.93-5.33-.59-2.75-2.63-7.06-.32-9.73-.59-1.46-.15-2.15-1.38-3.15-1.64-.66-.17-9.29-1.86-9.79-1.81-1.55.14-3.79,1.74-5.62,2.13-5.08,1.09-11.02.84-15.52,4.04-.81.58-.81,1.54-2.4,2.34-3.67,1.84-7.66-.67-10.08,2.95.86,1.32,2.94,1.18,3.89,2.03.81.73.61,2.03,1.22,2.47.96.68,2.82.1,3.47,2.31l1.48-1.77c-.91,3.05,1.39,3.76-2.66,4.14-2.49.24-5.41.67-4.74-2.36-2.39.91-4.99,1.25-7.4,2.08-1.5.51-4.25,1.53-5.34,2.65h2.96s-.59,2.97-.59,2.97c2.59,1.28,5.34-.1,7.38.02.95.06,1.77.97,2.4.97.48,0,3.88-2.09,5.91-2.18,1.35,1.8-.79,1.76-1.16,2.37-.58.96-.05,2.75-.87,3.31-.85.59-3.04.04-4.35.39-1.01.27-1.73,1.56-3.12,1.63-1.11.05-1.99-.71-3.37-.47-1.73.3-2.35,2.28-3.44,3.11-.88.67-4.61,2.54-4.72,3.01-.23.99,1.49,1.57,1.7,2.47.26,1.2-1.48,3.52,1.29,4.64,1.52.62,3.49-.78,4.75-1.19,2.7-.87-.44,5.17-.03,5.6,3.08,1.45,2.24-1.1,3.7-1.07,3.43.06,4.65,4.51,5.19-.09.98-.26.26,1.05.96,1.21,1.09.25,2.2-.21,3.17-.62-1.2,3.89-4.06,6.01-7.1,8.29-3.52-.03-4.53,2.01-6.52,2.96-2.67,1.28-6.69.56-8.88,3.85.38,1.27,2.91,1.5,3.49.83.46-.53-1.14-3.18,2.64-2.28.54.13.11,1.58,1.26,1.15.48-.23,1.36-1.79,1.49-2.37,4.01.57,6.12-1.89,8.89-3.56,4.36-2.63,10.61-4.92,14.87-7.97.61-.44,2.61-.11,1.69-1.5-.07-.11-2.22-.1-1.14-1.77.15-.24,3.81-1.2,5.16-2.19,1.88-1.39,2.78-2.98,5.49-4.35.53-.06.87.46,1.19.59-.28,1.34-3.12,3.2-3.4,3.72-.57,1.04.22,2.21-1.93,3.39,2.95.26,6.27-2.89,8.72-3.42,1.27-.27,3.59.17,4.35-.38,1.04-.76-.54-3.51,3.97-3.81,1.03-.07,1.6,1.94,2.08,2.14.4.17,1.21-.13,2.21.15,4.08,1.14,6.86,1.08,10.99,1.48,1.69.16,3.18,1.68,5.59.3-.34,2.39.15,2.66,2.37,2.96,1.24.67,1.59,2.16,2.65,3,.58.46,1.79.42,1.99.65.27.31,1.25,6.62,2.43,7.84l1.23-.83c.2,1.52,1.64,2.5,1.75,2.8.4,1.13-.64,3.23,1.21,3.72.37.53.18.83,1.18.59.22-2.74.22-.04,1.48,0,1.65.05.67-1.43.89-2.37,1.01,1.53,1.35,2.98,3.56,2.38-1.18.85-1.7,5.2-1.16,5.91.13.17.87-.09,1.16,0,3.49,1.16,1.83,1.28,2.58,2.23.64.82,2.61,2.53,3.04,3.73.52,1.45-1.05,2.46,2.07,3.82-.09,2.3-4.34-2.19-4.73,1.17,2.07,1.79,4.05,3.66,5.92,5.64.49.52,2.9,2.6,2.94,2.8.37,1.92-.97,5,1.21,6.09-.09,3.59-1.45,8.52-2.54,11.98-.51,1.64-1.93,3.04-2.17,4.34-.4,2.17.53,3.96.42,5.75-.11,1.68-1.58,3.4-1.61,4.3-.03.92,1,1.91,1.16,3.02.16,1.13-.44,2.24-.35,2.94.1.77,2.42,2.27,2.14,3.82l1.76-1.18c.33,1.34-.88,3.21-.63,4.34.14.63,1.6.61,1.75,1.32.13.61-.72,1.65-.44,2.8.15.6,1.77,2.18,2.33,3.06.53.85.45,2.17.85,2.71.43.58,8.24,3.22,9.46,5.35.97,4.27,2.66,8.25,4.34,12.27.26.63-.01,1.53.13,1.92.76,2.08,7,4.63,4.2,8.54-.57.79-2.19-.3-1.83,1.23,2.16,3.07,3.04,2.59,5.92,3.27l1.78,1.78c0,1.91,1.1,4.75.68,7.03,2.46.31,4.32,2.84,5.49,4.9.61,1.08-.08,2.59,2.13,1.41,1.87-1-.12-4.58-.7-4.95-.59-.38-2.07.1-2.27-.09-.15-.13.15-2.43-.02-3.24-.93-4.44-3.14-6.45-5.1-9.47-.05-.12-.11-.23-.21-.33-.98-1.56-1.34-3.92-2.96-6.52-.4-.64-1.07-1-1.19-1.19-3.21-5.17-4.62-12.98,3.56-7.11.53,3.51,1.38,8.42,3.86,11.25,2.04,2.32,1.65.93,3.82,4.48.74,1.22,2.9,1.98,3.32,2.65.7,1.12-.77,2.45-.08,3.55.45.71,2.43,1.02,3.32,2.05,1.02,1.18,7.35,9.5,7.83,10.54,2.22,4.87.86,5.65.57,9.78-.26,3.6,3.38,4,5.21,5.47.72.58.94,2.16,2.19,2.85,1.45.81,3.81.48,5.11,1.26.6.36.84,1.62,1.95,2.34,1.82,1.17,8.67,4.17,10.94,5.06.73.28,4.53,1.57,4.97,1.58,2.6.07,3.65-3.01,6.99-2.32,3.44.71,6.3,7.61,9.47,8.93,1.57.65,3.08.25,4.62.71,2.88.86,4.83,4.25,8.86,2.1-.45,4.09,4.54,5.48,5.76,8.75.62,1.65.6,4.3,1.3,5.23,1.15,1.53,2.64.18,2.94.34.2.1,3.17,2.71,3.31,2.89.6.79.54,2.28,1.01,2.81.17.2,4.11.72,5.08,1.17,2.51,1.15,3.11,5,6.67,3.1.52-1.23-1.34-2.53-1.18-3.22.05-.23,3.11-3.19,3.33-3.26,2.71-.84,3.38,3.95,4.11,5.26,4.68,8.39,2.44,6.28,3.23,14.53.11,1.11,1.72,2.3,1.17,3.88-.87.35-.89,1.77-1.49,2.36-.81.79-2.34.67-2.95,1.79-.69,1.28-.22,3.73-1.45,5.07-.76.84-2.34.84-2.73,1.42-.39.58-.88,6.88-1.45,7.73-.04.06-1.14-.22-1.2.35-.04.33.52,1.78.61,2.61.1.91-.28,1.92.17,2.8.53.95,3.51,1.89,3.39,2.84-.22,1.82-2.72,2.05-3.57,3.84-1.08,2.3.46,7.17,1.64,9.33.54.99,3.56,4.21,4.91,6.22,3.75,5.6,10.22,17.93,13.15,24.36.56,1.24-.05,2.26,1.14,4.14,5.2,8.21,18.41,9.32,21.83,19.36.25.74.43,1.6.59,2.37.26,1.22.39,2.34.59,3.56.3,1.84,1.17,5.39,1.18,6.81.02,3.19-.43,4.16-.13,7.84.76,9.15-.45,18.52,1.32,27.42-3.07,2.79.7,6.86,1.15,9.81.65,4.26-.57,17.61-1.76,21.77-.15.51-1.16.41-1.18.76-.14,2.29,2.73,6.3,2.97,8.31.21,1.76-.06,6.69,0,9.13.05,1.87-.8,10.83,1.79,9.2,1.77-1.11.2-5.65-.01-7.43,1.14.58,1.3.85,1.19-.58l1.77,5.92c.08,3.31-.15,6.73,0,10.07-1.78-.82-.79-3.83-1.46-5.34-.46-1.16-2.05.92-2.07,1.03-.37,1.72.63,3.86.63,5.79,0,.57-.5,4.83-.64,5.04.25-.25,5.47,1.68,3.01,4.98-.6.81-2.54-.45-2.47,3.62.06,3.25,2.95,6.42,3.02,9.77l1.48-.6c-.06,6.72,1.54,7.78,6.8,10.98.5,1.47-2.29,0-.21,2.6,2.75,3.45,10.21,6.42,14.17,7.77,1.51.51,2.96,0,4.41.59l-.59-1.77c4.29.73,2.53-1.32,2.96-1.78.24-.26,4.37,1.45,4.73-.59-3.91.02-6.2-3.23-8.88-5.34.3-1.16-.94-1.03-1.17-1.65-.2-.55.15-1.71-.03-1.9-.32-.34-4.24.93-3.55-2.38.5-.14,1.62.36,1.77-.29-2.03-1.81-4.54-6.03-2.62-8.55.59-.78,1.94-1.04,2.36-1.82.75-1.39-.5-2.63-.24-3.73.4-1.65,3.8-3.53,4.08-6.03.36-3.23-.79-1.54-2.83-2.53-3.13-1.53-4.53-3.73-3.44-7.29,1-3.28,3.97-1.95,4.48-2.34.16-.12-.38-1.01-.29-1.45.57-2.78.11-2.51.22-4.78.06-1.29,1.28-2.19,1.16-2.85-.17-.97-2.55-1.73.09-2.47-2.87-1.26-2.56-4.65-2.96-7.41,2.58.38,3.49,2.57,6.36,1.33,3.88-1.68,1.58-2.97,1.5-4.46-.03-.57.87-4.93,1.12-5.09.33-.21,6.09-.81,7.75-1.43,3.13-1.17,6.2-5.18,6.39-8.48.11-1.78-2.74-2.98-2.76-6.58-.02-4.11,6.55-1.54,8.1-2.31,1.19-.6,3.08-3.47,2.95-4.97.84-1.03,1.12-.66,1.78-2.37,1.19-3.1.55-4.15.6-6.76,0-.43,1.09-.33,1.37-1.06.49-1.24.2-3.58.49-3.96.21-.28.93.02,1.1-.07l2.36,1.18c.32-1.86.67-4.24,1.48-5.93.7-1.47,2.17-2.32,2.54-3.39,1.46-4.21-.67-7.94-.2-11.45.33-2.42,4.46-8.5,6.84-9.21,1.59-.48,2.87.48,2.97.36.06-.07-.07-1.08.37-1.72,2.8-4.03,7.91-1.44,9.73-2.71.55-.38.6-1.75,1.14-2.43,1.12-1.42,1.2.3,1.8-2.63.6-2.95,1.27-3.02,1.91-4.9,1.25-3.69,2.32-9.05,2.83-12.87.21-1.55,0-3.67,0-5.33,0-.39,0-.79,0-1.19-.03-1.81-.56-2.87-.59-4.15-.05-2.17-.18-4.64,0-6.81.4-4.79,1.19-2.46,2.39-2.98,1.85-.79,2.39-6.47,3.6-8.22.65-.94,1.86-1.22,2.56-2.18,3.55-4.84,4.45-8.43,3.88-14.48-.09-.93-1.14-5.81-1.46-6.24ZM271.75,41.04c1,.22,3.83-1.13,4.34-.6.17.17-.2,1.45.06,1.68.36.31,1.64-.21,2.2.21.3.23.07,1,.13,1.04-1.26-.14-1.33-.07-1.19,1.19-.23-.11-.83.08-1.19,0-.09-.15.09-.47,0-.59-2.59-3.57-2.16-.74-2.76-.59-1.2.29-3.12-.7-3.76,1.18-.19.04-.41-.04-.59,0-1.2.36-1-.92-1.62-1.16-1.36-.52-3.57.7-3.12-2.4,1.29.69,6.82-1.41,7.11-1.19.05.04-.22,1.09.38,1.22ZM211.82,32.11c.38.2.38.4,0,.59v-.59Z" fill="#bcbcbc"/>
  <path d="M299.81,547.6c.09-.33-.1-1.08,0-1.18-.1.14-3.45.48,0,1.18Z" fill="#bcbcbc"/>
  <path d="M161.16,59.96c1.27-1.26-1.12-1.08-1.18-1.18.09.08-.07,2.43,1.18,1.18Z" fill="#bcbcbc"/>
  <path d="M897.74,342.37c-1.34,2.6-.32,3.53-.2,5.85.04.84-.57,1.69-.38,2.82.36,2.14,2.83,2.73,2.92,3.21.14.77-.48,1.83-.41,2.75.52,7.45,2.57,3.2,4.52,4.21.82.42.98,2.04,1.57,2.16,1.55.32,2.55-1.23,3.34-1.11.25.04,4.41,1.78,4.59,1.95,1.65,1.66-.68,3.46,4.42.29,1.42,3.22,1.27-1.54,1.61-3.11.19-.86.97-1.61,1.06-2.56.1-1.11-.75-2.69-.52-3.1.18-.33,4.15-3.28,4.37-3.66,1.61-2.7-1.42-7.7,5.62-7.12.74-.96-2.55-2.88-2.86-3.99-.26-.9.35-1.9.18-2.61-.52-2.23-2.18-4.32-.6-6.86,1.4-2.25,4.4-.55,2.1-4.3,9.1-1.29-1.5-3.77-1.78-4.18-.1-.15.86-2.87-.04-3.49-2.84-1.98-4.3,4.61-4.85,5.15-.89.86-3.1-.32-1.63,3.11-5.5-1.55-6.24,5.52-9.06,7.53-2.74,1.95-7.29.1-6.94,6.7-1.15,1-4.69-4.17-7.03.37Z" fill="#bcbcbc"/>
  <path d="M694.28,400.5c-.22-1.33-.93-3.02-1.93-3.98-1.87,0-1.02,8.66-5.03,6.51.68,4.82-4,7.82-7.77,9.71-.91.46-4.44,1.41-4.58,1.64-.3.49.06,1.69-.24,2.4-.46,1.1-1.53,1.86-1.62,3.15-.19,2.77,1.8,7.45,1.44,10.44-.38,3.14-4.34,7-4.46,9.69-.08,1.9,1.04,3.2,1.21,4.8.22,2.05-.82,3.96.16,6.3.28.67,2.86,2.87,3.41,3.11.44.19,6.45-2.15,7.01-3.08,2.73-9.66,6.52-19.17,9.1-28.86.87-3.25,1.52-6.78,1.67-10.16.03-.67-.38-1.62.59-1.46.59,2.81,1.92,1.75,1.8-.87-.11-2.5-.37-7.05-.75-9.36Z" fill="#bcbcbc"/>
  <path d="M885.22,360.37c-1.01-.78-3.73-3.33-4.2-4.4-.54-1.22-.39-2.79-.64-3.21-.26-.42-2.44-.42-2.8-1.68-.36-1.23,1.18-2.89,1.11-4.08-.1-1.71-5.81-7.66-7.37-8.61-.79-.48-1.6.13-2.4-.48-1.29-.99-2.12-3.86-3.24-5.11-.94-1.06-2.51-1.54-3.56-2.96-.77-1.04-1.82-4.42-2.36-4.79-.63-.43-2,.46-3.14.27-1.17-.2-5.09-4.55-4.48-.35.43,2.92,4.34,5.69,5.72,7.93.96,1.55,1.06,3.62,1.84,4.68.71.96,2.34,1.07,3.14,2.79.8,1.72.55,4.22,1.2,5.91.54,1.41,2.36,2.85,3.1,4.6.98,2.32,1.1,5.25,1.97,7.51.66,1.74,3.23,6.14,4.23,7.6.34.49,5.01,5.72,5.36,5.92,1.08.6,3.39.3,4.73.9.06-3.9,1.79-8.75,1.78-12.45Z" fill="#bcbcbc"/>
  <path d="M990.99,196.27c-.4.78-.23,2.26-.31,2.35-.28.31-2.51-.63-3.28-.63-1.29.01-2.33.56-3.53.63-1.09.06-1.96-.88-3.23-.33-.37.16-4.13,3.68-5.49,4.63-3.03,2.12,1.73,2.09,3.69,2.2l.59-1.18c-.7,2.19-1.06,4.22.89,5.91,1.45-4.43,3.11-2.07,4.48-2.66,2.57-1.12,1.08-2.82.39-3.9-1.76-2.76,1.46-1.34,3.12-1.13l-1.18.59c-.61,1.43.77,1.03.97,1.36.49.82.53,3.36,1.69,2.78.96-.48,1.13-2.35,1.79-2.97.77-.73,2.99-.35,2.06-1.76-.09-.14-1.75.45-1.17-1.19,1.6.99,3.97,1.96,5.68.64.77-.59.52-2.05,1.42-1.83.36,3.22,1.2.12,2.05-.36,1.36-.79,1.65.93,1.77.92,1.99-.08,1.76-1.12,2.36-2.09.18-.29.98-.27.97-.56-.03-.86-1.13-1.39-1.19-2.33-.07-1.05,1.14-2.66,1.19-4.19.03-1.04-.99-4.02-.59-4.4.16-.16,1.35.2,1.64-.09.16-.16,1.26-4.12,1.29-4.43.42-3.83-5.34-9.74-6.79-4.07-.48,1.88.92,3.33.65,5.02-.35,2.23-2.94,7.06-4.54,8.57-1.66,1.56-3.43,2.15-5.31.91.4,1.88-1.52,2.51-2.07,3.58Z" fill="#bcbcbc"/>
  <path d="M701.73,48.24c.9.38,2.58,2.32,4.95,2.65,1.79.25,5.47-.88,7.89.18.36-1.77-1.95-1.42-3.26-2.36-4.78-3.43-3.93-5.47,0-8.9,3.5-3.06,6.61-4.75,10.6-6.01.69-.22.65-1.27,1.79-1.79,5.76-2.62,17.28-2.39,23.6-4.79,1.05-.4,2.45-.72,2.23-2.21-3.62-1.08-5.65-.62-9.01.65-2.43.92-7.13,2.2-10.23,2.34-1.77.08-4.51-.78-5.28-.66-.41.06-.34,1.24-.7,1.25-.59.02-1.47-.74-2.27-.66-.38.04-.3,1.11-.76,1.22-3.21.75-8.64,1.3-11.62,3.57-.63.48-.36,1.27-.64,1.53-1.88,1.8-3.33,3.45-6.31,3.21l1.19,2.36c-.78.1-5.14,1.59-5.34,1.79-.24.24.97,2.59.6,2.95-.46.45-4.62-.53-3.56,2.37,1.63.05,4.69.71,6.12,1.31Z" fill="#bcbcbc"/>
  <path d="M467.2,82.53c1.69-.15,2.15-1.24,3.23-1.56,2.64-.78,6.5-1.33,9.08-2.18,1.43-.47,3.08-3.38,5.17-3.44-.43-2.65-2.38-1.87-3.4-2.51-.39-.24-.47-1.28-.99-1.66-.25-.18-3.96-1.8-4.18-1.75-.52.13-.57,1.39-1.37,1.75-2.84,1.29-6.58-.78-8.84.83-.27.19-.15.94-.19.96-.29.18-1-.86-1.58-1.07-2.12-.75-.96.9-1.49,1.51-.33.38-2.11.37-2.55,1.33-1.45-3.6-1.64-4.04-5.62-4.73.7,3.53-3.73-.09-3.56,4.15l5.33-.59c.48,1.23-1.26,2.42-1.13,3.18.04.2,2.31,3.07,2.48,3.18.95.6,8.43,2.69,9.62,2.58Z" fill="#bcbcbc"/>
  <path d="M567.62,15.52c.47.43.76,2.13-.59,2.07.18.46,2.98,1.98,3.55,2.08l1.22,1.52c.82.16,4.46.4,4.11,2.04-.19.01-.4,0-.59,0-.44-.02-.83-.89-1.17-.3.66.3.49,1.3.65,1.44.25.22.82-.02,1.11.05,1.78.42,6.65,2.53,7.31,2.31,1.17-.39,1.58-2.73,2.33-3.33,1.58-1.27,1.14-.36,2.97-2.32,1.82-1.95,3.12-3.35,5.95-2.47,1.25.39,1.2,1.74,1.77,2.11,1.18.77,2.21-.99,1,2.51,1.68.57,2.83-.85,3.86-1.18.25-.08.64,2.87,4.39.85,3.87-2.09-4.01-3-4.86-3.24-.28-.08-2.82-2.42-4.84-2.97-3.93-1.08-3.23-.21-6.66-2.25-.29-.17-6.08-1.89-6.42-1.88-3.96.03-2.47,2.27-2.66,2.38-.29.18-4.87-2.35-6.52-1.17l.3,1.19c-2.8-1.95-5.93-1.01-9.18-1.19-.48,3.74,2.79,1.62,2.96,1.77Z" fill="#bcbcbc"/>
  <path d="M1046.67,555.29c-.53-.12.69-1.94.3-2.35-1.18-1.26-2.78,3.65-3.12,3.99-.57.57-1.89.63-2.83,1.62-1.1,1.17-1.62,3.54-2.98,4.72-4.66,4.01-11.02,6.24-15.96,10.7-.85.77-4.46,4.59-3.55,5.63,4.21-.45,1.93,3.9,5.76,2.51,6.37-2.3,8.08-11.47,13.21-12.93.92-.26,1.99.3,2.37.07.82-.49-.06-2.01.86-3.25,1.25-1.68,5.35-4.34,6.8-6.4.37-.52,2.2-3.57,2.39-4,.63-1.45-2.81-.59-3.26-.3Z" fill="#bcbcbc"/>
  <path d="M904.58,385.71c1.02.05,1.78-.93,2.27-.9.23.01,2.37,2.01,3.55,2.21.77-.39-.46-2.08,1.16-1.76,2.45.48-.14,1.86,2.67,2.36l.6-2.96c-2.89,1-3.19-1.54-4.28-1.99-1.8-.75-5.67.37-4.31-2.76l2.58-.46c-2.71.25-6.18-2.32-8.05-2.42-1.34-.07-.77,1.59-2.23,1.76-1.99.23-4.32-.48-6.05-1.44-.22-.12-.44-1-1.18-1.44-.55-.32-6.09-1.87-6.43-1.84-.36.03-2.31,3.83-2.06,4.07,2.52-.5,1.98,1.82,2.75,2.43,2.61,2.05,7.18,1.25,9.86,1.85,2.05.46,5.61,3.14,9.11,3.3Z" fill="#bcbcbc"/>
  <path d="M908.84,379.45c.23-.02.45-.06.67-.12l-.67.12Z" fill="#bcbcbc"/>
  <path d="M494.15,123.96c.28.27,3.04-.65,2.37.88-.7,1.62-4.72,3.58-3.47,5.56,1.6,2.52,8.71-2.22,10.58-2.62.92-.19,2.17.45,2.35.33.17-.12,1.15-3.45,1.19-3.92.12-1.3-.61-2.92-.49-3.44.2-.83,1.95-1,2.23-1.91,1.24-4.02-7.52-4.38-9.49-1.71-.53.72.29,1.93-.48,2.42-1.11.69-3.45.09-4.79.27.13.8-.19,3.98,0,4.15Z" fill="#bcbcbc"/>
  <path d="M823.14,13.65c1.54-.16,3.63-2.36,4.6.09l-1.18.3c2.18,3.11,6.33,2.37,9.64,2.8,3.15.42,5.57,1.84,9.32.45-.48-2.93.2-5.07-3.88-4.81-1.18.07-.77,1.34-1.15,1.26-.93-.19-3.36-2.67-4.45-3.27l1.77-.3c-.78-.97-5.72-3.01-6.67-2.86-.75.12-1.51.92-2.54,1.06-1.58.21-4.42-.19-5.79.61-.56.33-.29,1.1-.6,1.58-.26.39-1.46-.09-.98,1.4l1.18.59c-1.39.07-3.52-.53-4.14,1.19,1.77-.86,3.3.07,4.88-.09Z" fill="#bcbcbc"/>
  <path d="M932.61,352.35c-1.94,1.25-1.76,5.47-2.51,7.56-.48,1.34-2.5,1.93-1.35,4.02.56,1.02,1.98.62,2.15,2.04.35,2.87-1.54,5.22-1.83,8.01,3.91,1.04,3.81-6.17,4.16-9.22.15-1.3-1.19-3.16.97-3.73,3.25-.86,1.27,3.33,1.37,4.35.14,1.49,2.71,2.27,1.2,5.04,1.77.4.77-1.47,2.64-1.53.51-.02.98.38,1.5.35.33.77-2.47.62-1.18,1.77.42.37,1.5-.3,1.71-.99.66-2.18-1.85-3.9-2.03-5.22-.12-.83.38-1.8.08-3.29-.32-1.57-1.28-2.82-2.13-4.11,1.36,0,5.84-3.31,4.73-4.75-1.04.7-2.63.35-3.54.9-.7.42-1.49,3.54-3.4,1.29-.51-.6-.77-3.64-2.55-2.5Z" fill="#bcbcbc"/>
  <path d="M1064.45,539.31c-2.56-2.23-.82-3.85-1.61-5.21-.07-.11-2.07-1.61-2.55-.72-1,1.86-.52,5.58-2.54,8.71-1.17,1.82-3.6,2.97-3.99,3.74-1.13,2.26,1.51,3.87,1.37,5.53-.21,2.52-3.57,3.95-4.01,6.32,1.08.98,4.62-3.07,5.35-3.83,2.22-2.34,3.44-5.7,4.67-7.18.72-.87,2.18-.65,3.28-1.46,1.9-1.39,3.33-4.17,4.47-6.19-2.42-.41-1.69,2.7-4.44.3Z" fill="#bcbcbc"/>
  <path d="M1003.59,125.03c-.36.28-1.19-.45-1.65-.21-1.13.6-.13,1.99-.13,2.99-.03,5,1.33,3.67,2.24,6.79.91,3.12.24,6.87.55,9.81.2,1.91,1.28,4.88,1.45,7.15.02.27-1.19,4.98.64,3.19.16-.16.44-1.87.61-2.37l3.54,1.78c.68-2.42-3.51-4.9-4.06-6.95-.17-.62.49-4.5.78-4.92,1.09-1.56,3.17.33,4.46-.27-1.66-2.49-2.55-5.34-3.84-8.01-.58-1.19-2.1-2.73-2.38-3.57-.4-1.19.58-2.44.31-3.72-.05-.23-2.06-.87-1.2-2.78-1.51-.63-.96.8-1.31,1.08Z" fill="#bcbcbc"/>
  <path d="M269.75,261.28c3.25-1.42-1.16-2.1-2.34-2.73-1.11-.6-6.98-3.69-7.29-3.97-.7-.62-.58-1.96-1.18-2.37-.7-.48-4.12-.87-5.3-1.21-2-.58-1.44-1.53-5.38-1.44-3.19-1.71-8.6-.08-11.12,2.19-2.2,1.98-.14,2.32,1.76,1.31.96-.51,1.17-1.71,3.21-2.3,1.26-.36,3.07.08,3.19-.02-.2,2.39-.05,1.44,1.44,1.79,1.81.42,6.74,1.73,8.03,2.66,2.1,1.51,1.83,5.83,5.93,3.26,1.35,2.78-1.29,1.3-1.18,3.55,2.96-1.53,7.54.45,10.23-.72Z" fill="#bcbcbc"/>
  <path d="M1001.47,171.52c.46,1.49,2.65,1.7,3.43,1.01,1.56-1.36-3.39-1.29-2.37-2.96,1.82,1.15,2.68-.55,4.15-.38,1.63.19,3.62,1.89,5.03,2.73,1.77-4.74,2.83-3.93,7.4-4.73,1.17-1.62-8.47-5.62-10.02-6.85-1.28-1.01-1.7-2.5-1.84-2.62-2.13-1.81-.5,4.59-.52,5.04-.03.51-1.29,4.36-1.53,4.38-.32.03-2.41-1.02-2.68-.54-.16.28.2,1.35-.02,1.93-.27.69-1.89.25-1.04,2.99Z" fill="#bcbcbc"/>
  <path d="M957.8,318.3c.37-.58-.16-8.08-.42-9.07-.18-.68-.91-1.11-1.36-1.6-.24,4.45-.66,2.17-2.51,3.11-1.08.55-2.55,4.73-4.2,2.65-.3-.38.3-2.22-.98-1.61-1.2.57-1.54,3.32-3.86,2.97.75,2.26,2.91,3.27,3.85.59,4.21,1.99,1.27,3.09,1.48,5.55.2,2.32,2.52,3.66,4.76,3.05,1.37-2.34-1.72-3.56.59-6.24,1.16-.19.32,1.43.59,1.78.07.1,1.85-.84,2.07-1.19Z" fill="#bcbcbc"/>
  <path d="M938.54,285.71c.37,1.26,1.55,2.45,1.21,4.14.38.03.78.04,1.16.01.76-.06.77-.34,1.19-.59l5.33,1.78c1.95,2.87,6.62,5.76,6.51,9.48l-1.17-1.18-.6,2.36c4.03-.11,4.11-1.11,3.4-4.91-.52-2.79-3.3-1.31-3.92-2.29-.32-.51.17-1.76-.15-2.22-.2-.28-1.02.02-1.11-.06.22-1.06-1.88-4.35-2.5-4.62-.81-.36-3.23.88-4.61-.12.2-2.26-1.16-4.03-1.05-4.91.31-2.55,4.19-3.82,3.95-7.26-.06-.82-.83-1.31-.97-1.91-.22-.93.14-2.7-.5-3.17-.57-.41-3.55-1.43-4.1-.54-.87,1.41-1.58,8.24-.88,10.08l-2.36-.59c.12,2.22.55,4.39,1.18,6.52Z" fill="#bcbcbc"/>
  <path d="M269.58,83.37c-.62-1.13-2.08-.6-2.8-1.04-1.09-.68-3.46-3.22-5.48-4.21-.73-.36-2.44.34-3.27-1.56-1.03,3.15-1.33-1.04-1.49-1.18-2.58-2.27-4.52,7.22-4.83,7.59-.41.49-2.84.05-2.85,1.29l4.14-.59c.44.62-.93,2.46.91,2.4,2.28-.07,5.99-3.76,7.08-3.94,1.69-.29,2.05,1.35,2.83,1.71,1.79.84,4.38,1.42,5.77-.46Z" fill="#bcbcbc"/>
  <path d="M971.43,37.78c1.04,0,2.51-.85,4.12-.95,3.13-.19,6.05.78,8.83.57.86-.07,6.28-1.34,5.11-2.91-.76-1.02-5.12-.55-6.08-.73-1.27-.24-2.43-1.58-3.75-1.65-1.89-.1-2.25,1.8-3.39,1.7-2.63-.25-6.18-4.15-9.62-1.13-3.16,2.78,2.52,5.12,4.77,5.11ZM982.97,34.78c0,.91-2.02.68-2.35.29-1.3-1.5,2.36-1.53,2.35-.29Z" fill="#bcbcbc"/>
  <path d="M971.14,544.34c-3.02-1.6-1.88,6.32-1.95,7.04-.1.99-1.06,1.86-1.07,3.63-.03,3.55,1.2,4.41,3.99,2.44.75-.53,4.55-5.37,4.99-6.11.28-.48,1.97-5.87,1.75-6.1-4.66,2.34-4.48.8-7.69-.9Z" fill="#bcbcbc"/>
  <path d="M615.61,12.26c.04-1.77-12.17-.2-13.9-1.49l-.31,1.79c-2.91-1.72-9.34-2.12-12.61-1.07-.81.26-1.17.81-1.01,1.65,9.22,2.02,19.15,4.29,27.83-.89Z" fill="#bcbcbc"/>
  <path d="M272.84,267.35l-.28,1.17c.34.3,4.3-.32,5.53.1,1.12.38,1.05,2.33,2.46,2.28,1.21-3.67,1.58-2.06,3.39-2.53.82-.21,1.24-1.07,2.47-1.04,1.05.03,2.6,1.25,3.35.9,3.33-1.54-2.18-3.08-3.31-3.85-.47-.32-.61-1.28-1.05-1.59-4.26-2.93-6.4.89-11.06-.79-.42,1.68,1.06.96,1.65,2.17,1.5,3.11.11,4.87-3.14,3.17Z" fill="#bcbcbc"/>
  <path d="M799.89,310.89c0,3.28-.22,6.57.62,9.76,9.42-.58,4.97-11.49.86-15.97l-1.48,6.21Z" fill="#bcbcbc"/>
  <path d="M972.37,357.66c.49.6.4,1.85.61,2.03.24.21,7.12.04,5.25,2.45-.16-.04-.39,0-.59,0-.06,0-.21-.52-.41-.49-.75.09-1.17.76-1.77.88-.89.18-2.41-1.03-2.56,1.09.09.43,1.03.67,1.18.89,1.01,1.44,1.05,1.69.59,3.55l2.07-1.76c.82-.05,4.13,3.24,5.09,3.8,2.57,1.49,6.01,1.51,7.91,5.12,2.67,5.1-.02,9.1-2.03,13.58,1.83.44,3.79-.78,5.47-.47,2.22.41,3.35,4.12,5.03,4.54.9.22,6.75-.47,7.26-1.14l-1.17-3.51c2.66,1.64,2.76-3.31,5.99-2.65.74.15,4.28,2.33,4.7,2.91,1.1,1.52,2.4,7.12,3.82,8.62.26.28,6.58,2.87,7.1,2.97,1.41.28.87-1.02.9-1.97l-5.22-6.16c.04-4.16-3.23-6.13-3.08-10.25.48-.47,4.18,1.25,2.88-1.99-.45-1.12-4.86-2.75-5.57-3.94-.41-.68.51-2-.05-3.39-.1-.26-3.4-3.64-3.81-3.98-3.5-2.9-9.81-4.95-13.78-6.9-3.32-1.63-4.43-4.78-9.3-2.9,1.2,2.83.03,1.18-1.17,2.08-.47.35-2,3.64-3.24,4.49-.88.59-1.35.37-2.1.54-.59-1.51-2.67-2.98-2.95-4.46-.36-1.85,1.15-6.55.49-7.31-.16-.18-4.13-1.86-4.37-1.86-1.32.04-4.19,3.94-6.79,1.78-.36,2.72,2.72,2.74,3.61,3.81Z" fill="#bcbcbc"/>
  <path d="M851.81,19.69c1.58-.11,3.29.63,5.24.59,1.51-.04,4.96-.54,6.23-1.49-.03-.8-9.13-3.19-10.19-3.14-3.09.16-5.2,2.98-6.98,5.2,2.05.55,3.99-1.04,5.7-1.16Z" fill="#bcbcbc"/>
  <path d="M969.35,206.91c-.3,3.19,1.86,2.16,3.55,3.26l-1.17.28c-1.48,2.81,2.66,6.93,4.06,4.66.33-.54-.08-2.1.21-3.03.71-2.25,2.38-2.56.48-4.88-3.08-3.77-3.42,0-7.13-.29Z" fill="#bcbcbc"/>
  <path d="M900.18,269.57c2.97,2.64,6.7-4.51,6.96-6.96-3.68-1.65-10.44,3.88-6.96,6.96Z" fill="#bcbcbc"/>
  <path d="M940.62,253.71c1.6-4.2,3.87-8.37,3.85-13.03-4.29,1.41-7.6,9.78-3.85,13.03Z" fill="#bcbcbc"/>
  <path d="M934.4,347.33c2.5-.11,5.48-.19,7.96.03,2.24.2,5.61,2.8,6.84-1.8-1.64-.07-3.32.16-4.96-.08-1.61-.23-5.44-1.73-6.03-1.72-.26,0-4.2,2.92-3.81,3.57Z" fill="#bcbcbc"/>
  <path d="M577.69,191.5c.58-2.08-.11-4.01,1.19-5.92-1.75-.4-3.45.54-5.04.59-.8.02-5.64-1.65-5.03.88.12.48,7.67,4.02,8.88,4.45Z" fill="#bcbcbc"/>
  <path d="M555.44,178.97c.12,1.4-1.15,4.24,1.35,2.84.09-.05.05-.74.62-.95.55-.21,1.73.14,1.92-.02.32-.28.83-8.17-1.74-7.38-.75.23-2.89.76-3,.87-.24.22.77,3.72.85,4.65Z" fill="#bcbcbc"/>
  <path d="M1036.3,375.76c-1.83-2.94-2.61,2.83-6.11.82-.95.96-5.72-.6-5.72.67,0,1.65,3.35,3.37,4.99,3.25,2.55-.19,3.66-2.84,4.6-3.4.21-.13,1.01.51,1.05.45.22-.31-.48-2.08,1.19-1.79Z" fill="#bcbcbc"/>
  <path d="M348.4,569.52c2.12-1.06,3.1.46,5.06,1.05l3.23-4.6c-3.95.78-9.57-2.91-8.29,3.55Z" fill="#bcbcbc"/>
  <path d="M41.77,106.78c-.44-.02-7.02,3.49-7.84,4-2.45,1.54-.71,3.21,1,2.84,1.83-.39,2.46-1.5,3.44-2.07.64-.37,2.21-.38,2.43-.72.59-.91-1.08-2.86,1.85-2.29.23-.58-.49-1.74-.89-1.76Z" fill="#bcbcbc"/>
  <path d="M1002.31,38.55c1.75.14,5.02.8,4.96-1.7-1.84.53-12.58-2.26-13.03-1.78-.1.11-.22,1.43.34,1.83.75.53,6.46,1.54,7.73,1.64Z" fill="#bcbcbc"/>
  <path d="M290.33,65.3c-3.42-.87-7.42-.13-7.11,4.14,3.09.42,7.07-.47,7.11-4.14Z" fill="#bcbcbc"/>
  <path d="M987.72,43.96c-.21-.42-.51-1.41-.75-1.61-1.52-1.26-8.19-1.73-10.51-2.52.22,1.33,2.21,1.02,2.73,1.75.4.56-.44,1.73-.37,1.79.43.37,8.5.88,8.89.59Z" fill="#bcbcbc"/>
  <path d="M1109.48,58.18c.34,0,1.2-.84.3-1.48-1.99-1.43-7.22-1.21-9.32.15-.59.38-1.04-.05-.76,1.33h9.78Z" fill="#bcbcbc"/>
  <path d="M98.95,124.55c-5.51-1.61-5.49.78-2.98,5.05.67.13,2.91,3.28,3.58,2.64.2-.19-.86-1.04-1.03-1.63-.58-1.99-.91-4.34.44-6.07Z" fill="#bcbcbc"/>
  <path d="M961.45,343.21c-.5-.37-.35-1.16-.4-1.2-1.77-1.34-1.81,4.67-2.34,5.6l4.12.9c.39-1.06-1.05-1.56-1.05-2.07,0-.6,2.32-1.74,1.64-2.66-.06-.08-1.44-.17-1.98-.57Z" fill="#bcbcbc"/>
  <path d="M959.28,363.34c-1.54,1.6,4.64,1.41,5.16,1.63,1.22.52,1.69,2.04,3.13,1.91,2.03-4.7-6.87-5.02-8.29-3.54Z" fill="#bcbcbc"/>
  <path d="M1062.72,524.48c-1.09-3.6-2.75-1.26-2.74,1.53,0,1.84.96,3.66.62,5.6,1.34-1.23,2.56-5.67,2.12-7.13Z" fill="#bcbcbc"/>
  <path d="M163.53,41c-.66-.66-1.81.55-1.18,1.18.63.63,1.84-.52,1.18-1.18Z" fill="#bcbcbc"/>
  <path d="M936.76,387.04c-3.91.5-4.23-2.39-8.03-.06-.3.18-2.1.34-.85,1.24.38.27,8.73,1.02,8.88-1.18Z" fill="#bcbcbc"/>
  <path d="M257.19,267.98c-1.71,2.73,5.19,2.46,6.48,2.32.24-2.44-5.61-3.7-6.48-2.32Z" fill="#bcbcbc"/>
  <path d="M886.37,356.55c-1.28-2.69-2.97-.77-2.94.56,0,.47,1.78-.1,1.79,3.26,4.23,3.29,2.26-1.51,1.15-3.82Z" fill="#bcbcbc"/>
  <path d="M567.33,116.83l2.07-4.73c-4.64.27-6.65,1.84-2.07,4.73Z" fill="#bcbcbc"/>
  <path d="M312.85,139.36c1.79,2.3,4.87,3.06,7.7,2.95-.83-2.96-5.21-3.19-7.7-2.95Z" fill="#bcbcbc"/>
  <path d="M690.76,57.75c.34-.16,2.39-.21,1.3-1.33-.85-.88-7-1.12-5.92,1.47.77,1.84,3.51.39,4.62-.14Z" fill="#bcbcbc"/>
  <path d="M918.41,385.52c-.83-.2-1.42-.29-1.79.63-.87,2.18,1,.95,1.07,1.02.41.38.1,1.31,1.72,1.54.94.14,4.35-.42,3.13-1.67-.15-.16-3.7-1.42-4.13-1.52Z" fill="#bcbcbc"/>
  <path d="M943.88,302.87c.05.08,1.27.29,1.77.62,3.21,2.1-.19,2.53-.55,3.03-.1.14.9,2.61,1.45,2.9,1.5.37,2.19-3.33,2.66-4.33.17-.37,1.03-.39,1.09-.52.18-.4-.44-2.16-.54-2.23-.43-.33-.01,1.43-2.33-1.81-.82-1.14-1.36-2.94-3.55-2.96,1.18,1.31-.15,5.08,0,5.3Z" fill="#bcbcbc"/>
  <path d="M946.42,388.4c-.42.29-.53,1.28-1.01,1.62-1.88,1.34-5.38,1.09-5.08,5.3,2.69.2,3.72-3.71,4.92-4.56,1.58-1.13,5.82-.82,6.93-3.14-1.77-.56-4.21-.3-5.75.77Z" fill="#bcbcbc"/>
  <path d="M257.75,90.18c.22.26,6.44-1,5.92-2.96-1.45-.81-7.59,1.02-5.92,2.96Z" fill="#bcbcbc"/>
  <path d="M557.85,166.63c-3.11.27-1.92,5.3-.6,5.31.75,0,2.45-4.62.6-5.31Z" fill="#bcbcbc"/>
  <path d="M240.56,13.75c-.66.66.55,1.81,1.18,1.18.63-.63-.52-1.84-1.18-1.18Z" fill="#bcbcbc"/>
  <path d="M928.77,394.14c1.7,1.12,2.23-1.67.52-2.92-1.24-.91-2.43-.09-3.78-.03.79.88,2.33,2.34,3.26,2.95Z" fill="#bcbcbc"/>
  <path d="M642.29,197.43c-.1-.09-2.23-.46-2.56-.41-.31.04-3.14,1.05-2.77,1.88.99,2.19,6.48-.44,5.33-1.47Z" fill="#bcbcbc"/>
  <path d="M941.97,291.19c-.63-.6-1.97-.78-2.83-.74.38,1.96,2.25,3.03,1.78,5.33,1.22,1.58,1.98-3.71,1.05-4.59Z" fill="#bcbcbc"/>
  <path d="M260.11,246.01c.06-1.3-.01-2.68-.54-3.9-1.25-2.88-2.73-.86-2.13.89.15.44,1.6,3.48,2.67,3Z" fill="#bcbcbc"/>
  <path d="M615.02,197.43l-7.7-1.19c-.45,1.81,1.74,1.22,2.73,1.7l4.97-.51Z" fill="#bcbcbc"/>
  <path d="M295.07,267.35v2.37c.04-.24,6.69-.09,4.74-1.78-.18-.16-3.98-.49-4.74-.59Z" fill="#bcbcbc"/>
  <path d="M604.36,102.62c.21-.21-.37-3.33-.6-3.55-1.5-1.43-1.05,2.15-1.23,2.34-.17.18-.9-.01-1.27.04-.79.11-.54,1.66-.45,1.77.18.2,2.75-.89,3.55-.59Z" fill="#bcbcbc"/>
  <path d="M926.1,387.62c.05-.07.06-1.69,0-1.76-.14-.17-4.02-1.37-4.14-1.19-1.09,1.52,3.25,4.21,4.14,2.96Z" fill="#bcbcbc"/>
  <path d="M952.76,363.93c-1.7,2.4,3.59,3.02,3.54.88-.03-1.15-2.96-1.71-3.54-.88Z" fill="#bcbcbc"/>
  <path d="M269.59,114.47c1.71-1.54-5.75-2.93-4.14,1.19l4.14-1.19Z" fill="#bcbcbc"/>
  <path d="M5.33,100.26l-5.33.29c.52,1.57,7.16,1.1,5.33-.29Z" fill="#bcbcbc"/>
  <path d="M190.78,32.71c-.65-.65-1.83.53-1.18,1.18s1.83-.53,1.18-1.18Z" fill="#bcbcbc"/>
  <path d="M292.7,42.19c-.17,1.24-.06,1.34,1.18,1.18.04-.39-.05-.8,0-1.18-.38.05-.79-.04-1.18,0Z" fill="#bcbcbc"/>
  <path d="M295.07,42.18c.17-1.24.06-1.34-1.18-1.18-.04.39.05.8,0,1.18.38-.05.79.04,1.18,0Z" fill="#bcbcbc"/>
  <path d="M297.44,41c-.65-.65-1.83.53-1.18,1.18s1.83-.53,1.18-1.18Z" fill="#bcbcbc"/>
  <path d="M298.62,43.37c-.65-.65-1.83.53-1.18,1.18s1.83-.53,1.18-1.18Z" fill="#bcbcbc"/>
  <path d="M508.27,108.84c0,.28-1.06.86-1.11,1.77-.02.29.85.18,1.16.76.57,1.07-.19,2.3,2.13,3.09v-1.18c3.32.46-.25,3.67.29,4.15,1.14.71,4.6-.79,4.73-.59.15.22-.2,1.55.3,2.37.37.61,1.76.73,2.02,1.58.92,3.03-3.4,3.32-5.28,2.58-.19,1.24,1.29,2.68,1.07,3.77-.31,1.6-3,1.24-3.45,2.73,1.63.04,3.56.22,4.73,1.49-.01.36-4.93,3.7-5.03,5.02,1.31-1.63,3.57-.4,4.62-.68,1.48-.39,4.22-2.09,6.64-2.05.45,0,.92.93,1.77,1,.37.03.2-1.08.69-1.21,2.25-.59,5.42.8,7.9-1.19l-1.77-1.47c.93-2.39,8.62-6.18-1.19-5.32-.52-2.22-.4-5.06-2.67-6.85-.6-.48-1.52-.4-2.1-.99-1.01-1.04-.95-3.21-1.74-4.03-1.08-1.13-4.24-.53-4.75-1.77,1.9-1.19,2.89-3.95,4.15-5.92-2.33-1.6-4.72.13-7.11-.9-.46-1.97,2.59-1.17,2.96-2.95-1.83.09-4.06-.34-5.79.38-.19.08-2.83,2.6-2.95,2.76-.86,1.2,1.22,2.01-2.51,1-.58,1.67,2.26,1.55,2.27,2.66Z" fill="#bcbcbc"/>
</svg>