<?xml version="1.0" encoding="UTF-8"?>
<svg id="Layer_1" xmlns="http://www.w3.org/2000/svg" baseProfile="tiny" version="1.2" viewBox="0 0 2048 2048">
  <!-- Generator: Adobe Illustrator 29.5.1, SVG Export Plug-In . SVG Version: 2.1.0 Build 141)  -->
  <path d="M1649.25,512.44h113.68c62.76,0,113.68-50.92,113.68-113.68v-113.68c0-62.76-50.92-113.68-113.68-113.68h-113.68c-62.77,0-113.68,50.92-113.68,113.68v113.68c0,62.76-50.92,113.68-113.68,113.68h-113.68c-62.77,0-113.68-50.92-113.68-113.68v-113.68c0-62.76-50.92-113.68-113.68-113.68h-113.68c-62.77,0-113.68,50.92-113.68,113.68v113.68c0,62.76-50.92,113.68-113.68,113.68h-113.68c-62.76,0-113.68-50.92-113.68-113.68v-113.68c0-62.76-50.92-113.68-113.68-113.68h-113.68c-62.77,0-113.68,50.92-113.68,113.68v113.68c0,62.76,50.91,113.68,113.68,113.68h113.68c62.77,0,113.68,50.92,113.68,113.68v113.68c0,62.76-50.92,113.68-113.68,113.68h-113.68c-62.77,0-113.68,50.92-113.68,113.68v113.68c0,62.77,50.91,113.68,113.68,113.68h113.68c62.77,0,113.68,50.92,113.68,113.68v113.68c0,62.76-50.92,113.68-113.68,113.68h-113.68c-62.77,0-113.68,50.92-113.68,113.68v113.68c0,62.76,50.91,113.68,113.68,113.68h113.68c62.77,0,113.68-50.92,113.68-113.68v-113.68c0-62.76,50.92-113.68,113.68-113.68h113.68c62.77,0,113.68,50.92,113.68,113.68v113.68c0,62.76,50.92,113.68,113.68,113.68h113.68c62.77,0,113.68-50.92,113.68-113.68v-113.68c0-62.76,50.92-113.68,113.68-113.68h113.68c62.77,0,113.68,50.92,113.68,113.68v113.68c0,62.76,50.92,113.68,113.68,113.68h113.68c62.76,0,113.68-50.92,113.68-113.68v-113.68c0-62.76-50.92-113.68-113.68-113.68h-113.68c-62.77,0-113.68-50.92-113.68-113.68v-113.68c0-62.76,50.92-113.68,113.68-113.68h113.68c62.76,0,113.68-50.92,113.68-113.68v-113.68c0-62.76-50.92-113.68-113.68-113.68h-113.68c-62.77,0-113.68-50.92-113.68-113.68v-113.68c0-62.76,50.92-113.68,113.68-113.68ZM1421.88,1194.52h-113.68c-62.77,0-113.68,50.92-113.68,113.68v113.68c0,62.76-50.92,113.68-113.68,113.68h-113.68c-62.77,0-113.68-50.92-113.68-113.68v-113.68c0-62.76-50.92-113.68-113.68-113.68h-113.68c-62.76,0-113.68-50.92-113.68-113.68v-113.68c0-62.76,50.92-113.68,113.68-113.68h113.68c62.77,0,113.68-50.92,113.68-113.68v-113.68c0-62.76,50.92-113.68,113.68-113.68h113.68c62.77,0,113.68,50.92,113.68,113.68v113.68c0,62.76,50.92,113.68,113.68,113.68h113.68c62.77,0,113.68,50.92,113.68,113.68v113.68c0,62.77-50.92,113.68-113.68,113.68Z" fill="#1d1d1b"/>
</svg>