<?xml version="1.0" encoding="UTF-8"?>
<svg id="Layer_1" xmlns="http://www.w3.org/2000/svg" version="1.1" viewBox="0 0 500 214.4">
  <!-- Generator: Adobe Illustrator 30.2.1, SVG Export Plug-In . SVG Version: 2.1.1 Build 1)  -->
  <polygon points="193.65 114.03 185.52 114.03 185.52 122.17 185.52 130.3 185.52 138.44 193.65 138.44 193.65 130.3 201.79 130.3 201.79 122.17 209.92 122.17 209.92 114.03 201.79 114.03 193.65 114.03" fill="#f2f2f2"/>
  <path d="M250.6,114.03v24.4h24.4v-24.4h-24.4ZM266.87,130.31h-8.14v-8.14h8.14v8.14Z" fill="#f2f2f2"/>
  <polygon points="323.81 114.03 315.67 114.03 315.67 122.17 315.67 130.3 315.67 138.44 323.81 138.44 331.94 138.44 340.08 138.44 340.08 130.3 331.94 130.3 331.94 122.17 340.08 122.17 340.08 114.03 331.94 114.03 323.81 114.03" fill="#f2f2f2"/>
  <polygon points="364.48 114.03 356.35 114.03 348.21 114.03 348.21 122.17 348.21 130.3 348.21 138.44 356.35 138.44 356.35 130.3 364.48 130.3 364.48 138.44 372.62 138.44 372.62 130.3 372.62 122.17 364.48 122.17 364.48 114.03" fill="#f2f2f2"/>
  <rect x="169.25" y="130.3" width="8.13" height="8.13" fill="#f2f2f2"/>
  <polygon points="226.19 130.3 226.19 122.17 226.19 114.03 218.06 114.03 218.06 122.17 218.06 130.3 218.06 138.44 226.19 138.44 234.33 138.44 242.46 138.44 242.46 130.3 234.33 130.3 226.19 130.3" fill="#f2f2f2"/>
  <polygon points="299.4 122.17 291.27 122.17 291.27 114.03 283.13 114.03 283.13 122.17 283.13 130.3 283.13 138.44 291.27 138.44 299.4 138.44 307.54 138.44 307.54 130.3 307.54 122.17 307.54 114.03 299.4 114.03 299.4 122.17" fill="#f2f2f2"/>
  <polygon points="388.88 114.03 388.88 122.17 388.88 130.3 380.75 130.3 380.75 138.44 388.88 138.44 397.02 138.44 397.02 130.3 397.02 122.17 405.15 122.17 405.15 114.03 397.02 114.03 388.88 114.03" fill="#f2f2f2"/>
  <polygon points="185.52 97.76 193.65 97.76 193.65 89.63 193.65 81.49 193.65 73.36 185.52 73.36 177.38 73.36 169.25 73.36 169.25 81.49 169.25 89.63 169.25 97.76 177.38 97.76 177.38 89.63 185.52 89.63 185.52 97.76" fill="#f2f2f2"/>
  <rect x="275" y="73.36" width="8.14" height="8.14" fill="#f2f2f2"/>
  <rect x="315.67" y="73.36" width="8.13" height="8.13" fill="#f2f2f2"/>
  <rect x="340.08" y="73.36" width="8.12" height="8.14" fill="#f2f2f2"/>
  <polygon points="315.67 81.49 307.54 81.49 307.54 73.36 299.4 73.36 299.4 81.49 299.4 89.63 299.4 97.76 307.54 97.76 307.54 89.63 315.67 89.63 315.67 81.49" fill="#f2f2f2"/>
  <polygon points="226.19 97.76 226.19 89.63 226.19 81.49 226.19 73.36 218.06 73.36 218.06 81.49 218.06 89.63 209.92 89.63 209.92 81.49 209.92 73.36 201.79 73.36 201.79 81.49 201.79 89.63 201.79 97.76 209.92 97.76 218.06 97.76 226.19 97.76" fill="#f2f2f2"/>
  <polygon points="250.6 97.76 258.73 97.76 258.73 89.63 258.73 81.49 250.6 81.49 250.6 73.36 242.46 73.36 234.33 73.36 234.33 81.49 234.33 89.63 234.33 97.76 242.46 97.76 242.46 89.63 250.6 89.63 250.6 97.76" fill="#f2f2f2"/>
  <polygon points="291.27 81.49 291.27 97.77 266.87 97.77 266.87 81.49 275 81.49 275 89.63 283.13 89.63 283.13 81.49 291.27 81.49" fill="#f2f2f2"/>
  <rect x="315.67" y="89.63" width="8.13" height="8.13" fill="#f2f2f2"/>
  <polygon points="356.34 81.49 356.34 97.77 331.94 97.77 331.94 81.49 340.08 81.49 340.08 89.63 348.2 89.63 348.2 81.49 356.34 81.49" fill="#f2f2f2"/>
  <polygon points="380.75 97.76 388.88 97.76 388.88 89.63 388.88 81.49 388.88 73.36 380.75 73.36 372.62 73.36 364.48 73.36 364.48 81.49 364.48 89.63 364.48 97.76 372.62 97.76 372.62 89.63 380.75 89.63 380.75 97.76" fill="#f2f2f2"/>
  <polygon points="397.02 73.36 397.02 81.49 397.02 89.63 397.02 97.76 405.15 97.76 405.15 89.63 405.15 81.49 405.15 73.36 397.02 73.36" fill="#f2f2f2"/>
  <polygon points="130.1 76.07 130.1 73.36 127.38 73.36 124.67 73.36 124.67 76.07 127.38 76.07 130.1 76.07" fill="#f2f2f2"/>
  <polygon points="113.83 78.78 116.54 78.78 116.54 76.07 113.83 76.07 111.12 76.07 108.4 76.07 108.4 78.78 111.12 78.78 113.83 78.78" fill="#f2f2f2"/>
  <polygon points="124.67 76.07 124.67 76.07 121.96 76.07 121.96 78.78 124.67 78.78 124.67 76.07" fill="#f2f2f2"/>
  <polygon points="130.1 78.78 132.81 78.78 132.81 76.07 130.1 76.07 130.1 76.07 130.1 78.78" fill="#f2f2f2"/>
  <polygon points="143.65 76.07 140.94 76.07 138.23 76.07 138.23 78.78 140.94 78.78 143.65 78.78 146.36 78.78 146.36 76.07 143.65 76.07" fill="#f2f2f2"/>
  <polygon points="121.96 81.49 121.96 78.78 119.25 78.78 116.54 78.78 116.54 81.49 119.25 81.49 119.25 84.21 119.25 86.92 121.96 86.92 121.96 84.21 121.96 81.49" fill="#f2f2f2"/>
  <polygon points="135.52 84.21 135.52 81.49 138.23 81.49 138.23 78.78 135.52 78.78 132.81 78.78 132.81 81.49 132.81 84.21 132.81 86.92 135.52 86.92 135.52 84.21" fill="#f2f2f2"/>
  <polygon points="151.79 84.21 149.08 84.21 149.08 81.49 149.08 78.78 146.36 78.78 146.36 78.78 146.36 81.49 146.36 84.21 146.36 86.92 149.08 86.92 151.79 86.92 154.5 86.92 154.5 84.21 151.79 84.21" fill="#f2f2f2"/>
  <polygon points="105.69 86.92 108.4 86.92 108.4 84.21 108.4 81.49 108.4 78.78 108.4 78.78 105.69 78.78 105.69 81.49 105.69 84.21 102.98 84.21 100.27 84.21 100.27 86.92 102.98 86.92 105.69 86.92" fill="#f2f2f2"/>
  <polygon points="108.4 89.63 111.12 89.63 111.12 92.34 113.83 92.34 113.83 89.63 111.12 89.63 111.12 86.92 108.4 86.92 108.4 89.63 108.4 89.63" fill="#f2f2f2"/>
  <polygon points="127.38 89.63 130.1 89.63 132.81 89.63 132.81 86.92 130.1 86.92 127.38 86.92 127.38 86.92 124.67 86.92 121.96 86.92 121.96 89.63 124.67 89.63 127.38 89.63" fill="#f2f2f2"/>
  <polygon points="143.65 89.63 143.65 89.63 146.36 89.63 146.36 89.63 146.36 86.92 143.65 86.92 143.65 89.63" fill="#f2f2f2"/>
  <polygon points="121.96 92.34 121.96 89.63 119.25 89.63 116.54 89.63 116.54 92.34 119.25 92.34 121.96 92.34" fill="#f2f2f2"/>
  <polygon points="135.52 92.34 138.23 92.34 138.23 89.63 135.52 89.63 132.81 89.63 132.81 92.34 135.52 92.34" fill="#f2f2f2"/>
  <rect x="140.94" y="89.63" width="2.71" height="2.71" fill="#f2f2f2"/>
  <polygon points="157.21 92.34 157.21 89.63 157.21 86.92 154.5 86.92 154.5 89.63 154.5 89.63 154.5 92.34 154.5 95.05 157.21 95.05 157.21 92.34" fill="#f2f2f2"/>
  <rect x="113.83" y="92.34" width="2.71" height="2.71" fill="#f2f2f2"/>
  <rect x="138.23" y="92.34" width="2.71" height="2.71" fill="#f2f2f2"/>
  <polygon points="140.94 100.48 143.65 100.48 143.65 100.47 143.65 97.76 143.65 95.05 140.94 95.05 140.94 97.76 140.94 100.48" fill="#f2f2f2"/>
  <polygon points="154.5 97.76 154.5 95.05 151.79 95.05 151.79 97.76 149.08 97.76 146.36 97.76 146.36 100.47 146.36 100.48 149.08 100.48 151.79 100.48 154.5 100.48 154.5 100.47 154.5 97.76" fill="#f2f2f2"/>
  <polygon points="111.12 97.76 111.12 100.47 111.12 100.48 113.83 100.48 113.83 97.76 113.83 95.05 111.12 95.05 111.12 97.76" fill="#f2f2f2"/>
  <polygon points="108.4 97.76 105.69 97.76 102.98 97.76 102.98 95.05 100.27 95.05 100.27 92.34 100.27 89.63 100.27 86.92 97.56 86.92 97.56 89.63 97.56 92.34 97.56 95.05 100.27 95.05 100.27 97.76 100.27 100.47 100.27 100.48 97.56 100.48 97.56 103.19 100.27 103.19 100.27 103.19 100.27 100.48 102.98 100.48 105.69 100.48 108.4 100.48 108.4 100.47 108.4 97.76" fill="#f2f2f2"/>
  <rect x="154.5" y="100.48" width="2.71" height="2.71" fill="#f2f2f2"/>
  <polygon points="149.08 124.88 146.36 124.88 146.36 124.88 146.36 127.59 146.36 130.3 146.36 133.01 146.36 133.01 149.08 133.01 149.08 130.3 149.08 127.59 151.79 127.59 154.5 127.59 154.5 124.88 154.5 124.88 151.79 124.88 149.08 124.88" fill="#f2f2f2"/>
  <polygon points="102.98 124.88 100.27 124.88 100.27 124.88 100.27 127.59 102.98 127.59 105.69 127.59 105.69 130.3 105.69 133.01 108.4 133.01 108.4 133.01 108.4 130.3 108.4 127.59 108.4 124.88 108.4 124.88 105.69 124.88 102.98 124.88" fill="#f2f2f2"/>
  <polygon points="111.12 135.72 113.83 135.72 116.54 135.72 116.54 133.01 113.83 133.01 111.12 133.01 108.4 133.01 108.4 135.72 111.12 135.72" fill="#f2f2f2"/>
  <rect x="121.96" y="133.01" width="2.71" height="2.71" fill="#f2f2f2"/>
  <rect x="130.1" y="133.01" width="2.71" height="2.71" fill="#f2f2f2"/>
  <polygon points="140.94 133.01 138.23 133.01 138.23 135.72 140.94 135.72 143.65 135.72 146.36 135.72 146.36 133.01 143.65 133.01 140.94 133.01" fill="#f2f2f2"/>
  <polygon points="124.67 135.72 124.67 138.44 127.38 138.44 130.1 138.44 130.1 135.72 127.38 135.72 124.67 135.72" fill="#f2f2f2"/>
  <polygon points="121.96 105.9 121.96 103.19 121.96 100.48 121.96 97.76 119.25 97.76 119.25 97.76 119.25 100.48 119.25 103.19 119.25 105.9 119.25 105.9 121.96 105.9" fill="#f2f2f2"/>
  <polygon points="135.52 103.19 135.52 100.48 135.52 97.76 132.81 97.76 132.81 100.48 132.81 103.19 132.81 105.9 135.52 105.9 135.52 103.19" fill="#f2f2f2"/>
  <polygon points="132.81 108.61 130.1 108.61 127.38 108.61 124.67 108.61 121.96 108.61 119.25 108.61 116.54 108.61 116.54 111.32 116.54 114.03 119.25 114.03 119.25 111.32 121.96 111.32 124.67 111.32 127.38 111.32 130.1 111.32 132.81 111.32 135.52 111.32 135.52 114.03 138.23 114.03 138.23 111.32 138.23 108.61 135.52 108.61 132.81 108.61" fill="#f2f2f2"/>
  <polygon points="119.25 114.03 119.25 116.74 119.25 116.74 121.96 116.74 121.96 114.03 119.25 114.03" fill="#f2f2f2"/>
  <rect x="132.81" y="114.03" width="2.71" height="2.71" fill="#f2f2f2"/>
  <polygon points="127.38 116.74 124.67 116.74 121.96 116.74 121.96 119.46 124.67 119.46 127.38 119.46 130.1 119.46 132.81 119.46 132.81 116.74 130.1 116.74 127.38 116.74" fill="#f2f2f2"/>
  <polygon points="94.85 105.9 94.85 108.61 97.56 108.61 97.56 105.9 97.56 103.19 97.56 103.19 94.85 103.19 94.85 105.9" fill="#f2f2f2"/>
  <polygon points="157.21 103.19 157.21 105.9 157.21 108.61 159.92 108.61 159.92 105.9 159.92 103.19 157.21 103.19 157.21 103.19" fill="#f2f2f2"/>
  <polygon points="100.27 111.32 100.27 111.32 100.27 108.61 100.27 108.61 97.56 108.61 97.56 111.32 100.27 111.32" fill="#f2f2f2"/>
  <rect x="154.5" y="108.61" width="2.71" height="2.71" fill="#f2f2f2"/>
  <polygon points="143.65 103.19 143.65 105.9 143.65 108.61 143.65 111.32 143.65 114.03 146.36 114.03 149.08 114.03 151.79 114.03 151.79 116.74 154.5 116.74 154.5 114.03 154.5 111.32 151.79 111.32 149.08 111.32 146.36 111.32 146.36 108.61 146.36 105.9 146.36 103.19 146.36 100.48 143.65 100.48 143.65 103.19" fill="#f2f2f2"/>
  <rect x="111.12" y="114.03" width="2.71" height="2.71" fill="#f2f2f2"/>
  <rect x="140.94" y="114.03" width="2.71" height="2.71" fill="#f2f2f2"/>
  <rect x="113.83" y="116.74" width="2.71" height="2.71" fill="#f2f2f2"/>
  <rect x="138.23" y="116.74" width="2.71" height="2.71" fill="#f2f2f2"/>
  <polygon points="100.27 119.46 100.27 116.74 102.98 116.74 102.98 114.03 105.69 114.03 108.4 114.03 111.12 114.03 111.12 111.32 111.12 108.61 111.12 105.9 111.12 103.19 111.12 100.48 108.4 100.48 108.4 103.19 108.4 105.9 108.4 108.61 108.4 111.32 105.69 111.32 102.98 111.32 100.27 111.32 100.27 114.03 100.27 116.74 97.56 116.74 97.56 119.46 97.56 122.17 97.56 124.88 100.27 124.88 100.27 124.88 100.27 122.17 100.27 119.46" fill="#f2f2f2"/>
  <rect x="111.12" y="119.46" width="2.71" height="2.71" fill="#f2f2f2"/>
  <rect x="116.54" y="119.46" width="2.71" height="2.71" fill="#f2f2f2"/>
  <rect x="135.52" y="119.46" width="2.71" height="2.71" fill="#f2f2f2"/>
  <rect x="140.94" y="119.46" width="2.71" height="2.71" fill="#f2f2f2"/>
  <polygon points="154.5 122.17 154.5 124.88 157.21 124.88 157.21 122.17 157.21 119.46 157.21 116.74 154.5 116.74 154.5 119.46 154.5 122.17" fill="#f2f2f2"/>
  <rect x="108.4" y="122.17" width="2.71" height="2.71" fill="#f2f2f2"/>
  <rect x="143.65" y="122.17" width="2.71" height="2.71" fill="#f2f2f2"/>
  <polygon points="130.1 122.17 127.38 122.17 124.67 122.17 121.96 122.17 119.25 122.17 119.25 124.88 119.25 127.59 119.25 130.3 116.54 130.3 116.54 133.01 119.25 133.01 121.96 133.01 121.96 130.3 121.96 127.59 121.96 124.88 124.67 124.88 127.38 124.88 127.38 124.88 130.1 124.88 132.81 124.88 132.81 127.59 132.81 130.3 132.81 133.01 135.52 133.01 138.23 133.01 138.23 130.3 135.52 130.3 135.52 127.59 135.52 124.88 135.52 122.17 132.81 122.17 130.1 122.17" fill="#f2f2f2"/>
</svg>