<?xml version="1.0" encoding="UTF-8"?>
<svg id="Layer_1" xmlns="http://www.w3.org/2000/svg" version="1.1" viewBox="0 0 500 214.4">
  <!-- Generator: Adobe Illustrator 30.2.1, SVG Export Plug-In . SVG Version: 2.1.1 Build 1)  -->
  <path d="M44.05,74.5s3.27.97,8.45,2.46l1.39.4c.72.2,1.46.42,2.24.64l1.59.45c5.13,1.45,11.27,3.17,17.65,4.89l2.02.54c1.35.36,2.71.72,4.07,1.08l2.04.53c11.54,3.01,22.81,5.68,29.38,6.57.64.09,1.7.3,2.82.42l.42.04c3.96.34,8.21-.74-2.04-12.48l28.57,10.12c6,2.13,11.09,6.25,14.44,11.68l23.42,38.04s-11.41-6.35-24.06-13.28l-1.73-.95-2.62-1.43c-9.6-5.24-19.27-10.45-24.7-13.18-.68-.34-2.19-1.06-3.92-1.68l-.48-.17c-.4-.14-.81-.27-1.22-.39l-.49-.13c-5.14-1.35-9.9-.35.56,14.08l-77.81-48.26ZM226.79,88.85c.53-.03,12.79-.54,12.79,9.51v.16c0,1.01-.32,6.5-5.67,8.07,0,0,6.45,2.03,6.43,8.71,0,.92,0,1.73,0,2.45v1.45s0,2.07,0,2.07v.67s0,.18,0,.18v.41s0,.1,0,.1v.21s0,.11,0,.11h-11.91v-5.69c-.01-.32-.27-5.03-6.1-5.03h-20.74v10.72h-12.43v-34.1h37.62ZM294.36,88.84v9.26h-19.44v24.86h-12.26v-24.86h-19.47v-9.26h51.18ZM453.58,88.84v9.26h-19.44v24.86h-12.26v-24.86h-19.47v-9.26h51.17ZM342.7,88.84v9.27h-33.59v4.97h21.91v8.67h-21.91v11.21h-11.9v-34.1h5.24s40.25-.01,40.25-.01ZM357.9,88.84v11.47l19.42-11.47,19.9.06-26.23,15.44,28.56,18.62h-19.82l-21.84-14.29v14.29h-12.36v-34.12h12.36ZM206.56,98.11h-4.97s0,5.84,0,5.84h22.24s3.58.35,3.58-3.11c0-1.83-1.1-2.64-3.22-2.69-.86-.02-4.8-.03-9.16-.04h-1.46s-.74,0-.74,0h-1.47s-.72,0-.72,0h-3.45s-.63,0-.63,0Z" fill="#f2f2f2" fill-rule="evenodd"/>
</svg>