<?xml version="1.0" encoding="UTF-8"?>
<svg id="Layer_1" xmlns="http://www.w3.org/2000/svg" version="1.1" viewBox="0 0 500 214.4">
  <!-- Generator: Adobe Illustrator 30.2.1, SVG Export Plug-In . SVG Version: 2.1.1 Build 1)  -->
  <path d="M289.69,99.05c-.19,3.65-.28,7.3-.59,10.94-.37,4.31-1.3,8.51-3.38,12.36-1.19,2.2-2.7,4.12-4.95,5.33-1.16.62-2.38.93-3.71.57-1.15-.31-2-1.57-2-2.67.03-17.23.02-34.46,0-51.69,0-.53.14-.71.68-.79,2.02-.29,4.03-.37,6,.28,2.63.86,4.31,2.75,5.45,5.19,1.1,2.35,1.61,4.86,1.93,7.41.54,4.33.56,8.69.57,13.05h0ZM258.01,66.05c.07.19.1.27.13.35.21.4.41.82.64,1.21,1.67,2.86,3.7,5.39,6.66,7.04.14.08.23.37.23.56.01,5.59.01,11.18,0,16.78,0,.15-.02.3-.02.43-3.16.89-5.28,3.02-7.16,5.54.1.01.14.02.17.02.14-.03.27-.07.41-.1,2.19-.5,4.26-.27,6.19.93.29.18.43.38.43.76-.01,8.7-.01,17.41,0,26.11,0,.34-.13.54-.38.74-1.18.97-2.37,1.93-3.51,2.96-.9.82-1.73,1.73-2.64,2.64.13,0,.19,0,.25,0,1.66-.19,3.32-.44,4.98-.56,2.16-.16,4.32-.33,6.48-.3,2.96.04,5.91-.01,8.82-.6,4.74-.95,8.87-3.02,12.12-6.66,2.77-3.09,4.41-6.77,5.44-10.76.98-3.81,1.23-7.69,1.34-11.59.12-4.68.12-9.35-.5-14-.4-3.02-1.02-5.99-2.22-8.81-1.71-4.02-4.47-6.98-8.65-8.49-2.53-.91-5.16-1.21-7.82-1.28-3.67-.09-7.35-.12-11.02-.26-2.64-.1-5.26-.43-7.73-1.48-.85-.36-1.7-.75-2.64-1.17Z" fill="#f2f2f2"/>
  <path d="M387.51,72.36c2.9-1.14,6.05-1.38,9.23-1.43-3.04,1.73-4.93,4.51-6.81,7.29-1.24,1.83-2.32,3.77-3.46,5.66l-.29.48c-.14-1.23-.23-2.4-.41-3.55-.39-2.54-.93-5.05-2.27-7.29-.55-.92-1.24-1.71-2.24-2.17-1.07-.49-2.11-.47-3.12.17-1.07.68-1.84,1.63-2.5,2.68-1.56,2.47-2.47,5.19-3.18,7.99-1.02,4.07-1.52,8.22-1.72,12.41-.25,5.28-.13,10.54.46,15.79.5,4.39,1.33,8.72,3.2,12.77.79,1.72,1.76,3.33,3.21,4.59.34.3.73.56,1.13.77.92.49,1.57.43,2.29-.32.52-.54.98-1.15,1.35-1.81,1.14-2,1.76-4.21,2.3-6.43.97-3.96,1.48-7.98,1.3-12.07-.07-1.69-.29-3.36-.93-4.95,0-.02,0-.03-.02-.05-.57-1.31-1.32-2.49-2.93-2.53-1.73-.05-3.1.7-3.95,2.25-.7,1.28-.99,2.68-1.04,4.1-.05,1.49.04,2.98.08,4.47,0,.2.03.4-.06.65-.11-.16-.23-.32-.34-.49-2.88-4.8-3-9.8-1.04-14.93.12-.32.13-.53-.09-.84-1.11-1.51-1.45-3.28-1.7-5.19.23.18.37.3.51.42,2.99,2.5,6.43,3.99,10.26,4.59,1.95.31,3.93.45,5.87-.04,3.45-.85,5.45-3.16,6.36-6.51.05-.18.09-.37.14-.6.04.06.08.09.09.13.24,3.36.11,6.68-1.3,9.82-.3.67-.75,1.26-1.11,1.91-.13.23-.26.5-.26.75.01,5.31-.44,10.57-1.7,15.73-.92,3.76-2.22,7.36-4.53,10.53-2.04,2.81-4.66,4.82-8.11,5.58-3.32.73-6.23-.21-8.83-2.27-2.6-2.06-4.45-4.72-5.97-7.62-2.55-4.86-4.14-10.03-4.86-15.45-.3-2.22-.34-4.48-.46-6.72-.02-.4-.14-.58-.51-.72-1.39-.54-2.77-1.11-4.16-1.67-.14-.06-.28-.12-.51-.22.82-.38,1.57-.7,2.29-1.08.93-.5,1.83-1.04,2.73-1.59.4-.24.55-.62.62-1.1.91-6.58,2.63-12.9,6.02-18.68,1.62-2.77,3.61-5.25,6.34-7.02,2.02-1.31,4.2-2.13,6.65-1.98,2.13.13,3.86,1.17,5.31,2.65.94.96,1.75,2.05,2.65,3.12h0Z" fill="#f2f2f2"/>
  <path d="M116.63,137.24c1.51,1.17,3.18,2.13,4.95,2.87,4.28,1.79,8.73,2.37,13.33,1.89,4.27-.44,8.29-1.72,12.12-3.61,5.36-2.64,11-4.46,16.77-5.91,6.59-1.65,13.28-2.77,20.03-3.52,5.3-.58,10.62-.92,15.95-.98,5.72-.07,11.43.16,17.1,1.01,8.51,1.27,16.56,3.86,23.78,8.66,3.03,2.02,5.79,4.35,8,7.28.27.36.51.75.78,1.14,2.48-2.24,5.26-4.02,8.19-5.57,5.15-2.73,10.61-4.65,16.27-6.02,6.73-1.62,13.55-2.44,20.47-2.6,5.74-.13,11.46.18,17.17.76,9.09.93,18.04,2.69,26.99,4.5,7.1,1.43,14.21,2.77,21.34,4.03,4.02.71,8.09,1.07,12.19.97,3.96-.09,7.86-.59,11.49-2.32,2.71-1.29,4.88-3.18,6.41-5.77.04-.06.07-.12.11-.18.02-.03.05-.04.13-.11-.34,1.54-1.02,2.84-1.95,4.03-2.06,2.65-4.83,4.24-7.96,5.29-2.67.9-5.43,1.3-8.23,1.49-.2.01-.44.03-.59.15-1.96,1.57-4.26,2.37-6.66,2.89-3.82.83-7.68.8-11.55.38-6.74-.72-13.17-2.72-19.59-4.73-6.3-1.97-12.58-4.03-18.92-5.88-5.64-1.66-11.43-2.67-17.3-3.13-5.48-.43-10.98-.3-16.43.38-5.83.72-11.55,1.92-17.04,4.03-4.01,1.54-7.82,3.47-11.1,6.28-1.13.97-2.08,2.13-3.12,3.21-.06.06-.12.12-.16.18-3.1-5.08-7.48-8.74-12.66-11.5-4.61-2.46-9.57-3.85-14.7-4.69-4.89-.81-9.82-1.11-14.77-1.05-5.23.06-10.43.48-15.61,1.23-7.96,1.16-15.77,2.91-23.27,5.84-3.1,1.21-6.09,2.72-9.12,4.11-3.95,1.81-8.03,3.2-12.36,3.73-3.26.4-6.48.36-9.65-.71-.66-.22-1.43-.14-2.14-.19-3.88-.27-7.69-.87-11.32-2.3-2.4-.94-4.61-2.19-6.37-4.11-.39-.42-.72-.9-1.07-1.36,0,0,.1-.11.1-.11Z" fill="#f2f2f2"/>
  <path d="M112.45,122.59c.91-.06,1.95-.02,2.93-.22,1.94-.39,3.34-1.61,4.11-3.4,1.49-3.48,1.93-7.12.95-10.82-.55-2.1-1.66-3.84-3.91-4.45-1.52-.41-3.08-.27-4.57.21-2.77.9-4.47,2.89-5.32,5.58-1.95,6.19-.65,11.79,3.31,16.83,1.25,1.59,2.75,2.92,4.55,3.86,2.91,1.53,5.94,1.59,9.01.6,4.46-1.44,8.2-3.89,10.62-8,3.09-5.26,3.39-10.6.15-15.92-3.62-5.95-8.94-9.75-15.53-11.77-3.67-1.12-7.28-.5-10.7,1.2l-.4.2c1.13-2.39,4.31-4.73,7.35-5.46-.51-.55-1.04-1.12-1.57-1.69-1.71-1.83-3.14-3.84-4.03-6.19-1.84-4.91-.23-10.44,3.96-13.66,2.63-2.02,5.54-3.15,8.92-2.87,3.06.25,5.81,1.2,7.92,3.56.1.11.41.14.57.08,2.17-.77,4.42-1.19,6.72-1.18.93,0,1.85.14,2.74.22-1.78,2.23-3.59,4.37-5.28,6.61-1.69,2.25-3.11,4.68-4.24,7.25-.04-.54-.07-1.08-.11-1.62-.2-2.43-.64-4.82-1.82-6.99-1.25-2.31-3.02-4.08-5.59-4.93-2.73-.9-7.24,1.34-7.19,5.41.03,2.78,1.22,5.04,2.99,7.07,1.55,1.78,3.55,2.96,5.49,4.24,3.21,2.12,6.39,4.3,9.57,6.47.29.2.53.2.83.08,2.82-1.15,4.34-3.29,4.81-6.24.04-.24.07-.48.11-.72l.14-.02c.21,1.11.46,2.22.64,3.34.22,1.43.25,2.87-.02,4.3-.23,1.2-.67,2.29-1.59,3.19.08.12.15.23.24.33,2.98,3.53,4.58,7.58,4.63,12.21.03,3.57-.97,6.91-2.59,10.06-2.74,5.36-6.72,9.55-12.13,12.28-2.76,1.4-5.68,2.14-8.8,2-3.83-.17-7.2-1.54-10.13-3.95-4.09-3.37-6.56-7.7-7.32-12.95-1.14-7.89,4.4-15.64,12.27-17.03,4.46-.79,8.42.31,11.23,4.05,2.39,3.16,3.11,6.79,1.97,10.63-.79,2.67-2.65,4.42-5.31,5.29-.36.11-.68.34-.89.66-1.9,2.64-5.03,3.63-8.41,2.69-.47-.13-.93-.3-1.28-.42Z" fill="#f2f2f2"/>
  <path d="M139.32,79.29h15.04c-.73,1.01-.57,2.11-.25,3.13.49,1.57,1.07,3.12,1.72,4.63,3.17,7.35,6.37,14.69,9.56,22.03.05.12.12.25.24.5.03-.27.05-.41.05-.56,0-6.21,0-12.41,0-18.62,0-2.42-.24-4.81-1.08-7.1-.56-1.52-1.33-2.9-2.7-3.99h11.42c-.52.34-1.24.7-1.81,1.22-1.32,1.2-1.92,2.83-2.37,4.51-.51,1.94-.77,3.94-.75,5.94,0,7.88-.01,15.76.02,23.63,0,1.14.11,2.29.35,3.4.56,2.59,1.86,4.65,4.69,5.54h-14.29c1.51-1.14,1.51-2.7,1.32-4.3-.03-.26-.1-.52-.2-.76-3.31-7.64-6.62-15.27-9.93-22.9-.04-.11-.13-.21-.24-.26v.59c0,7.16.05,14.31-.02,21.47-.03,3.32,1.89,5.13,4.38,5.97.15.05.3.09.59.18h-13.61c2.42-.85,3.53-2.75,4.29-4.94.09-.26.13-.55.13-.82.02-.86,0-1.72,0-2.59,0-6.77.02-13.54.03-20.31,0-2.02-.02-4.04-.03-6.07-.01-1.77-.67-3.32-1.66-4.75-1.15-1.67-2.6-3.04-4.2-4.27-.19-.15-.38-.29-.69-.52h0Z" fill="#f2f2f2"/>
  <path d="M236.01,81.86c.57.1,1.12.15,1.65.28,4.03.97,6.66,3.93,7.23,8.03.42,3,.61,6.01.3,9.03-.24,2.32-.71,4.59-2.03,6.58-1.73,2.62-4.31,3.2-7,2.67-.05,0-.09-.05-.15-.08v-26.51ZM236.36,110.63c1.75.36,3.51.48,5.3.32,4.69-.43,8.11-2.68,10.09-6.98,2.4-5.24,2.4-10.57.53-15.95-1.1-3.17-3.15-5.53-6.18-7.01-2.78-1.36-5.76-1.85-8.8-1.89-3.57-.05-7.14.08-10.71.12-.94.01-1.88,0-2.82,0,.06.18.15.23.23.28,2.47,1.52,3.77,3.7,3.76,6.64-.02,4.92,0,9.85,0,14.77,0,6.65-.01,13.3,0,19.94,0,2.41-.34,4.63-2.64,6.06,5.88-.56,10.84,1.4,15.16,5.24-.07-.15-.16-.3-.26-.44-2.47-3.57-3.93-7.49-4.02-11.85-.07-2.99-.01-5.98-.01-8.97,0-.1.02-.2.04-.32.12,0,.23,0,.33.03Z" fill="#f2f2f2"/>
  <path d="M191.01,105.67c0,.55.02,1,0,1.46-.19,3.24-.58,6.44-1.69,9.51-.47,1.3-1.07,2.53-2.08,3.5-.24.23-.5.44-.78.62-1.09.7-1.95.61-2.9-.29-1.25-1.19-1.91-2.72-2.46-4.3-1.05-3.02-1.55-6.16-1.83-9.34-.3-3.38-.3-6.78,0-10.16.34-3.69.92-7.32,2.42-10.74.47-1.08,1.05-2.11,1.96-2.9.11-.09.22-.18.33-.26,1.01-.67,1.71-.57,2.46.4.93,1.2,1.35,2.63,1.58,4.09.9,5.82.77,11.59-.93,17.27-.66,2.22-1.35,3.5-3.28,6.25,3.37-.42,5.47-2.42,7.19-5.11ZM170.52,101.26c.03,4.18.6,8.11,2.01,11.89,1.16,3.1,2.75,5.92,5.31,8.11,3.56,3.04,7.96,3.12,11.62.19,1.92-1.53,3.31-3.48,4.39-5.66,2.5-5.03,3.33-10.39,3.11-15.95-.15-3.86-.87-7.6-2.38-11.17-1.14-2.7-2.65-5.16-4.91-7.07-3.66-3.09-8.16-3.09-11.82,0-1.92,1.62-3.3,3.64-4.37,5.88-2.12,4.41-2.91,9.1-2.97,13.79Z" fill="#f2f2f2"/>
  <path d="M219.63,105.76c-.08,3.7-.44,7.35-1.68,10.85-.42,1.2-.96,2.35-1.85,3.28-.38.4-.84.74-1.31,1.04-.77.5-1.53.37-2.25-.16-.8-.58-1.34-1.39-1.8-2.24-1.14-2.15-1.75-4.47-2.19-6.84-1.06-5.73-1.13-11.5-.41-17.27.36-2.83.9-5.63,2.08-8.24.43-.95,1-1.85,1.62-2.69.32-.43.85-.72,1.33-.99.56-.31,1.08-.14,1.53.3.75.72,1.15,1.63,1.46,2.59.65,2.01.86,4.08.95,6.18.17,3.84,0,7.66-.95,11.41-.71,2.8-1.76,5.44-3.65,7.68.88.21,2.71-.48,4.12-1.54,1.22-.92,2.16-2.09,3.01-3.35ZM225.58,99.83c-.18-4.18-.99-8.22-2.76-12.04-1.17-2.52-2.69-4.78-4.91-6.5-1.54-1.19-3.26-1.94-5.23-2-2.73-.08-4.94,1.06-6.85,2.89-2.43,2.33-3.93,5.24-4.98,8.39-1.42,4.24-1.89,8.6-1.63,13.05.22,3.86,1,7.59,2.58,11.13,1.18,2.63,2.72,5,5.02,6.81,3.47,2.72,7.59,2.73,11.08.04,1.96-1.51,3.37-3.47,4.49-5.65,2.33-4.54,3.17-9.42,3.19-14.47,0-.55.02-1.09,0-1.63Z" fill="#f2f2f2"/>
  <path d="M321.24,105c0,.54.02.99,0,1.43-.19,3.24-.54,6.45-1.7,9.5-.41,1.08-1.07,2.08-1.66,3.09-.17.29-.46.53-.73.75-1.34,1.11-2.38,1.06-3.59-.19-.99-1.02-1.56-2.29-2.05-3.59-1.05-2.78-1.56-5.68-1.89-8.62-.37-3.34-.44-6.7-.21-10.06.29-4.2.85-8.36,2.62-12.25.32-.71.79-1.36,1.22-2.03.15-.23.36-.43.57-.62,1.22-1.1,2.19-.97,3.09.4.86,1.31,1.24,2.8,1.45,4.31.74,5.36.64,10.69-.79,15.94-.69,2.51-1.7,4.87-3.42,6.88-.02.02-.01.06-.02.16,3.29-.4,5.41-2.4,7.13-5.11h0ZM327.22,101.99c.07-4.27-.38-8.04-1.56-11.7-1.04-3.23-2.52-6.22-4.96-8.64-4.12-4.09-9.34-4.06-13.46.04-1.62,1.61-2.81,3.5-3.75,5.56-1.66,3.64-2.47,7.49-2.68,11.47-.25,4.61.28,9.12,1.84,13.48,1.12,3.11,2.69,5.95,5.19,8.19,3.51,3.14,7.89,3.37,11.57.6,1.63-1.22,2.89-2.77,3.92-4.51,2.71-4.6,3.73-9.65,3.9-14.49h0Z" fill="#f2f2f2"/>
  <path d="M350.87,93.2c-.8-1.87-1.57-3.81-2.44-5.71-.74-1.6-1.6-3.13-2.86-4.4-.2-.2-.41-.38-.64-.55-.98-.69-1.9-.62-2.76.21-1.16,1.13-1.73,2.59-2.24,4.07-1.01,2.96-1.51,6.03-1.8,9.13-.36,3.71-.35,7.45,0,11.16.31,3.24.7,6.47,1.92,9.52.37.93.87,1.8,1.49,2.59,1.35,1.68,3.65,1.83,5.32.46,1.17-.96,1.82-2.26,2.28-3.67.83-2.49.99-5,.07-7.49-.24-.6-.58-1.16-1.01-1.64-.66-.75-1.62-.71-2.33,0-.75.74-.99,1.72-1.19,2.71-.04.21-.07.42-.11.63-1.31-.67-1.6-2.69-.9-6.21-1.91-1.14-2.83-3.01-3.64-4.96,1.82,1.53,3.92,1.34,6.04,1.07,1.76-.23,3.52-.53,5.28-.6,2.85-.12,4.94,1.21,6.17,3.77.48.99.79,2.05,1.21,3.13-.98-.09-1.83-.22-2.67-.24-1.26-.04-1.26,0-1.38,1.23-.34,3.61-1.09,7.12-2.85,10.34-1.44,2.63-3.43,4.68-6.36,5.62-4.22,1.36-8.18.07-11.13-3.58-2.1-2.61-3.35-5.63-4.23-8.82-1.2-4.38-1.43-8.82-.89-13.33.42-3.51,1.19-6.92,2.67-10.14,1.11-2.41,2.55-4.57,4.69-6.21,1.68-1.28,3.57-2.03,5.67-2.2,2.79-.22,4.96,1.03,6.81,2.97.13.14.25.29.38.44l.39.47c1.58-2.23,3.84-3.09,6.47-3.45-2.26,4.47-4.6,8.82-5.45,13.67Z" fill="#f2f2f2"/>
  <path d="M250.99,126.5c.14,1.15.25,2.3.43,3.44.32,2.06.84,4.06,1.8,5.92.72,1.39,1.63,2.62,3.09,3.47-2.5.73-4.19,2.45-5.86,4.25-1.11-1.9-2.9-3.01-4.66-4.21,1.91-.88,2.66-2.62,3.32-4.41.99-2.65,1.45-5.42,1.79-8.21l.03-.26h.07Z" fill="#f2f2f2"/>
</svg>