<?xml version="1.0" encoding="UTF-8"?>
<svg id="Layer_1" xmlns="http://www.w3.org/2000/svg" version="1.1" viewBox="0 0 500 214.4">
  <!-- Generator: Adobe Illustrator 30.2.1, SVG Export Plug-In . SVG Version: 2.1.1 Build 1)  -->
  <g>
    <path d="M75.03,99.8h-6.57c-2.62,0-3.95-1.05-3.95-3.12s1.23-3.12,3.45-3.12h14.6v-5.32h-14.44c-5.77,0-8.94,2.94-8.94,8.28,0,3.8,1.64,8.32,9.44,8.32h6.53c2.79,0,4.2,1.11,4.2,3.29s-1.3,3.29-3.66,3.29h-16.02v5.32h15.85c5.9,0,9.15-3,9.15-8.44,0-3.87-1.67-8.49-9.65-8.49Z" fill="#e6e7e8"/>
    <path d="M110.06,88.24h-14.6v5.32h14.81c2.29,0,3.66,1.32,3.66,3.54,0,1.77-.97,3.66-3.7,3.66h-10.11c-3.24,0-4.62,1.39-4.62,4.66v11.31h5.32v-10.36c0-.36.14-.5.5-.5h8.74c6.82,0,9.23-4.86,9.23-9.03,0-6.35-4.77-8.61-9.23-8.61Z" fill="#e6e7e8"/>
    <path d="M160.02,102.51c0,9.31,4.46,14.23,12.9,14.23h11.07v-5.32h-11.07c-5.31,0-7.57-2.66-7.57-8.9s2.26-8.94,7.57-8.94h11.07v-5.32h-11.07c-8.44,0-12.9,4.93-12.9,14.27Z" fill="#e6e7e8"/>
    <path d="M199.66,108.08c0-2.16,1.33-3.2,4.08-3.2h14.14v-4.87h-14.02c-2.78,0-4.08-.99-4.08-3.12s1.36-3.33,4.04-3.33h14.27v-5.32h-14.27c-6.2,0-9.61,2.79-9.61,7.86,0,.09-.01,2.26-.03,4.79-.02,3.52-.05,7.73-.05,7.98,0,2.94,1.24,7.86,9.57,7.86h14.44v-5.32h-14.44c-2.64,0-4.04-1.15-4.04-3.33Z" fill="#e6e7e8"/>
    <path d="M244.47,99.8h-6.57c-2.62,0-3.95-1.05-3.95-3.12s1.23-3.12,3.45-3.12h14.6v-5.32h-14.43c-5.77,0-8.94,2.94-8.94,8.28,0,3.8,1.64,8.32,9.44,8.32h6.53c2.79,0,4.2,1.11,4.2,3.29s-1.3,3.29-3.66,3.29h-16.02v5.32h15.85c5.9,0,9.15-3,9.15-8.44,0-3.87-1.67-8.49-9.65-8.49Z" fill="#e6e7e8"/>
    <polygon points="261.56 93.56 269.76 93.56 269.76 116.73 275.12 116.73 275.12 93.56 283.32 93.56 283.32 88.24 261.56 88.24 261.56 93.56" fill="#e6e7e8"/>
    <polygon points="321.51 93.56 329.71 93.56 329.71 116.73 335.07 116.73 335.07 93.56 343.27 93.56 343.27 88.24 321.51 88.24 321.51 93.56" fill="#e6e7e8"/>
    <rect x="353.29" y="88.24" width="5.32" height="28.5" fill="#e6e7e8"/>
    <path d="M386.49,88.24h-3.83c-8.44,0-12.9,4.95-12.9,14.31s4.46,14.19,12.9,14.19h3.83c8.44,0,12.9-4.91,12.9-14.19s-4.46-14.31-12.9-14.31ZM394.02,102.51c0,6.32-2.18,8.9-7.53,8.9h-3.83c-5.38,0-7.57-2.57-7.57-8.86s2.26-8.99,7.57-8.99h3.83c5.28,0,7.53,2.68,7.53,8.94Z" fill="#e6e7e8"/>
    <path d="M435.45,88.24v22.42c0,.86-.54,1.37-1.46,1.37-.73,0-1.25-.34-1.6-1.04l-8.19-17.91c-.96-2.64-2.54-5.34-7.02-5.34-4.23,0-6.66,2.3-6.66,6.32v22.67h5.32v-22.42c0-.91.53-1.42,1.5-1.42.77,0,1.21.3,1.56,1.09l8.19,17.92c1.36,3.74,3.47,5.34,7.06,5.34,4.23,0,6.66-2.32,6.66-6.36v-22.63h-5.36Z" fill="#e6e7e8"/>
  </g>
  <path d="M146.94,102.09c-1.31-3.6-3.89-10.37-4.5-11.94-.15-.39-.35-.76-.62-1.08-.15-.18-.34-.37-.56-.5-.8-.49-1.73-.57-2.01-.57-.41,0-1.29.01-2.13.61-.14.1-.28.23-.4.36-.36.39-.62.85-.81,1.35l-9.17,24.88c-.16.35-.12.66.04.89.16.27.47.39.86.39h22.97c.39,0,.67-.12.86-.39.16-.27.2-.54.12-.89l-4.68-13.11ZM133.37,111.36l5.8-15.48,5.76,15.48h-11.56Z" fill="#e6e7e8"/>
  <path d="M310.49,102.09c-1.31-3.6-3.89-10.37-4.5-11.94-.15-.39-.35-.76-.62-1.08-.15-.18-.34-.37-.56-.5-.8-.49-1.73-.57-2.01-.57-.41,0-1.29.01-2.13.61-.14.1-.28.23-.4.36-.36.39-.62.85-.81,1.35l-9.17,24.88c-.16.35-.12.66.04.89.16.27.47.39.86.39h22.97c.39,0,.67-.12.86-.39.16-.27.2-.54.12-.89l-4.68-13.11ZM296.92,111.36l5.8-15.48,5.76,15.48h-11.56Z" fill="#e6e7e8"/>
</svg>