<?xml version="1.0" encoding="UTF-8"?>
<svg id="Layer_1" xmlns="http://www.w3.org/2000/svg" version="1.1" viewBox="0 0 500 214.4">
  <!-- Generator: Adobe Illustrator 30.2.1, SVG Export Plug-In . SVG Version: 2.1.1 Build 1)  -->
  <path d="M358.9,108.1l-.81-.1-.98-.13c-.16-.02-.36-.54-.36-.76l.03-7.99.46-24.93c-.29-.05-.83-.14-1.04-.12l-10.4.71c-.04.66-.06,1.04-.05,1.9l.13,10.07c0,.24-.6.44-.79.43-6.84-.56-13.51,2.3-15.34,9.46-1.15,4.5-.95,10.23,1.52,14.3,2.22,3.67,5.88,5.32,10.1,5.17,2.1-1.21,3.66-2.37,5.48-4.1.27.35.53.7.69.96,1.19,1.98,3.14,3.33,5.53,3.2,1.13-.06,5.04-.87,5.26-2.22l.81-4.85c.04-.26-.04-.94-.26-.97ZM342.13,107.29c-2.62-1.13-2.37-7.82-1.97-10.28.17-1.05,1.03-1.97,2.11-2.16.82-.14,3.77-.23,3.78,1.07l.05,6.14.02,4.31c-1.17,1.06-2.67,1.49-4,.92Z" fill="#e6e7e8"/>
  <path d="M327.24,93.86c-.1-2.5-1.58-4.69-3.91-5.66-1.56-.65-3.58-1.22-5.23-.8-2.63.67-4.67,2.33-6.65,4.1-.09,0-.44-.24-.53-.36l.06-3.02c0-.16-.36-.58-.49-.61l-10.51.76.34,15.96-.45,11.36h11.55s-.45-12.7-.45-12.7l-.03-4.8c0-.23.12-.94.28-1.04,1.42-.92,4.22-1.17,4.91.8.22.61.37,1.43.35,2.08l-.59,15.65,11.02.03c.18,0,.55-.42.54-.61l-.38-12.09c-.09-2.81.29-5.9.17-9.05Z" fill="#e6e7e8"/>
  <path d="M290.09,87.61c-3.39-.95-6.96-.87-10.34.16-3.81,1.17-6.71,3.98-8.07,7.7-1.35,3.68-1.35,8.72.07,12.36,3.63,9.36,14.94,9.57,23.23,7.22l1.69-7.35c.05-.21-.09-.71-.27-.8-.17-.1-.74-.19-.95-.14-4.27,1-12.52,3.35-13.96-2.44.11-.04.66-.2.83-.2l8.26-.08,4.89-.04c1.01-.01,1.81-1.49,1.84-1.68,1.19-6.12-.48-12.81-7.22-14.7ZM287.73,98.16c-.19.05-.9.14-1.16.15l-4.79.21c-.1-.07-.44-.28-.53-.34.64-2.24,1.63-3.98,4.25-3.83,2.05.12,2.57,2.15,2.23,3.81Z" fill="#e6e7e8"/>
  <path d="M382.34,103.37c-1.77-4.24-6.77-4.9-10.98-7.05-.5-.26-.76-1.53-.2-1.84,1.79-1,5.9.96,7.58,1.94.52.3,2.08.63,2.22-.12l1.43-7.35c.03-.17-.23-.59-.43-.66-5.12-1.64-12.33-2.34-17.15,1.25-3.3,2.46-4.61,6.91-2.95,10.75,2.32,5.37,11.95,5.3,11.49,8.1-.05.3-.65.82-.99.85-3.27.27-6.85-1.73-9.62-3.53-.39-.26-1.08.74-1.16,1.23l-1.16,7.31c-.02.15.13.58.37.66,6.22,1.86,18.25,3.14,21.42-4.76.87-2.16,1.04-4.59.14-6.76Z" fill="#e6e7e8"/>
  <path d="M245.96,92.45l-.61.08.02-4.44c0-.16-.32-.57-.55-.56l-10.29.73-.16.94.34,15.04-.45,11.36h11.55s-.28-7.81-.28-7.81l-.23-6.81c-.01-.34.37-1.15.68-1.32,2.06-1.18,3.8-2.14,6.26-1.47.5.14,1.4.15,1.78-.23l.02-10.23c-3.83-.78-6.42,1.55-8.06,4.73Z" fill="#e6e7e8"/>
  <path d="M267.75,87.53l-10.47.69c-.13,0-.5.33-.5.48l.34,15.51-.46,10.8c0,.15.41.59.58.59h10.53c.16,0,.46-.5.45-.6l-.4-12.38.47-14.55c0-.14-.39-.56-.54-.55Z" fill="#e6e7e8"/>
  <circle cx="262.44" cy="78.39" r="5.98" fill="#e6e7e8"/>
  <path d="M153.21,77.32c-.1-.02-.35-.06-.6-.06h-10.57c-.87,1.4-.93,5.02-1.48,7.13l-5.24,20.02c-.07.26-.44.65-.53.57-.08-.08-.36-.33-.41-.6l-4.3-20.8-1.13-6.32h-11.41c-.14.01-.48.1-.48.12,0,.02,0,.35.05.52l10.12,37.02c.1.35.42.71.69.71h13.43c.12,0,.47-.17.59-.58l11.2-36.94c.12-.39.18-.75.08-.77Z" fill="#e6e7e8"/>
  <path d="M187.54,87.78c-7.95,2.45-10.31,10.99-8.52,18.39.97,4.03,3.7,7.2,7.52,8.78,5.24,2.16,10.53,1.43,15.81.26.12-.03.51-.41.55-.59l1.6-7.15c.11-.5-.87-.83-1.23-.75-3.72.93-6.89,1.78-10.51,1.08-2.42-.47-4.26-3.69-2.91-3.69l4.99-.03,3.8-.04,3.77-.06,1.53-.03,1.22-1.59c.28-2.21.42-4.41.04-6.62-1.47-8.48-10.73-10.11-17.65-7.97ZM189.86,98.49c-.18,0-.71-.14-.77-.19.43-2.21,1.6-4.1,4.2-3.95.93.05,1.57.62,2.16,1.33l.11,2.6-5.7.21Z" fill="#e6e7e8"/>
  <path d="M169.33,104.05l5.18-.05c3.03-.03,2.34-7.25,1.73-9.4-.88-3.12-3.06-5.53-6.11-6.67-3.57-1.34-8.42-1.24-11.99.1-7.49,2.83-9.51,11.02-7.83,18.11,1.04,4.37,4.17,7.74,8.42,9.16,5.22,1.75,9.82.96,14.82-.06.14-.03.6-.4.64-.6l1.6-7.15c.1-.42-.74-.85-1.05-.77-4.15.99-12.95,3.54-14.16-2.56l5.5-.07,3.23-.04ZM160.36,98.38c.53-2.34,1.59-4.13,4.16-4.03.98.04,2.01.63,2.24,1.66.15.64.14,1.34.12,2.26l-5.62.22c-.17,0-.64-.06-.9-.11Z" fill="#e6e7e8"/>
  <path d="M232.45,77.25l-6.33.04s-.03,0-.05,0c.02,0,.04,0,.05,0l.13-1.08c.13-1.04.22-4.04-.7-4.75-.32-.25-1-.55-1.33-.55h-2.14c-.93,0-1.64-2.41-4.95-1.47l.28-1.26h0c.15-.43.14-1.01-.01-1.52l-.56-1.9c-.17-.59.63-3.48-1.62-4.93-1.13-.12-1.77,1.81-2.33,1.87l-2.44.04c-.17,0-.64-.17-.76-.29l-1.19-1.14c-1.2-1.15-2.76,2.96-1.71,4.46l-.5,2.87c-.08.44.15,1.1.47,1.39.07.02.15.05.23.08-.08-.03-.16-.06-.23-.08.32,1.21,2.31,2.17,3.47,2.19.78-.3.63.74,1.83.68,1-.05,1.99-.3,2.88-.72-.89.42-1.88.67-2.88.73-1.2.06-1.05-.98-1.83-.68l.22,1.56s.52.08.61.2c-.09-.11-.59-.22-.61-.2.02.17.01.45.02.85.04.06.16.23.16.23,0,0,0,0,0,0v2.04s0,0,0,0c0,0-.02,0-.02,0-.21.11-.52.45-.62.67l.98.32s.05,0,.07-.02c-.03.02-.05.02-.07.02l-.98-.32-.3.71-2.15.08.54,26.87-.52,10.77c0,.16.31.59.44.61l11.46-.05-.47-12.55c0-.19.26-.68.37-.68l2.89.05,7.8.17.69-8.14c.04-.48-.4-1.34-.92-1.33l-10.45.17c-.06-.45-.11-.99-.1-1.39l.09-4.84c0-.18.34-.68.55-.68l8.15.22,4.96.19.75-8.36c.05-.58-.61-1.17-1.34-1.16ZM224.55,75.52c0,.08-.19.36-.21.44-.03.08-.18-.24-.27-.37-.79-1.15-1.52-.2-1.59-.88l-.16-1.63.25-.31,1.11-.06c.32-.02.92.61.91.95l-.04,1.85ZM225.9,73.83c0-.14,0-.3,0-.46,0,.16,0,.31,0,.46ZM225.89,73.9s0,0,0,0c0,0,0,0,0,0ZM218.37,69.71c-.63-.07-1.09-.02-1.61.29.52-.31.97-.36,1.61-.29ZM216.99,68.45l-.38.25c-.52.34-1.1.7-1.65.99-.34.18-.69.32-1.04.44.35-.12.7-.26,1.04-.44.55-.29,1.12-.65,1.64-.99l.38-.24ZM212.24,69.03c-.05-.06,0-.14.07-.49l-.4.04.4-.05c-.07.35-.11.43-.07.49ZM212.38,69.15l.52.41h0s-.52-.41-.52-.41ZM215.43,60.68l.2.98-.2-.98c-.73.74-.85.94-1.16,1.57l.64.35-.64-.35c.32-.63.43-.84,1.16-1.58ZM212.81,64.64c.6-.37,1.91-.01,2.33.73.19.34.17,1.26-.08,1.78-.17.36-1.29.57-1.65.41-1.21-.51-1.34-2.45-.6-2.92ZM212.22,68.22c-.07,0-.12-.05-.13-.12,0,.07.06.12.13.12.07,0,.13-.06.13-.13,0-.03-.02-.06-.04-.09.02.02.04.05.04.09,0,.08-.06.13-.13.13ZM212.28,67.98s-.04-.03-.07-.03c-.02,0-.04.01-.06.03.02-.01.04-.03.06-.03s.05.02.07.03ZM212.12,67.99s-.03.05-.03.08c0-.03.01-.06.03-.08ZM211.73,68.96l-.1.35c-.15.1-.23.15-.27.18h0s.12-.08.27-.18l.1-.35ZM211.53,68.1s-.07-.05-.12-.05c-.1,0-.17.08-.17.17,0,.04.02.08.04.11-.03-.03-.04-.07-.04-.11,0-.09.08-.17.17-.17.05,0,.09.02.12.05ZM208.56,65.5c.74-.66,1.39-.9,2.4-.79.38.68.58,1.46.24,2.22-.42.93-1.35,1.02-2.18.81-.52-.68-.63-1.37-.46-2.24ZM207.27,69.23c.18.07.36.16.54.26.67.36,1.37.64,2.09.81-.72-.17-1.43-.44-2.09-.8-.18-.1-.36-.18-.54-.26ZM212.84,74.34c.24.34.55.87.5,1.1l-.25,1.23-.52.05.28-2.38ZM211.07,73.01s.01.02,0,.03c-.05.15-.18.42-.3.61.11-.19.24-.46.3-.61,0,0,0-.02,0-.03ZM210.96,75.76s0,0,0-.01h0s0,0,0,.01ZM211.15,74.14h0s.3,1.84.3,1.84c.01.09-.06.33-.15.55.1-.22.17-.46.15-.55l-.3-1.84ZM215.55,77.37l.13-2.13c.01-.22.36-.49.72-.71l.04,1.47c-.36.31-.6.87-.55,1.34l-.34.03ZM218.35,77.25s-.02,0-.03,0l.15-1.37c.03-.29.39-.86.55-1.02.43.1.77.49.86.92l-.45.98c-.05.12-.08.37-.1.51-.06-.01-.75-.09-.98-.03ZM222.25,77.34l.12-1.91.17.57.34,1.35h-.63ZM225.5,77.36c.12-.01.21-.03.3-.04-.09.01-.19.02-.3.04,0,0,0,0,0,0Z" fill="#e6e7e8"/>
</svg>