<?xml version="1.0" encoding="UTF-8"?>
<svg id="Layer_1" xmlns="http://www.w3.org/2000/svg" version="1.1" viewBox="0 0 500 214.4">
  <!-- Generator: Adobe Illustrator 30.2.1, SVG Export Plug-In . SVG Version: 2.1.1 Build 1)  -->
  <path d="M361.72,134.34c8.7,0,14.37-4.31,14.37-13.1,0-12.22-15.89-23.72-15.89-31.06,0-2.95,1.92-4.31,4.71-4.31,2,0,4.47.56,6.31,1.28l2.71-7.98c-1.52-.8-5.19-2-9.34-2-6.47,0-13.42,2.95-13.42,13.02,0,12.22,15.81,23.24,15.81,31.06,0,2.95-1.84,4.87-5.43,4.87-3.27,0-7.03-1.36-8.86-2.32l-2.95,7.59c2.79,1.52,7.11,2.95,11.98,2.95M325.06,133.94h23.08s0-8.3,0-8.3h-14.13s0-15.73,0-15.73h10.38s0-8.7,0-8.7h-10.38s0-14.93,0-14.93h13.66s0-8.62,0-8.62h-22.6s0,56.3,0,56.3ZM282.74,133.94h7.99s1.2-27.07,1.2-27.07l8.55,23.8h1.84s8.54-23.72,8.54-23.72l1.2,26.99h8.54s-2.48-56.94-2.48-56.94h-3.59s-12.86,34.42-12.86,34.42l-12.86-34.42h-3.59s-2.48,56.94-2.48,56.94ZM269.09,133.94h9.02s0-24.31,0-24.31v-31.99s-9.02,0-9.02,0v11s0,45.3,0,45.3ZM247.53,86.27v47.67s9.18,0,9.18,0v-47.67s9.18,0,9.18,0v-8.62s-27.63,0-27.63,0v8.62s9.26,0,9.26,0ZM199.14,133.94h9.02s0-24.12,0-24.12h10.78s0,24.12,0,24.12h9.02s0-56.3,0-56.3h-9.02s0,23.16,0,23.16h-10.78s0-23.16,0-23.16h-9.02s0,56.3,0,56.3ZM167.27,105.67c0,23,12.06,28.83,22.12,28.83,1.76,0,3.43-.24,4.87-.48v-28.28s-10.77,0-10.77,0v9.05s2.3,0,2.3,0v10.46c-4.15-1.04-9.5-6.23-9.5-19.48,0-11.58,4.71-19.32,13.18-19.32.8,0,1.68.16,2.55.24l1.04-8.86c-1.28-.24-2.56-.48-3.91-.48-10.14,0-21.88,6.87-21.88,28.35M154.66,133.94h9.02s0-14.82,0-14.82v-41.48s-9.02,0-9.02,0v9.85s0,46.45,0,46.45ZM121.44,133.94h9.02s0-24.12,0-24.12h10.78s0,24.12,0,24.12h9.02s0-56.3,0-56.3h-9.02s0,23.16,0,23.16h-10.78s0-23.16,0-23.16h-9.02s0,56.3,0,56.3Z" fill="#f2f2f2"/>
  <path d="M378.4,133.66c.73,2.3-1.19,4.32-3.59,3.58-1.29-.4-2.16-1.92-1.66-3.58.29-.93,1.27-1.78,2.61-1.78,1.35,0,2.34.82,2.64,1.78M376.62,136.79c1.06-.35,1.83-1.83,1.26-3.13-.24-.56-.82-1.12-1.5-1.27-.22-.05-.56-.1-.83-.05-1.36.27-2.47,1.45-1.9,3.1.35,1.02,1.6,1.81,2.98,1.36" fill="#f2f2f2"/>
  <path d="M376.59,135.04c.18.35.38.71.58,1.05-.14.07-.37.05-.53.1-.13-.23-.29-.49-.42-.74-.07-.14-.18-.56-.31-.61-.06-.02-.7-.05-.76,0-.07.06,0,.56,0,.66v.66s-.52,0-.52,0c0-1.04-.01-2.11,0-3.14.64,0,1.3-.04,1.81.09.7.17.87,1.16.24,1.56-.03.02-.23.04-.25.09-.03.06.13.23.16.28M376.25,134.38c.41-.11.43-.73,0-.86-.3-.09-.69-.06-1.08-.07-.01.31-.01.67,0,.98.43-.01.78.03,1.09-.06" fill="#f2f2f2"/>
  <rect x="373.01" y="131.87" width="5.55" height="5.52" fill="#f2f2f2"/>
  <rect x="373.01" y="131.87" width="5.55" height="5.52" fill="#f2f2f2"/>
</svg>