<?xml version="1.0" encoding="UTF-8"?>
<svg id="Layer_1" xmlns="http://www.w3.org/2000/svg" version="1.1" viewBox="0 0 500 214.4">
  <!-- Generator: Adobe Illustrator 30.2.1, SVG Export Plug-In . SVG Version: 2.1.1 Build 1)  -->
  <path id="path8" d="M125.11,86.04h11.56v.45l-1.86,1.86c-.44.39-.69.96-.67,1.55v29.07h-.45l-21.86-20.07v15.01c-.03.58.21,1.15.65,1.53l1.86,1.86v.45h-11.58v-.45l1.86-1.86c.45-.37.7-.94.67-1.53v-29.31h.41l21.88,20.02v-14.71c.05-.58-.18-1.16-.61-1.55l-1.86-1.86v-.45ZM168.92,108.73c0,6.16-4.34,8.99-11.43,8.99h-18.25v-.45l1.86-1.86c.46-.38.71-.95.67-1.55v-23.98c.04-.59-.21-1.17-.67-1.55l-1.86-1.86v-.45h18.41c6.67,0,9.98,3.17,9.98,8.57-.11,3.2-2.43,5.9-5.59,6.48h0c4.26.73,6.95,3.26,6.95,7.58M148.89,98.59h7.88c2.42,0,3.72-1.15,3.72-3.37s-1.1-3.39-3.72-3.39h-7.88v6.76ZM161.7,107.9c0-2.79-1.69-3.89-5.06-3.89h-7.75v7.75h7.75c2.87,0,5.06-.99,5.06-3.85M188.42,112.35c-5.38,0-9.05-4.13-9.05-10.32,0-6.55,4.06-10.46,9.31-10.46,2.97-.3,5.76,1.46,6.78,4.26l.48.13,2.66-10.82-.45-.19c-.86.75-1.97,1.16-3.11,1.14-1.55,0-3.95-.6-6.83-.6-9.31,0-16.57,6.26-16.57,16.5s7.15,16.39,16.42,16.39c4.47.16,8.81-1.57,11.94-4.77l-4.13-5.03c-1.72,2.39-4.5,3.78-7.45,3.72M221.53,86.5l1.86,1.86c.45.39.7.95.69,1.55v15.58c0,4.54-2.29,6.78-6.31,6.78s-6.39-2.12-6.39-6.78v-15.6c-.03-.6.22-1.17.69-1.55l1.86-1.86v-.43h-12.12v.45l1.86,1.86c.46.38.71.95.67,1.55v15.4c0,8.77,5.59,13.03,13.42,13.03s13.44-4.32,13.44-13.03v-15.42c-.04-.59.21-1.17.67-1.55l1.86-1.86v-.43h-12.21v.45ZM259.17,113.33v-9.14c0-5.44-2.7-8.6-7.34-8.6-3.03-.07-5.82,1.6-7.19,4.3v-3.89h-9.03v.48l1.86,1.86c.58.58.67.95.67,2.09v13.03c0,1.14,0,1.51-.67,2.09l-1.86,1.86v.45h11.69v-.45l-1.86-1.86c-.58-.58-.67-.95-.67-2.09v-7.43c0-2.57,1.27-4.6,4.11-4.6,2.4,0,3.52,1.75,3.52,4.26v12.03h9.2v-.45l-1.86-1.86c-.58-.58-.65-.95-.65-2.09M273.29,113.33v-17.33h-9.12v.48l1.86,1.86c.58.58.67.95.67,2.09v13.03c0,1.14,0,1.51-.67,2.09l-1.86,1.86v.45h11.77v-.45l-1.86-1.86c-.58-.58-.69-.95-.69-2.09M269.97,92.76c2.13.03,3.88-1.67,3.91-3.8,0-.05,0-.1,0-.15.04-2.12-1.64-3.87-3.76-3.91-.05,0-.1,0-.15,0-2.17-.21-4.1,1.38-4.31,3.55-.21,2.17,1.38,4.1,3.55,4.31.25.02.51.02.77,0M300.88,95.98h-8.34l-3.85,10.5h-.11l-4.41-10.48h-8.23v.48c1.47,1.14,2.64,2.63,3.39,4.34l8.86,17.87h.48l8.81-17.87c.72-1.73,1.9-3.23,3.41-4.34v-.5ZM322.26,106.85v1.86h-15.03c.47,2.58,2.85,4.35,5.46,4.08,1.73.07,3.4-.61,4.6-1.86l3.72,4.43c-2.53,1.99-5.69,3-8.9,2.85-7.17,0-11.73-4.36-11.73-11.17-.4-6.01,4.14-11.21,10.16-11.62.47-.03.95-.03,1.42,0,7.21,0,10.37,4.75,10.37,11.26M315.54,104.67c.15-2.15-1.47-4.03-3.62-4.18-.12,0-.24-.01-.36,0-2.36-.04-4.32,1.83-4.39,4.19h8.38ZM333.86,100.21v-4.21h-9.03v.48l1.86,1.86c.58.58.67.95.67,2.09v13.03c0,1.14,0,1.51-.67,2.09l-1.86,1.86v.45h11.71v-.45l-1.86-1.86c-.56-.58-.65-.95-.65-2.09v-6.7c0-3.26,1.6-5.01,4.17-5.01,1.2,0,2.35.45,3.22,1.27l1.75-6.8c-.87-.43-1.84-.65-2.81-.63-2.97.06-5.58,1.98-6.52,4.8M357.11,104.41c-2.98-.48-5.21-.48-5.21-2.25,0-1.01.84-1.68,2.79-1.68,2.64,0,5.1.88,6.01,2.89l.47.13,2.1-8.29-.45-.17c-.81.72-1.86,1.13-2.94,1.14-1.47,0-2.83-.58-5.59-.58-4.77,0-9.31,1.71-9.31,7.09,0,4.21,3.35,5.83,6.55,6.37s5.42.61,5.42,2.42c0,1.04-.91,1.86-2.85,1.86-2.62.02-5.16-.86-7.21-2.5l-3.11,4.64c2.87,2.03,6.33,3.06,9.85,2.92,6.26,0,10.13-2.76,10.13-7.6,0-4.17-3.54-5.79-6.8-6.35M387.39,115.47l1.86,1.86v.45h-9.05v-3c-1.39,2.37-4,3.75-6.74,3.57-3.52.28-6.59-2.35-6.87-5.86-.01-.16-.02-.31-.02-.47,0-4.82,3.31-7.06,10.56-7.21,2.33,0,2.94-.56,2.94-1.86s-1.06-2.22-3.87-2.22c-2.02.01-3.95.87-5.31,2.36l-3.54-4.17c2.62-2.36,6.07-3.56,9.59-3.35,6.87,0,9.85,2.85,9.85,8.42v9.31c0,1.14.09,1.51.67,2.09M380.15,107.95c-.91.22-1.85.34-2.79.35-3,.19-4.04,1.28-4.04,2.77-.06,1.28.92,2.38,2.21,2.44.09,0,.18,0,.27,0,2.2.23,4.17-1.37,4.39-3.57.01-.14.02-.29.02-.43l-.06-1.56ZM400.94,115.4c-.6-.58-.69-.95-.69-2.09v-29.87h-9.16v.45l1.86,1.86c.58.58.67.95.67,2.07v25.51c0,1.14-.09,1.51-.67,2.09l-1.86,1.86v.45h11.67v-.45l-1.82-1.88Z" fill="#e6e7e8"/>
</svg>