<?xml version="1.0" encoding="UTF-8"?>
<svg id="Layer_1" xmlns="http://www.w3.org/2000/svg" version="1.1" viewBox="0 0 500 214.4">
  <!-- Generator: Adobe Illustrator 30.2.1, SVG Export Plug-In . SVG Version: 2.1.1 Build 1)  -->
  <path d="M192.03,104.77c-5.88-8.35-17.28-8.44-17.28-8.44h-16.85s-.1,0-.28,0h-2.28s-.02,0-.05,0h0c-4.96-.03-8.97-4.05-8.97-9.02,0,0,0-.03,0-.08.02-2.35.94-4.48,2.42-6.07.35-.38.74-.74,1.19-1.07.04-.03.09-.06.14-.1.02-.02.05-.03.07-.05,1.47-1.04,3.26-1.65,5.2-1.65h9.52s1.13-.02,2.39.28c.02,0,.04.01.06.02.04.01.09.02.13.03,1.94.52,4.64,1.85,6.86,5.17.29.46.44.75.44.75,2.04,3.77,6.42,3.4,6.72,3.37.01,0,.02,0,.03,0h9.73c.2,0,.36-.16.36-.36,0-.16-.1-.3-.25-.34-1.69-.55-3.75-1.53-5.61-3.29-.31-.31-.62-.64-.95-.98-.24-.28-.47-.52-.7-.74-.78-.84-1.63-1.75-2.6-2.72-5.06-5.06-13.48-5.06-13.48-5.06h-11.8s-6.62-.32-11.97,5.03c-5.29,5.29-3.2,13.51-3.2,13.51,0,0,3.37,11.8,16.85,11.8h16.01s.08,0,.12,0c.04,0,.08,0,.12,0,5.92,0,10.71,4.8,10.71,10.71v.28c-.16,5.78-4.89,10.43-10.71,10.43-.06,0-.11,0-.17,0h-14.41s-8.92.49-11.57-7.19c-.13-.4-.19-.67-.21-.73,0-.01,0-.02,0-.03-1.82-5.87-5.33-7.13-8.09-7.91-1.49-.5-6.2-.5-6.2-.5h-7.25c-.2,0-.36.16-.36.36h0c0,.17.11.31.26.36,9.24,2.66,6.99,9.91,11.53,14.45,5.06,5.06,13.48,5.06,13.48,5.06h27.17,0c15.01-.14,20.56-15.54,13.71-25.26Z" fill="#e6e7e8"/>
  <path d="M295.44,74.41c-.33,0-.65,0-.98.01h-28.23c-.17,0-.31.14-.31.31v.1c0,.14.09.26.23.3,2.57.73,4.25,1.82,5.44,3.1h0s.03.03.08.08c.21.24.41.48.6.73.47.68.89,1.66.21,2.4v.02s-.01,0-.01,0c-6.17,4.43-10.35,10.61-11.34,17.58-.02.17-.16.29-.33.29-3.16.02-8.16.08-13.63.22l-5.64-14.57s-3.38-10.28-12.4-10.55c0,0-.03,0-.05,0h.06s-.31-.05-.66,0h-2.99s-.36-.04-.97,0h-13.89c-.17,0-.31.14-.31.31v.1c0,.14.09.26.23.3,1.8.51,3.17,1.2,4.24,2.01h0s.02.01.04.03c.26.2.51.41.74.63.5.52.99,1.27.59,2-.81,1.18-1.57,2.6-2.25,4.34-.26.68-.51,1.32-.75,1.93-.01.02-.03.04-.04.07-.04.08-.08.16-.13.25-.08.14-.15.29-.22.44h0s0,0,0,0c-.09.2-.16.4-.23.61l-5.57,14.57h0l-5.61,14.49h0l-.06.16-2.65,6.04s-2,4.76-6.65,6.5c-.12.05-.2.16-.2.29v.22c0,.17.14.31.32.31.23,0,.48-.01.72-.02,1.36-.04,3.16-.14,4.16-.38.41-.07.79-.16,1.11-.26.05-.02.1-.03.15-.05,5.13-1.48,7.14-6.59,7.14-6.59l2.65-6.04.06-.16h0l5.61-14.49h0l5.57-14.57c.07-.21.14-.41.23-.61h0s0,0,0,0c.07-.15.14-.3.22-.44.04-.09.08-.17.13-.25.18-.3.39-.59.62-.86.03-.04.06-.07.09-.11.04-.04.08-.09.12-.13,1.19-1.32,2.9-2.15,4.81-2.19,1.91.04,3.61.88,4.81,2.19.04.04.08.09.12.13.03.04.06.07.09.11.23.27.44.56.62.86.04.08.08.16.13.25.08.14.15.29.22.44h0s0,0,0,0c.09.2.16.4.23.61l4.77,12.48c-8.66.42-16.33,1.11-17.71,2.28,0,0,0,0,0,0,0,0,0,0,0,0,1.47,1.25,10.12,1.96,19.49,2.36l4.62,11.94h0l.06.16,2.65,6.04s2.26,5.74,8.09,6.82c.01,0,.02,0,.03,0,1.51.49,6.19.49,6.19.49h7.4c.17,0,.31-.14.31-.31,0-.14-.09-.25-.22-.29-.51-.16-1.06-.37-1.65-.62-1.05-.42-1.91-.9-2.64-1.45-2.92-1.92-6.23-5.21-9.14-10.85h0c-.73-1.42-1.44-2.99-2.11-4.73-.24-.62-.46-1.21-.67-1.79l-1.96-5.07c4.64.1,8.79.15,11.55.17.17,0,.31.13.33.29,1.95,13.87,16.57,24.64,34.32,24.64,19.08,0,34.54-12.45,34.54-27.8s-15.47-27.8-34.54-27.8ZM269.56,98.93c1.72-11.94,12.65-21.14,25.88-21.14s24.16,9.21,25.88,21.14c.03.2-.13.39-.34.39-19.16,0-23.95-6.51-25.15-9.77-.05-.13-.18-.22-.32-.22h-.17c-.14,0-.27.09-.32.22-1.2,3.26-5.99,9.77-25.15,9.77-.21,0-.37-.18-.34-.39ZM321.33,105.49c-1.71,11.95-12.65,21.16-25.88,21.16s-24.17-9.21-25.88-21.16c-.03-.2.13-.39.34-.39h0c19.16,0,23.95,6.52,25.15,9.77.05.13.18.22.32.22h.16c.14,0,.27-.09.32-.22,1.2-3.26,5.98-9.77,25.15-9.77h0c.21,0,.37.18.34.39Z" fill="#e6e7e8"/>
  <path d="M305.93,66.72c5.45,0,26.95,0,31.94,0,2.11.02,4.06-1.34,4.79-3.3.22-.57.34-1.18.34-1.83V21.19c0-.31-.16-.59-.47-.59-.28,0-.44.27-.46.54-2.39,34.46-17.53,44.08-36.13,44.78-.48.02-.51.8-.02.8Z" fill="#e6e7e8"/>
  <path d="M373.83,68.75c-12.71-.36-22.99-4.85-24.98-21.42-.02-.35-.04-.71-.05-1.06-.02-.48-.8-.51-.8-.02l-.02,15.34c0,5.26-3.73,9.81-9.02,9.98h0c-.31,0-.9,0-1.21,0h0c-1.44,0-6.98,0-8.52,0-.36.12-.3.76.14.78.07,0,.14,0,.21.01,1.19.08,6.99.79,7.12,7.12v34.79c0,.31.16.59.47.59.28,0,.44-.27.46-.54,2.39-34.46,17.53-44.08,36.13-44.78.46-.02.5-.73.08-.79Z" fill="#e6e7e8"/>
  <polygon points="268.83 146.27 265.41 146.27 265.41 142.52 263.55 142.52 263.55 151.71 265.41 151.71 265.41 147.89 268.83 147.89 268.83 151.71 270.7 151.71 270.7 142.52 268.83 142.52 268.83 146.27" fill="#e6e7e8"/>
  <path d="M281.51,142.35c-1.4,0-2.38.39-2.95,1.18-.57.79-.86,1.99-.86,3.62s.29,2.81.86,3.57c.57.76,1.56,1.14,2.95,1.14s2.38-.38,2.95-1.14c.57-.76.86-1.95.86-3.57s-.29-2.83-.86-3.62c-.57-.79-1.56-1.18-2.95-1.18ZM283,149.54c-.27.47-.76.71-1.49.71s-1.23-.24-1.49-.71c-.27-.47-.4-1.27-.4-2.38s.14-1.92.41-2.43c.27-.5.77-.76,1.49-.76s1.22.25,1.49.76c.27.5.41,1.31.41,2.43s-.13,1.91-.4,2.38Z" fill="#e6e7e8"/>
  <path d="M297.37,148.64c0,1.07-.55,1.61-1.64,1.61s-1.64-.54-1.64-1.61v-6.12h-1.86v6.08c0,1.13.29,1.95.87,2.48.58.53,1.46.79,2.63.79s2.05-.26,2.63-.79.87-1.35.87-2.48v-6.08h-1.87v6.12Z" fill="#e6e7e8"/>
  <path d="M309.99,146.27c-.9-.29-1.47-.51-1.71-.66-.24-.15-.36-.37-.36-.66,0-.65.49-.97,1.47-.97.52,0,1.42.07,2.69.22l.15-1.47-.49-.09c-1.03-.18-1.87-.27-2.54-.27-.97,0-1.74.23-2.3.68-.56.45-.84,1.14-.84,2.05,0,.73.21,1.3.64,1.71.43.41,1.16.76,2.21,1.06.66.19,1.1.36,1.32.53.22.16.33.39.33.68,0,.79-.48,1.19-1.43,1.19-.64,0-1.56-.08-2.77-.24l-.19,1.45.49.09c1.02.22,1.88.32,2.58.32.95,0,1.71-.25,2.3-.74.59-.5.88-1.23.88-2.19,0-.76-.18-1.32-.54-1.68-.36-.36-.99-.69-1.89-.98Z" fill="#e6e7e8"/>
  <polygon points="319.32 151.71 325.27 151.71 325.27 150.08 321.19 150.08 321.19 147.88 324.46 147.88 324.46 146.29 321.19 146.29 321.19 144.14 325.27 144.14 325.27 142.52 319.32 142.52 319.32 151.71" fill="#e6e7e8"/>
</svg>